<svg width="1920" height="352" viewBox="0 0 1920 352" fill="none" xmlns="http://www.w3.org/2000/svg">
<path d="M1890.6 -38.5392L1875.64 -44.1377M1890.6 -38.5392L1846.28 -38.5392M1890.6 -38.5392L1906.05 -32.7568M1890.6 -38.5392L1921.98 -38.5392M1875.64 -44.1377L1881.09 -44.1362L1886.47 -44.1228L1891.74 -44.0898L1896.85 -44.0226L1901.74 -43.9135L1906.35 -43.749L1910.63 -43.5218L1914.61 -43.2318L1918.02 -42.8296L1921.13 -42.3647L1921.98 -42.2017L1921.98 -38.5392M1875.64 -44.1377L1832.04 -44.1377M1846.28 -38.5392L1832.04 -44.1377M1846.28 -38.5392L1801.97 -38.5392M1846.28 -38.5392L1849.92 -37.1115L1861 -32.7568M1921.98 -38.5392L1921.98 -32.7568M1832.04 -44.1377L1788.44 -44.1377M1788.44 -44.1377L1744.84 -44.1377M1788.44 -44.1377L1801.97 -38.5392M1744.84 -44.1377L1701.24 -44.1377M1744.84 -44.1377L1757.66 -38.5392M1801.97 -38.5392L1757.66 -38.5392M1801.97 -38.5392L1815.95 -32.7568M1701.24 -44.1377L1657.63 -44.1377M1701.24 -44.1377L1713.34 -38.5392M1757.66 -38.5392L1713.34 -38.5392M1757.66 -38.5392L1770.9 -32.7568M1657.63 -44.1377L1614.03 -44.1377M1657.63 -44.1377L1669.03 -38.5392M1713.34 -38.5392L1669.03 -38.5392M1713.34 -38.5392L1725.85 -32.7568M1614.03 -44.1377L1570.43 -44.1377M1614.03 -44.1377L1624.71 -38.5392M1669.03 -38.5392L1624.71 -38.5392M1669.03 -38.5392L1671.93 -37.1115L1673.4 -36.394L1680.8 -32.7568M1570.43 -44.1377L1526.83 -44.1377M1570.43 -44.1377L1580.4 -38.5392M1624.71 -38.5392L1580.4 -38.5392M1624.71 -38.5392L1627.44 -37.1115L1635.75 -32.7568M1526.83 -44.1377L1483.23 -44.1377M1526.83 -44.1377L1536.08 -38.5392M1580.4 -38.5392L1536.08 -38.5392M1580.4 -38.5392L1590.7 -32.7568M1483.23 -44.1377L1439.62 -44.1377M1483.23 -44.1377L1491.77 -38.5392M1536.08 -38.5392L1491.77 -38.5392M1536.08 -38.5392L1538.45 -37.1115L1539.63 -36.3939L1545.65 -32.7568M1439.62 -44.1377L1396.02 -44.1377M1439.62 -44.1377L1447.46 -38.5392M1491.77 -38.5392L1447.46 -38.5392M1491.77 -38.5392L1500.6 -32.7568M1396.02 -44.1377L1352.42 -44.1377M1396.02 -44.1377L1403.14 -38.5392M1447.46 -38.5392L1403.14 -38.5392M1447.46 -38.5392L1449.45 -37.1115L1450.46 -36.3939L1455.55 -32.7568M1352.42 -44.1377L1308.82 -44.1377M1352.42 -44.1377L1354 -42.7549L1356.4 -40.6605L1358.83 -38.5392M1403.14 -38.5392L1358.83 -38.5392M1403.14 -38.5392L1404.05 -37.8275L1404.96 -37.1115L1410.5 -32.7568M1308.82 -44.1377L1265.22 -44.1377M1308.82 -44.1377L1310.22 -42.7549L1314.51 -38.5391M1358.83 -38.5392L1314.51 -38.5391M1358.83 -38.5392L1360.46 -37.1115L1361.29 -36.3939L1365.45 -32.7568M1265.22 -44.1377L1221.61 -44.1377M1265.22 -44.1377L1270.2 -38.5391M1314.51 -38.5391L1270.2 -38.5391M1314.51 -38.5391L1320.4 -32.7568M1221.61 -44.1377L1178.01 -44.1377M1221.61 -44.1377L1223.2 -42.0597L1224.81 -39.9563L1225.34 -39.2492L1225.89 -38.5391M1270.2 -38.5391L1225.89 -38.5391M1270.2 -38.5391L1270.83 -37.8275L1271.47 -37.1115L1272.11 -36.3939L1275.35 -32.7567M1178.01 -44.1377L1134.41 -44.1377M1178.01 -44.1377L1179.33 -42.0597L1179.78 -41.3616L1180.22 -40.6604L1181.57 -38.5391M1225.89 -38.5391L1181.57 -38.5391M1225.89 -38.5391L1226.97 -37.1115L1227.52 -36.3939L1228.07 -35.6719L1230.3 -32.7567M1134.41 -44.1377L1090.81 -44.1377M1134.41 -44.1377L1137.26 -38.5391M1181.57 -38.5391L1137.26 -38.5391M1181.57 -38.5391L1182.48 -37.1115L1184.32 -34.2218L1184.78 -33.4907L1185.25 -32.7567M1090.81 -44.1377L1091.07 -43.4484L1091.33 -42.7548L1092.67 -39.2492L1092.94 -38.5391M1090.81 -44.1377L1047.21 -44.1377M1137.26 -38.5391L1092.94 -38.5391M1137.26 -38.5391L1137.62 -37.8275L1137.98 -37.1115L1138.35 -36.3939L1140.2 -32.7567M1092.94 -38.5391L1048.63 -38.5391M1092.94 -38.5391L1095.15 -32.7567M1047.21 -44.1377L1003.6 -44.1377M1047.21 -44.1377L1048.63 -38.5391M1003.6 -44.1377L960 -44.1377M1003.6 -44.1377L1003.87 -42.0596L1004.31 -38.5391M1048.63 -38.5391L1004.31 -38.5391M1048.63 -38.5391L1048.81 -37.8275L1048.99 -37.1114L1049.17 -36.3939L1050.1 -32.7567M960 -44.1377L916.399 -44.1377M960 -44.1377L960 -38.5391M1004.31 -38.5391L960 -38.5391M1004.31 -38.5391L1005.05 -32.7567M916.399 -44.1377L872.795 -44.1376M916.399 -44.1377L916.134 -42.0596L915.686 -38.5391M960 -38.5391L915.686 -38.5391M960 -38.5391L960 -32.7567M872.795 -44.1376L829.194 -44.1376M872.795 -44.1376L871.371 -38.5391M915.686 -38.5391L871.371 -38.5391M915.686 -38.5391L914.95 -32.7567M829.194 -44.1376L828.93 -43.4484L828.667 -42.7548L827.329 -39.2492L827.057 -38.5391M829.194 -44.1376L785.592 -44.1376M871.371 -38.5391L827.057 -38.5391M871.371 -38.5391L871.191 -37.8275L871.009 -37.1114L870.826 -36.3939L870.272 -34.2218L869.901 -32.7567M827.057 -38.5391L782.742 -38.5391M827.057 -38.5391L824.85 -32.7567M785.592 -44.1376L741.988 -44.1376M785.592 -44.1376L783.104 -39.2492L782.742 -38.5391M741.988 -44.1376L698.387 -44.1376M741.988 -44.1376L740.668 -42.0596L740.224 -41.3615L739.329 -39.9563L738.88 -39.2492L738.428 -38.5391M782.742 -38.5391L738.428 -38.5391M782.742 -38.5391L782.38 -37.8275L782.016 -37.1114L781.65 -36.3939L779.8 -32.7567M698.387 -44.1376L654.784 -44.1376M698.387 -44.1376L696.802 -42.0596L695.196 -39.9563L694.656 -39.2492L694.115 -38.5391M738.428 -38.5391L694.115 -38.5391M738.428 -38.5391L737.521 -37.1114L735.681 -34.2217L734.749 -32.7567M654.784 -44.1376L611.183 -44.1376M654.784 -44.1376L649.801 -38.5391M694.115 -38.5391L649.801 -38.5391M694.115 -38.5391L693.025 -37.1114L692.476 -36.3939L691.926 -35.6718L689.701 -32.7567M611.183 -44.1376L567.581 -44.1376M611.183 -44.1376L609.777 -42.7548L605.487 -38.5391M649.801 -38.5391L649.166 -37.8275L644.65 -32.7567M649.801 -38.5391L605.487 -38.5391M567.581 -44.1376L523.974 -44.1376M567.581 -44.1376L561.177 -38.5391M605.487 -38.5391L561.177 -38.5391M605.487 -38.5391L604.761 -37.8275L599.601 -32.7567M523.974 -44.1376L480.381 -44.1376M523.974 -44.1376L516.862 -38.5391M561.177 -38.5391L516.862 -38.5391M561.177 -38.5391L559.533 -37.1114L558.718 -36.3939L554.547 -32.7567M480.381 -44.1376L436.774 -44.1376M480.381 -44.1376L472.547 -38.5391M516.862 -38.5391L472.547 -38.5391M516.862 -38.5391L515.953 -37.8275L515.044 -37.1114L509.496 -32.7567M436.774 -44.1376L393.168 -44.1376M436.774 -44.1376L428.232 -38.5391M472.547 -38.5391L428.232 -38.5391M472.547 -38.5391L470.542 -37.1114L469.539 -36.3939L464.446 -32.7567M393.168 -44.1376L349.574 -44.1376M393.168 -44.1376L383.917 -38.5391M428.232 -38.5391L383.917 -38.5391M428.232 -38.5391L427.136 -37.8275L419.396 -32.7567M349.574 -44.1376L305.968 -44.1376M349.574 -44.1376L339.602 -38.5391M383.917 -38.5391L339.602 -38.5391M383.917 -38.5391L381.551 -37.1114L380.361 -36.3938L374.345 -32.7567M305.968 -44.1376L262.361 -44.1376M305.968 -44.1376L295.287 -38.5391M339.602 -38.5391L295.287 -38.5391M339.602 -38.5391L329.295 -32.7567M262.361 -44.1376L218.768 -44.1376M262.361 -44.1376L250.972 -38.5391M295.287 -38.5391L250.972 -38.5391M295.287 -38.5391L292.56 -37.1114L284.245 -32.7567M218.768 -44.1376L175.161 -44.1376M218.768 -44.1376L206.656 -38.539M250.972 -38.5391L206.656 -38.539M250.972 -38.5391L248.071 -37.1114L246.6 -36.3938L239.194 -32.7567M175.161 -44.1376L131.555 -44.1376M175.161 -44.1376L162.341 -38.539M206.656 -38.539L162.341 -38.539M206.656 -38.539L194.157 -32.7567M131.555 -44.1376L87.9616 -44.1376M131.555 -44.1376L118.026 -38.539M162.341 -38.539L118.026 -38.539M162.341 -38.539L149.094 -32.7566M87.9616 -44.1376L44.355 -44.1376M87.9616 -44.1376L73.7112 -38.539M118.026 -38.539L73.7112 -38.539M118.026 -38.539L104.057 -32.7566M44.355 -44.1376L38.9141 -44.136L33.5267 -44.1226L28.2598 -44.0897L23.1531 -44.0224L18.2605 -43.9133L13.6484 -43.7489L9.37073 -43.5217L5.38708 -43.2316L1.97816 -42.8295L-1.12316 -42.3645L-1.97873 -42.2016L-1.97873 -38.539M44.355 -44.1376L29.3961 -38.539M73.7112 -38.539L29.3961 -38.539M73.7112 -38.539L70.0885 -37.1114L59.0063 -32.7566M-1.97873 -38.539L29.3961 -38.539M-1.97873 -38.539L-1.97873 -32.7566M29.3961 -38.539L13.9561 -32.7566M104.057 -32.7566L89.6058 -26.7784M104.057 -32.7566L149.094 -32.7566M104.057 -32.7566L59.0063 -32.7566M149.094 -32.7566L135.405 -26.7784M149.094 -32.7566L194.157 -32.7567M284.245 -32.7567L272.842 -26.7785M284.245 -32.7567L329.295 -32.7567M284.245 -32.7567L239.194 -32.7567M329.295 -32.7567L318.654 -26.7785M329.295 -32.7567L374.345 -32.7567M464.446 -32.7567L456.078 -26.7785M464.446 -32.7567L509.496 -32.7567M464.446 -32.7567L419.396 -32.7567M509.496 -32.7567L504.777 -29.0433L501.89 -26.7785M509.496 -32.7567L554.547 -32.7567M644.65 -32.7567L639.326 -26.7785M644.65 -32.7567L689.701 -32.7567M644.65 -32.7567L599.601 -32.7567M689.701 -32.7567L686.866 -29.0433L685.137 -26.7785M689.701 -32.7567L734.749 -32.7567M824.85 -32.7567L824.286 -31.2812L823.433 -29.0433L822.857 -27.5379L822.568 -26.7785M824.85 -32.7567L869.901 -32.7567M824.85 -32.7567L779.8 -32.7567M869.901 -32.7567L914.95 -32.7567M1005.05 -32.7567L1050.1 -32.7567M1005.05 -32.7567L960 -32.7567M1050.1 -32.7567L1050.66 -30.5383L1051.43 -27.5379L1051.62 -26.7785M1050.1 -32.7567L1095.15 -32.7567M1185.25 -32.7567L1186.19 -31.2812L1189.05 -26.7785M1185.25 -32.7567L1230.3 -32.7567M1185.25 -32.7567L1140.2 -32.7567M1230.3 -32.7567L1233.13 -29.0434L1234.86 -26.7785M1230.3 -32.7567L1275.35 -32.7567M1365.45 -32.7568L1371.43 -27.538L1372.29 -26.7786M1365.45 -32.7568L1410.5 -32.7568M1365.45 -32.7568L1320.4 -32.7568M1410.5 -32.7568L1415.22 -29.0434L1418.11 -26.7786M1410.5 -32.7568L1455.55 -32.7568M1545.65 -32.7568L1555.54 -26.7786M1545.65 -32.7568L1590.7 -32.7568M1545.65 -32.7568L1500.6 -32.7568M1590.7 -32.7568L1601.35 -26.7786M1590.7 -32.7568L1635.75 -32.7568M1725.85 -32.7568L1738.78 -26.7786M1725.85 -32.7568L1680.8 -32.7568M1725.85 -32.7568L1770.9 -32.7568M1770.9 -32.7568L1784.59 -26.7786M1770.9 -32.7568L1815.95 -32.7568M-2.13914 13.8088L-1.97873 13.8088M-1.97873 13.8088L42.4701 13.8088M-1.97873 13.8088L-1.97873 21.4793M-1.97873 13.8088L-1.97873 11.1075M42.4701 13.8088L59.3807 6.42092M42.4701 13.8088L24.9044 21.4793M42.4701 13.8088L93.4425 13.8088M59.3807 6.42092L9.34398 6.42092M59.3807 6.42092L75.6896 -0.699421M59.3807 6.42092L109.417 6.42091M24.9044 21.4793L6.64361 29.4503M24.9044 21.4793L76.8527 21.4793M24.9044 21.4793L-1.97873 21.4793M93.4425 13.8088L109.417 6.42091M93.4425 13.8088L76.8527 21.4793M93.4425 13.8088L144.415 13.8088M9.34398 6.42092L26.562 -0.699417M9.34398 6.42092L-1.97873 6.42092M9.34398 6.42092L-1.97873 11.1075M75.6896 -0.699421L91.4239 -7.56716M75.6896 -0.699421L124.817 -0.699426M75.6896 -0.699421L26.562 -0.699417M109.417 6.42091L124.817 -0.699426M109.417 6.42091L159.454 6.42091M26.562 -0.699417L43.1652 -7.56715M26.562 -0.699417L-1.97873 -0.699415M-1.97873 6.42092L-1.97873 11.1075M-1.97873 6.42092L-1.97873 -0.699415M59.1801 -14.1956L106.597 -14.1956M59.1801 -14.1956L74.6469 -20.5954M59.1801 -14.1956L11.7771 -14.1956M59.1801 -14.1956L43.1652 -7.56715M106.597 -14.1956L121.248 -20.5954M106.597 -14.1956L91.4239 -7.56716M106.597 -14.1956L154 -14.1956M74.6469 -20.5954L121.248 -20.5954M74.6469 -20.5954L89.6058 -26.7784M74.6469 -20.5954L28.0593 -20.5954M11.7771 -14.1956L28.0593 -20.5954M11.7771 -14.1956L-1.97873 -14.1956M11.7771 -14.1956L-1.97873 -8.78999M43.1652 -7.56715L91.4239 -7.56716M43.1652 -7.56715L-1.97873 -7.56715M121.248 -20.5954L167.849 -20.5954M121.248 -20.5954L135.405 -26.7784M91.4239 -7.56716L139.669 -7.56716M154 -14.1956L167.849 -20.5954M154 -14.1956L139.669 -7.56716M154 -14.1956L201.416 -14.1956M89.6058 -26.7784L135.405 -26.7784M89.6058 -26.7784L43.7935 -26.7784M28.0593 -20.5954L43.7935 -26.7784M28.0593 -20.5954L-1.97873 -20.5954M167.849 -20.5954L214.45 -20.5954M167.849 -20.5954L181.217 -26.7784M135.405 -26.7784L181.217 -26.7784M-2.47333 130.421L-1.97872 130.421M-1.97872 130.421L38.6602 130.421M-1.97872 130.421L-1.97872 118.173M-1.97872 130.421L-1.97872 143.279M38.6602 130.421L60.4768 118.173M38.6602 130.421L15.7607 143.279M38.6602 130.421L104.471 130.421M60.4768 118.173L81.291 106.49M60.4768 118.173L124.724 118.173M60.4768 118.173L-1.97872 118.173M15.7607 143.279L83.2025 143.279M15.7607 143.279L-1.97872 143.279M15.7607 143.279L-1.97871 153.239M104.471 130.421L124.724 118.173M104.471 130.421L83.2025 143.279M104.471 130.421L170.282 130.421M81.291 106.49L18.5145 106.49M81.291 106.49L101.156 95.3362M81.291 106.49L144.054 106.49M124.724 118.173L144.054 106.49M124.724 118.173L188.984 118.173M-1.97872 118.173L-1.97872 117.234M18.5145 106.49L39.8098 95.3362M18.5145 106.49L-1.97872 106.49M18.5145 106.49L-1.97872 117.234M39.8098 95.3362L60.156 84.6743M39.8098 95.3362L101.156 95.3362M39.8098 95.3362L-1.97872 95.3362M-1.97872 106.49L-1.97872 117.234M-1.97872 106.49L-1.97872 95.3362M60.156 84.6743L120.138 84.6743M60.156 84.6743L79.6199 74.476M60.156 84.6743L0.160136 84.6744M120.138 84.6743L138.306 74.476M120.138 84.6743L101.156 95.3362M120.138 84.6743L180.134 84.6743M79.6199 74.476L138.306 74.476M79.6199 74.476L20.9208 74.476M79.6199 74.476L98.2549 64.7081M0.160136 84.6744L20.9208 74.476M0.160136 84.6744L-1.97872 84.6744M0.160136 84.6744L-1.97872 85.7268M138.306 74.476L155.697 64.7081M138.306 74.476L197.005 74.476M101.156 95.3362L162.502 95.3362M180.134 84.6743L197.005 74.476M180.134 84.6743L162.502 95.3362M180.134 84.6743L240.117 84.6743M20.9208 74.476L40.7991 64.7081M20.9208 74.476L-1.97872 74.476M98.2549 64.7081L155.697 64.7081M98.2549 64.7081L40.7991 64.7081M98.2549 64.7081L116.115 55.3454M155.697 64.7081L172.381 55.3454M155.697 64.7081L213.153 64.7081M197.005 74.476L213.153 64.7081M197.005 74.476L255.691 74.476M133.266 46.3624L188.382 46.3624M133.266 46.3624L149.722 37.7382M133.266 46.3624L78.1493 46.3624M133.266 46.3624L116.115 55.3454M188.382 46.3624L203.742 37.7381M188.382 46.3624L172.381 55.3454M188.382 46.3624L243.499 46.3624M149.722 37.7382L203.742 37.7381M149.722 37.7382L95.7016 37.7382M149.722 37.7382L165.536 29.4503M78.1493 46.3624L23.0329 46.3624M78.1493 46.3624L95.7016 37.7382M78.1493 46.3624L59.8619 55.3454M116.115 55.3454L172.381 55.3454M116.115 55.3454L59.8619 55.3454M203.742 37.7381L218.501 29.4503M203.742 37.7381L257.763 37.7381M172.381 55.3454L228.634 55.3454M243.499 46.3624L257.763 37.7381M243.499 46.3624L228.634 55.3454M243.499 46.3624L298.615 46.3623M95.7016 37.7382L41.6814 37.7382M95.7016 37.7382L112.572 29.4503M165.536 29.4503L218.501 29.4503M165.536 29.4503L112.572 29.4503M165.536 29.4503L180.749 21.4793M218.501 29.4503L232.697 21.4793M218.501 29.4503L271.465 29.4503M257.763 37.7381L271.465 29.4503M257.763 37.7381L311.783 37.7381M195.387 13.8088L246.36 13.8088M195.387 13.8088L209.49 6.42091M195.387 13.8088L144.415 13.8088M195.387 13.8088L180.749 21.4793M246.36 13.8088L259.527 6.4209M246.36 13.8088L232.697 21.4793M246.36 13.8088L297.332 13.8088M209.49 6.42091L259.527 6.4209M209.49 6.42091L159.454 6.42091M209.49 6.42091L223.072 -0.699434M144.415 13.8088L159.454 6.42091M144.415 13.8088L128.801 21.4793M180.749 21.4793L232.697 21.4793M180.749 21.4793L128.801 21.4793M259.527 6.4209L272.2 -0.699439M259.527 6.4209L309.55 6.4209M232.697 21.4793L284.646 21.4793M297.332 13.8088L309.55 6.4209M297.332 13.8088L284.646 21.4793M297.332 13.8088L348.304 13.8088M159.454 6.42091L173.945 -0.69943M223.072 -0.699434L272.2 -0.699439M223.072 -0.699434L173.945 -0.69943M223.072 -0.699434L236.187 -7.56717M272.2 -0.699439L284.432 -7.56717M272.2 -0.699439L321.328 -0.699443M309.55 6.4209L321.328 -0.699443M309.55 6.4209L359.587 6.42089M248.833 -14.1956L296.236 -14.1956M248.833 -14.1956L261.038 -20.5954M248.833 -14.1956L201.416 -14.1956M248.833 -14.1956L236.187 -7.56717M296.236 -14.1956L307.639 -20.5954M296.236 -14.1956L284.432 -7.56717M296.236 -14.1956L343.652 -14.1956M261.038 -20.5954L307.639 -20.5954M261.038 -20.5954L272.842 -26.7785M261.038 -20.5954L214.45 -20.5954M201.416 -14.1956L214.45 -20.5954M201.416 -14.1956L187.928 -7.56716M236.187 -7.56717L284.432 -7.56717M236.187 -7.56717L187.928 -7.56716M307.639 -20.5954L354.24 -20.5954M307.639 -20.5954L318.654 -26.7785M284.432 -7.56717L332.691 -7.56718M343.652 -14.1956L354.24 -20.5954M343.652 -14.1956L332.691 -7.56718M343.652 -14.1956L391.069 -14.1956M272.842 -26.7785L318.654 -26.7785M272.842 -26.7785L227.029 -26.7785M214.45 -20.5954L227.029 -26.7785M354.24 -20.5954L400.827 -20.5954M354.24 -20.5954L364.466 -26.7785M318.654 -26.7785L364.466 -26.7785M31.7355 342.778L62.4419 318.642M31.7355 342.778L-1.14988 368.624M31.7355 342.778L124.563 342.778M31.7355 342.778L-1.9787 342.778M62.4419 318.642L91.1832 296.054M62.4419 318.642L152.195 318.642M62.4419 318.642L-1.9787 318.642M-1.14988 368.624L94.9665 368.624L124.563 342.78M-1.14988 368.624L-1.9787 368.624M-1.14988 368.624L-1.9787 369.28M124.563 342.778L152.195 318.642M124.563 342.778L217.391 342.778M152.195 318.642L178.062 296.054L264.941 296.054L351.82 296.054M152.195 318.642L241.948 318.642M-1.9787 318.642L-1.9787 342.78L-1.9787 368.622L-1.9787 369.28M-1.9787 318.642L-1.9787 300.54M61.8136 254.951L143.466 254.951M61.8136 254.951L88.0551 236.202M61.8136 254.951L33.9546 274.865M61.8136 254.951L-1.97871 254.951M143.466 254.951L167.328 236.202M143.466 254.951L118.133 274.865M143.466 254.951L225.118 254.951M88.0551 236.202L167.328 236.202M88.0551 236.202L8.78248 236.202M88.0551 236.202L112.799 218.517M33.9546 274.865L118.133 274.865M33.9546 274.865L4.30422 296.054M33.9546 274.865L-1.9787 274.865M-1.97871 254.951L-1.9787 274.865M-1.97871 254.951L-1.97871 243.256L-1.97871 236.202M167.328 236.202L189.826 218.517M167.328 236.202L246.587 236.202M118.133 274.865L91.1832 296.053M118.133 274.865L202.325 274.865M225.118 254.951L246.587 236.202M225.118 254.951L202.325 274.865M225.118 254.951L306.77 254.951M8.78248 236.202L35.786 218.517M8.78248 236.202L-1.97871 236.202M8.78248 236.202L-1.97871 243.258M112.799 218.517L189.826 218.517M112.799 218.517L35.786 218.517M112.799 218.517L136.193 201.808M189.826 218.517L211.081 201.808M189.826 218.517L266.839 218.517M246.587 236.202L266.839 218.517M246.587 236.202L325.859 236.202M158.318 185.996L231.2 185.996M158.318 185.996L179.292 171.012M158.318 185.996L85.435 185.996M158.318 185.996L136.193 201.808M231.2 185.996L250.263 171.012M231.2 185.996L211.081 201.808M231.2 185.996L304.083 185.996M179.292 171.012L250.263 171.012M179.292 171.012L108.308 171.012M179.292 171.012L199.184 156.793M85.435 185.996L12.5524 185.996M85.435 185.996L108.308 171.012M85.435 185.996L61.2922 201.808M136.193 201.808L211.081 201.808M136.193 201.808L61.2922 201.808M250.263 171.012L268.35 156.793M250.263 171.012L321.234 171.012M211.081 201.808L285.969 201.808M304.083 185.996L321.234 171.012M304.083 185.996L285.969 201.808M304.083 185.996L376.952 185.996M108.308 171.012L37.3368 171.012M108.308 171.012L130.017 156.793M199.184 156.793L268.35 156.793M199.184 156.793L130.017 156.793M199.184 156.793L218.1 143.279M268.35 156.793L285.541 143.279M268.35 156.793L337.516 156.793M321.234 171.012L337.516 156.793M321.234 171.012L392.205 171.012M236.093 130.421L301.904 130.421M236.093 130.421L253.231 118.173M236.093 130.421L170.282 130.421M236.093 130.421L218.1 143.279M301.904 130.421L317.478 118.173M301.904 130.421L285.541 143.279M301.904 130.421L367.715 130.421M253.231 118.173L317.478 118.173M253.231 118.173L188.984 118.173M253.231 118.173L269.58 106.49M170.282 130.421L188.984 118.173M170.282 130.421L150.658 143.279M218.1 143.279L285.541 143.279M218.1 143.279L150.658 143.279M317.478 118.173L332.343 106.49M317.478 118.173L381.738 118.173M285.541 143.279L352.983 143.279M367.715 130.421L381.738 118.173M367.715 130.421L352.983 143.279M367.715 130.421L433.526 130.421M188.984 118.173L206.817 106.49M269.58 106.49L332.343 106.49M269.58 106.49L206.817 106.49M269.58 106.49L285.194 95.3362M332.343 106.49L346.54 95.3362M332.343 106.49L395.106 106.49M381.738 118.173L395.106 106.49M381.738 118.173L445.985 118.173M300.113 84.6743L360.095 84.6743M300.113 84.6743L314.39 74.4759M300.113 84.6743L240.117 84.6743M300.113 84.6743L285.194 95.3362M360.095 84.6743L373.075 74.4759M360.095 84.6743L346.54 95.3362M360.095 84.6743L420.091 84.6743M314.39 74.4759L373.075 74.4759M314.39 74.4759L255.691 74.476M314.39 74.4759L328.052 64.7081M240.117 84.6743L255.691 74.476M240.117 84.6743L223.848 95.3362M285.194 95.3362L346.54 95.3362M285.194 95.3362L223.848 95.3362M373.075 74.4759L385.508 64.7081M373.075 74.4759L431.775 74.4759M346.54 95.3362L407.886 95.3362M420.091 84.6743L431.775 74.4759M420.091 84.6743L407.886 95.3362M420.091 84.6743L480.087 84.6743M255.691 74.476L270.609 64.7081M328.052 64.7081L385.508 64.7081M328.052 64.7081L270.609 64.7081M328.052 64.7081L341.152 55.3454M385.508 64.7081L397.419 55.3454M385.508 64.7081L442.95 64.7081M431.775 74.4759L442.95 64.7081M431.775 74.4759L490.46 74.4759M353.732 46.3623L408.835 46.3623M353.732 46.3623L365.79 37.7381M353.732 46.3623L298.615 46.3623M353.732 46.3623L341.152 55.3454M408.835 46.3623L410.239 45.2666L419.81 37.7381M408.835 46.3623L397.419 55.3454M408.835 46.3623L463.952 46.3623M365.79 37.7381L419.81 37.7381M365.79 37.7381L311.783 37.7381M365.79 37.7381L377.393 29.4502M298.615 46.3623L311.783 37.7381M298.615 46.3623L284.9 55.3454M341.152 55.3454L397.419 55.3454M341.152 55.3454L284.9 55.3454M419.81 37.7381L430.358 29.4502M419.81 37.7381L473.83 37.7381M397.419 55.3454L453.671 55.3454M463.952 46.3623L473.83 37.7381M463.952 46.3623L453.671 55.3454M463.952 46.3623L519.068 46.3623M311.783 37.7381L324.429 29.4502M377.393 29.4502L430.358 29.4502M377.393 29.4502L324.429 29.4502M377.393 29.4502L388.542 21.4793M430.358 29.4502L439.247 22.4599L440.504 21.4793M430.358 29.4502L483.322 29.4502M473.83 37.7381L483.322 29.4502M473.83 37.7381L527.851 37.7381M399.29 13.8088L450.263 13.8088M399.29 13.8088L409.624 6.42089M399.29 13.8088L348.304 13.8088M399.29 13.8088L388.542 21.4793M450.263 13.8088L459.66 6.42088M450.263 13.8088L446.64 16.6522L440.504 21.4793M450.263 13.8088L501.235 13.8088M409.624 6.42089L459.66 6.42088M409.624 6.42089L359.587 6.42089M409.624 6.42089L419.583 -0.699452M348.304 13.8088L358.197 7.32831L359.587 6.42089M348.304 13.8088L336.594 21.4793M388.542 21.4793L440.504 21.4793M388.542 21.4793L336.594 21.4793M459.66 6.42088L468.71 -0.699456M459.66 6.42088L509.697 6.42088M440.504 21.4793L492.452 21.4793M501.235 13.8088L509.697 6.42088M501.235 13.8088L499.069 15.6984L492.452 21.4793M501.235 13.8088L552.207 13.8088M359.587 6.42089L370.455 -0.699447M419.583 -0.699452L468.71 -0.699456M419.583 -0.699452L370.455 -0.699447M419.583 -0.699452L429.195 -7.56719M468.71 -0.699456L477.453 -7.56719M468.71 -0.699456L517.851 -0.69946M509.697 6.42088L517.851 -0.69946M509.697 6.42088L559.72 6.42088M438.472 -14.1956L485.888 -14.1956M438.472 -14.1956L447.428 -20.5954M438.472 -14.1956L391.069 -14.1956M438.472 -14.1956L429.195 -7.56719M485.888 -14.1956L492.024 -19.0153L493.027 -19.8076L494.03 -20.5954M485.888 -14.1956L477.453 -7.56719M485.888 -14.1956L533.292 -14.1956M447.428 -20.5954L494.03 -20.5954M447.428 -20.5954L456.078 -26.7785M447.428 -20.5954L400.827 -20.5954M391.069 -14.1956L400.827 -20.5954M391.069 -14.1956L380.949 -7.56718M429.195 -7.56719L477.453 -7.56719M429.195 -7.56719L380.949 -7.56718M494.03 -20.5954L540.631 -20.5954M494.03 -20.5954L501.89 -26.7785M477.453 -7.56719L525.712 -7.56719M533.292 -14.1956L540.631 -20.5954M533.292 -14.1956L525.712 -7.56719M533.292 -14.1956L580.708 -14.1956M456.078 -26.7785L501.89 -26.7785M456.078 -26.7785L410.279 -26.7785M400.827 -20.5954L410.279 -26.7785M540.631 -20.5954L587.222 -20.5954M540.631 -20.5954L547.702 -26.7785M501.89 -26.7785L547.702 -26.7785M65.3696 617.713L193.168 617.713M65.3696 617.713L105.607 572.526M65.3696 617.713L21.148 667.37M65.3696 617.713L-1.97867 617.715M193.168 617.713L227.671 572.526M193.168 617.713L155.27 667.37M193.168 617.713L320.98 617.713M105.607 572.526L227.671 572.526M105.607 572.526L142.383 531.227M105.607 572.526L-1.97868 572.526M21.148 667.37L155.27 667.37M21.148 667.37L-1.97867 693.34M21.148 667.37L-1.97867 667.37M-1.97867 617.715L-1.97867 667.37M-1.97867 617.715L-1.97868 572.526M227.671 572.526L259.193 531.227M227.671 572.526L349.721 572.526M155.27 667.37L113.428 722.191M155.27 667.37L289.391 667.37M320.98 617.713L349.721 572.526M320.98 617.713L289.391 667.37M320.98 617.713L448.779 617.713M142.383 531.227L259.193 531.227M142.383 531.227L25.5862 531.227M142.383 531.227L176.137 493.338M-1.97868 572.526L-1.97868 558.315M259.193 531.227L288.108 493.338M259.193 531.227L375.99 531.227M349.721 572.526L375.99 531.227M349.721 572.526L471.772 572.526M207.205 458.453L314.737 458.453M207.205 458.453L235.892 426.226M207.205 458.453L99.6587 458.453M207.205 458.453L176.137 493.338M314.737 458.453L339.348 426.226M314.737 458.453L288.108 493.338M314.737 458.453L422.283 458.452M235.892 426.226L339.348 426.226M235.892 426.226L132.45 426.226M235.892 426.226L262.495 396.368M99.6587 458.453L132.45 426.226M99.6587 458.453L64.153 493.338M99.6587 458.453L-1.97869 458.453M176.137 493.338L288.108 493.338M339.348 426.226L362.14 396.368M339.348 426.226L442.79 426.226M288.108 493.338L400.092 493.338M422.283 458.452L442.79 426.226M422.283 458.452L529.829 458.452M132.45 426.226L29.0084 426.226M132.45 426.226L162.849 396.368M262.495 396.368L362.14 396.368M262.495 396.368L162.849 396.368M262.495 396.368L287.199 368.622L383.315 368.622L479.432 368.622M362.14 396.368L383.315 368.624L403.047 342.778M362.14 396.368L461.773 396.368M442.79 426.226L461.773 396.368M442.79 426.226L546.232 426.226M403.047 342.78L310.219 342.78L331.715 318.642M331.715 318.642L421.468 318.642M331.715 318.642L241.948 318.642M331.715 318.642L351.82 296.054M217.391 342.778L310.219 342.778L287.199 368.624L191.083 368.624L217.391 342.778ZM217.391 342.778L241.948 318.642M403.047 342.778L421.468 318.642M403.047 342.778L495.861 342.778M421.468 318.642L438.713 296.054M421.468 318.642L511.221 318.642M495.861 342.778L511.221 318.642M495.861 342.778L588.694 342.778M241.948 318.642L264.941 296.053L286.504 274.865M351.82 296.054L370.696 274.865M511.221 318.642L525.592 296.054L612.472 296.054L699.354 296.054M511.221 318.642L600.977 318.642M388.422 254.951L470.087 254.951M388.422 254.951L405.132 236.202M388.422 254.951L306.77 254.951M388.422 254.951L370.696 274.865M470.087 254.951L484.391 236.202M470.087 254.951L454.888 274.865M470.087 254.951L551.739 254.951M405.132 236.202L484.391 236.202M405.132 236.202L325.859 236.202M405.132 236.202L420.88 218.517M306.77 254.951L325.859 236.202M306.77 254.951L286.504 274.865M370.696 274.865L454.888 274.865M370.696 274.865L286.504 274.865M484.391 236.202L497.893 218.517M484.391 236.202L563.664 236.202M454.888 274.865L438.713 296.053M454.888 274.865L539.067 274.865M551.739 254.951L563.664 236.202M551.739 254.951L539.067 274.865M551.739 254.951L633.388 254.951M325.859 236.202L343.853 218.517M420.88 218.517L497.893 218.517M420.88 218.517L343.853 218.517M420.88 218.517L435.758 201.808M497.893 218.517L510.646 201.808M497.893 218.517L574.906 218.517M563.664 236.202L574.906 218.517M563.664 236.202L642.93 236.202M449.835 185.996L522.717 185.996M449.835 185.996L463.176 171.012M449.835 185.996L376.952 185.996M449.835 185.996L435.758 201.808M522.717 185.996L534.16 171.012M522.717 185.996L510.646 201.808M522.717 185.996L595.599 185.996M463.176 171.012L534.16 171.012M463.176 171.012L392.205 171.012M463.176 171.012L475.849 156.793M376.952 185.996L392.205 171.012M376.952 185.996L360.87 201.808M435.758 201.808L510.646 201.808M435.758 201.808L360.87 201.808M534.16 171.012L545.015 156.793M534.16 171.012L605.13 171.012M510.646 201.808L585.534 201.808M595.599 185.996L605.13 171.012M595.599 185.996L585.534 201.808M595.599 185.996L668.479 185.996M392.205 171.012L406.683 156.793M475.849 156.793L545.015 156.793M475.849 156.793L406.683 156.793M475.849 156.793L487.88 143.278M545.015 156.793L555.322 143.278M545.015 156.793L614.175 156.793M605.13 171.012L614.175 156.793M605.13 171.012L676.104 171.012M499.337 130.421L565.134 130.421M499.337 130.421L510.245 118.173M499.337 130.421L433.526 130.421M499.337 130.421L487.88 143.278M565.134 130.421L574.492 118.173M565.134 130.421L555.322 143.278M565.134 130.421L630.951 130.421M510.245 118.173L574.492 118.173M510.245 118.173L445.985 118.173M510.245 118.173L520.645 106.49M433.526 130.421L445.985 118.173M433.526 130.421L420.438 143.278M487.88 143.278L555.322 143.278M487.88 143.278L420.438 143.278M574.492 118.173L583.408 106.49M574.492 118.173L638.741 118.173M555.322 143.278L622.771 143.278M630.951 130.421L638.741 118.173M630.951 130.421L622.771 143.278M630.951 130.421L696.76 130.421M445.985 118.173L457.882 106.49M520.645 106.49L583.408 106.49M520.645 106.49L457.882 106.49M520.645 106.49L530.578 95.3362M583.408 106.49L591.923 95.3362M583.408 106.49L646.173 106.49M638.741 118.173L643.428 110.807L646.173 106.49M638.741 118.173L702.994 118.173M540.069 84.6743L600.061 84.6743M540.069 84.6743L549.16 74.4759M540.069 84.6743L480.087 84.6743M540.069 84.6743L530.578 95.3362M600.061 84.6743L607.845 74.4759M600.061 84.6743L591.923 95.3362M600.061 84.6743L660.05 84.6743M549.16 74.4759L607.845 74.4759M549.16 74.4759L490.46 74.4759M549.16 74.4759L557.849 64.7081M480.087 84.6743L490.46 74.4759M480.087 84.6743L469.232 95.3362M530.578 95.3362L591.923 95.3362M530.578 95.3362L469.232 95.3362M607.845 74.4759L615.302 64.7081M607.845 74.4759L666.539 74.4759M591.923 95.3362L653.269 95.3361M660.05 84.6743L666.539 74.4759M660.05 84.6743L658.383 87.2949L653.269 95.3361M660.05 84.6743L720.039 84.6743M490.46 74.4759L500.406 64.7081M557.849 64.7081L615.302 64.7081M557.849 64.7081L500.406 64.7081M557.849 64.7081L566.19 55.3453M615.302 64.7081L618.913 59.9766L622.449 55.3453M615.302 64.7081L672.751 64.7081M666.539 74.4759L672.751 64.7081M666.539 74.4759L725.23 74.4759M574.184 46.3623L629.306 46.3623M574.184 46.3623L581.871 37.7381M574.184 46.3623L519.068 46.3623M574.184 46.3623L566.19 55.3453M629.306 46.3623L628.463 47.4656L622.449 55.3453M629.306 46.3623L635.889 37.7381M629.306 46.3623L684.421 46.3623M581.871 37.7381L635.889 37.7381M581.871 37.7381L527.851 37.7381M581.871 37.7381L589.252 29.4502M519.068 46.3623L527.851 37.7381M519.068 46.3623L509.938 55.3453M566.19 55.3453L622.449 55.3453M566.19 55.3453L509.938 55.3453M622.449 55.3453L678.708 55.3453M635.889 37.7381L642.216 29.4502M635.889 37.7381L689.908 37.7381M684.421 46.3623L689.908 37.7381M684.421 46.3623L678.708 55.3453M684.421 46.3623L739.537 46.3623M527.851 37.7381L536.286 29.4502M589.252 29.4502L642.216 29.4502M589.252 29.4502L536.286 29.4502M589.252 29.4502L596.35 21.4793M642.216 29.4502L648.3 21.4793M642.216 29.4502L695.179 29.4502M689.908 37.7381L695.179 29.4502M689.908 37.7381L743.925 37.7381M603.181 13.8088L654.155 13.8088M603.181 13.8088L609.761 6.42087M603.181 13.8088L552.207 13.8088M603.181 13.8088L596.35 21.4793M654.155 13.8088L659.795 6.42087M654.155 13.8088L651.985 16.6521L650.521 18.5687L648.3 21.4793M654.155 13.8088L705.129 13.8088M609.761 6.42087L659.795 6.42087M609.761 6.42087L559.72 6.42088M609.761 6.42087L616.101 -0.699469M552.207 13.8088L559.72 6.42088M552.207 13.8088L544.4 21.4793M596.35 21.4793L648.3 21.4793M596.35 21.4793L544.4 21.4793M659.795 6.42087L661.856 3.71952L663.216 1.93905L665.23 -0.699473M659.795 6.42087L709.829 6.42086M648.3 21.4793L700.249 21.4793M705.129 13.8088L706.321 11.9356L709.829 6.42086M705.129 13.8088L704.53 14.7521L703.927 15.6984L702.102 18.5687L701.486 19.5344L700.249 21.4793M705.129 13.8088L756.102 13.8088M559.72 6.42088L566.979 -0.699464M616.101 -0.699469L665.23 -0.699473M616.101 -0.699469L566.979 -0.699464M616.101 -0.699469L620.709 -5.87492L622.219 -7.5672M665.23 -0.699473L667.874 -4.16475L670.472 -7.56721M665.23 -0.699473L714.359 -0.699477M709.829 6.42086L710.405 5.51642L710.977 4.61498L713.242 1.05554L714.359 -0.699477M709.829 6.42086L759.864 6.42086M628.121 -14.1957L675.53 -14.1957M628.121 -14.1957L632.413 -19.0153L633.819 -20.5954M628.121 -14.1957L580.708 -14.1956M628.121 -14.1957L622.967 -8.40883L622.219 -7.5672M675.53 -14.1957L679.212 -19.0153L679.815 -19.8077L680.416 -20.5954M675.53 -14.1957L673.024 -10.9114L670.472 -7.56721M675.53 -14.1957L722.943 -14.1957M633.819 -20.5954L680.416 -20.5954M633.819 -20.5954L639.326 -26.7785M633.819 -20.5954L587.222 -20.5954M580.708 -14.1956L587.222 -20.5954M580.708 -14.1956L573.957 -7.5672M622.219 -7.5672L670.472 -7.56721M622.219 -7.5672L573.957 -7.5672M680.416 -20.5954L727.013 -20.5955M680.416 -20.5954L685.137 -26.7785M670.472 -7.56721L718.727 -7.56721M722.943 -14.1957L727.013 -20.5955M722.943 -14.1957L718.727 -7.56721M722.943 -14.1957L770.354 -14.1957M639.326 -26.7785L685.137 -26.7785M639.326 -26.7785L593.516 -26.7785M587.222 -20.5954L591.963 -25.2522L593.516 -26.7785M727.013 -20.5955L773.61 -20.5955M727.013 -20.5955L729.976 -25.2522L730.948 -26.7785M685.137 -26.7785L730.948 -26.7785M576.591 617.713L704.391 617.713M576.591 617.713L593.833 572.526M576.591 617.713L448.779 617.713M576.591 617.713L557.635 667.37M704.391 617.713L715.889 572.526M704.391 617.713L691.757 667.37M704.391 617.713L832.196 617.713L837.944 572.526M593.833 572.526L715.889 572.526M593.833 572.526L471.772 572.526M593.833 572.526L609.595 531.227M448.779 617.713L471.772 572.526M448.779 617.713L423.513 667.369M557.635 667.37L691.757 667.37M557.635 667.37L536.714 722.189M557.635 667.37L423.513 667.369M715.889 572.526L726.397 531.227M715.889 572.526L837.944 572.526M691.757 667.37L677.807 722.189M691.757 667.37L825.878 667.369M471.772 572.526L492.8 531.227M609.595 531.227L726.397 531.227M609.595 531.227L492.8 531.227M609.595 531.227L624.055 493.338M726.397 531.227L736.038 493.338M726.397 531.227L843.198 531.227M837.944 572.526L843.198 531.227M837.944 572.526L960 572.526M637.371 458.452L744.913 458.452M637.371 458.452L649.671 426.226M637.371 458.452L529.829 458.452M637.371 458.452L624.055 493.338M744.913 458.452L753.113 426.226M744.913 458.452L736.038 493.338M744.913 458.452L852.458 458.452M649.671 426.226L753.113 426.226M649.671 426.226L546.232 426.226M649.671 426.226L661.067 396.368M529.829 458.452L546.232 426.226M529.829 458.452L512.077 493.338M624.055 493.338L736.038 493.338M753.113 426.226L760.712 396.368M753.113 426.226L856.557 426.226M736.038 493.338L848.018 493.338M852.458 458.452L856.557 426.226M852.458 458.452L960 458.452M546.232 426.226L561.418 396.368M661.067 396.368L760.712 396.368M661.067 396.368L561.418 396.368M661.067 396.368L671.656 368.622L767.771 368.622L863.885 368.622M760.712 396.368L767.771 368.624L774.347 342.778M760.712 396.368L860.356 396.368M856.557 426.226L860.356 396.368M856.557 426.226L960 426.226M774.347 342.779L681.521 342.78L690.733 318.642M690.733 318.642L780.488 318.642M690.733 318.642L600.977 318.642M690.733 318.642L699.354 296.054M588.694 342.778L681.521 342.778L671.656 368.624L575.535 368.624L588.694 342.778ZM588.694 342.778L600.977 318.642M774.347 342.778L780.488 318.642M774.347 342.778L867.173 342.778M780.488 318.642L786.237 296.054M780.488 318.642L870.244 318.642M867.173 342.778L870.244 318.642M867.173 342.778L960 342.778L1052.83 342.778L1056.11 368.624L960 368.624L960 342.779L960 318.642M600.977 318.642L612.472 296.053L623.255 274.865M699.354 296.054L707.441 274.865M870.244 318.642L873.118 296.054L960 296.054L1046.88 296.054M870.244 318.642L960 318.642M715.041 254.951L796.693 254.951M715.041 254.951L722.197 236.202M715.041 254.951L633.388 254.951M715.041 254.951L707.441 274.865M796.693 254.951L801.464 236.202M796.693 254.951L791.627 274.865M796.693 254.951L878.347 254.951M722.197 236.202L801.464 236.202M722.197 236.202L642.93 236.202M722.197 236.202L728.946 218.517M633.388 254.951L642.93 236.202M633.388 254.951L623.255 274.865M707.441 274.865L791.627 274.865M707.441 274.865L623.255 274.865M801.464 236.202L805.965 218.517M801.464 236.202L880.733 236.202M791.627 274.865L786.237 296.053M791.627 274.865L875.813 274.865M878.347 254.951L880.733 236.202M878.347 254.951L875.813 274.865M878.347 254.951L960 254.951M642.93 236.202L651.929 218.517M728.946 218.517L805.965 218.517M728.946 218.517L651.929 218.517M728.946 218.517L735.324 201.808M805.965 218.517L810.216 201.808M805.965 218.517L882.983 218.517M880.733 236.202L882.983 218.517M880.733 236.202L960 236.203M741.359 185.996L814.24 185.996M741.359 185.996L747.078 171.012M741.359 185.996L668.479 185.996M741.359 185.996L735.324 201.808M814.24 185.996L818.051 171.012M814.24 185.996L810.216 201.808M814.24 185.996L887.12 185.996M747.078 171.012L818.051 171.012M747.078 171.012L676.104 171.012M747.078 171.012L752.505 156.793M668.479 185.996L676.104 171.012M668.479 185.996L660.431 201.808M735.324 201.808L810.216 201.808M735.324 201.808L660.431 201.808M818.051 171.012L821.67 156.793M818.051 171.012L889.026 171.012M810.216 201.808L885.108 201.808M887.12 185.996L889.026 171.012M887.12 185.996L885.108 201.808M887.12 185.996L960 185.996M676.104 171.012L683.34 156.793M752.505 156.793L821.67 156.793M752.505 156.793L683.34 156.793M752.505 156.793L757.664 143.278M821.67 156.793L825.108 143.278M821.67 156.793L890.835 156.793M889.026 171.012L890.835 156.793M889.026 171.012L960 171.014M762.57 130.421L828.379 130.421M762.57 130.421L767.245 118.173M762.57 130.421L696.76 130.421M762.57 130.421L757.664 143.278M828.379 130.421L831.497 118.173M828.379 130.421L825.108 143.278M828.379 130.421L894.19 130.421M767.245 118.173L831.497 118.173M767.245 118.173L702.994 118.173M767.245 118.173L768.942 113.727L771.704 106.49M696.76 130.421L702.994 118.173M696.76 130.421L690.217 143.278M757.664 143.278L825.108 143.278M757.664 143.278L690.217 143.278M831.497 118.173L834.47 106.49M831.497 118.173L895.749 118.173M825.108 143.278L892.554 143.278M894.19 130.421L895.749 118.173M894.19 130.421L892.554 143.278M894.19 130.421L960 130.421M702.994 118.173L708.938 106.49M771.704 106.49L834.47 106.49M771.704 106.49L708.938 106.49M771.704 106.49L775.961 95.3361M834.47 106.49L837.307 95.3361M834.47 106.49L897.234 106.49M895.749 118.173L897.234 106.49M895.749 118.173L960 118.174M780.03 84.6743L840.02 84.6743M780.03 84.6743L783.923 74.4759M780.03 84.6743L720.039 84.6743M780.03 84.6743L776.997 92.6259L775.961 95.3361M840.02 84.6743L841.007 80.798L842.615 74.4759M840.02 84.6743L837.307 95.3361M840.02 84.6743L900.011 84.6743M783.923 74.4759L784.397 73.2321L787.651 64.7081M783.923 74.4759L842.615 74.4759M783.923 74.4759L725.23 74.4759M720.039 84.6743L725.23 74.4759M720.039 84.6743L719.375 85.9824L717.358 89.9454L714.615 95.3361M775.961 95.3361L837.307 95.3361M775.961 95.3361L714.615 95.3361M842.615 74.4759L843.56 70.764L843.87 69.5397L844.182 68.3228L845.1 64.7081M842.615 74.4759L901.307 74.4759M837.307 95.3361L898.654 95.3361M900.011 84.6743L901.307 74.4759M900.011 84.6743L898.654 95.3361M900.011 84.6743L960 84.6743M787.651 64.7081L845.1 64.7081M787.651 64.7081L730.202 64.7081M787.651 64.7081L791.224 55.3453M725.23 74.4759L730.202 64.7081M845.1 64.7081L846.006 61.1516L846.303 59.9766L847.484 55.3453M845.1 64.7081L902.551 64.708M901.307 74.4759L901.465 73.2321L902.551 64.708M901.307 74.4759L960 74.4759M794.652 46.3623L849.768 46.3623M794.652 46.3623L796.315 42.0076L796.725 40.9327L797.133 39.8624L797.541 38.798L797.944 37.7381M794.652 46.3623L739.537 46.3623M794.652 46.3623L791.224 55.3453M849.768 46.3623L851.422 39.8624L851.693 38.798L851.962 37.7381M849.768 46.3623L847.484 55.3453M849.768 46.3623L904.885 46.3623M797.944 37.7381L851.962 37.7381M797.944 37.7381L743.925 37.7381M797.944 37.7381L799.936 32.5208L800.328 31.4908L801.107 29.4502M739.537 46.3623L742.845 39.8624L743.925 37.7381M739.537 46.3623L737.844 49.6885L736.125 53.0641L734.965 55.3453M791.224 55.3453L847.484 55.3453M791.224 55.3453L734.965 55.3453M851.962 37.7381L853.291 32.5208L853.553 31.4908L853.812 30.4682L854.071 29.4502M851.962 37.7381L905.982 37.7381M847.484 55.3453L903.74 55.3453M904.885 46.3623L905.982 37.7381M904.885 46.3623L904.461 49.6885L904.032 53.0641L903.74 55.3453M904.885 46.3623L960 46.3623M743.925 37.7381L748.143 29.4502M801.107 29.4502L854.071 29.4502M801.107 29.4502L748.143 29.4502M801.107 29.4502L804.15 21.4793M854.071 29.4502L856.099 21.4792M854.071 29.4502L907.036 29.4502M905.982 37.7381L907.036 29.4502M905.982 37.7381L960 37.7395M807.077 13.8088L858.052 13.8088M807.077 13.8088L809.898 6.42085M807.077 13.8088L756.102 13.8088M807.077 13.8088L806.355 15.6984L805.261 18.5686L804.15 21.4793M858.052 13.8088L857.812 14.7521L856.348 20.5045L856.099 21.4792M858.052 13.8088L859.932 6.42085M858.052 13.8088L909.026 13.8088M809.898 6.42085L859.932 6.42085M809.898 6.42085L759.864 6.42086M809.898 6.42085L812.616 -0.699486M756.102 13.8088L759.4 7.32827L759.864 6.42086M756.102 13.8088L755.624 14.7521L755.141 15.6984L754.657 16.6521L752.2 21.4793M804.15 21.4793L856.099 21.4792M804.15 21.4793L752.2 21.4793M856.099 21.4792L908.05 21.4792M859.932 6.42085L860.619 3.71951L860.845 2.82701L861.072 1.93903L861.743 -0.69949M859.932 6.42085L909.966 6.42084M909.026 13.8088L909.735 8.24019L909.85 7.32675L909.966 6.41934M909.026 13.8088L908.05 21.4792M909.026 13.8088L960 13.8088M759.864 6.42086L763.487 -0.699482M817.766 -14.1957L865.176 -14.1957M817.766 -14.1957L819.606 -19.0154L820.207 -20.5955M817.766 -14.1957L770.354 -14.1957M817.766 -14.1957L816.827 -11.738L816.513 -10.9114L816.194 -10.0801L815.236 -7.56722M865.176 -14.1957L865.383 -15.0075L865.794 -16.6205L866.202 -18.2215L866.804 -20.5955M865.176 -14.1957L864.341 -10.9114L864.131 -10.0802L863.704 -8.40885L863.491 -7.56722M865.176 -14.1957L912.589 -14.1957M820.207 -20.5955L866.804 -20.5955M820.207 -20.5955L822.277 -26.0176L822.568 -26.7785M820.207 -20.5955L773.61 -20.5955M770.354 -14.1957L773.61 -20.5955M770.354 -14.1957L766.981 -7.56721M815.236 -7.56722L863.491 -7.56722M815.236 -7.56722L814.914 -6.72404L814.589 -5.87644L814.265 -5.02281L813.937 -4.16622L813.609 -3.30516L813.279 -2.44255L812.616 -0.700991M815.236 -7.56722L766.981 -7.56721M866.804 -20.5955L867.005 -21.3803L867.204 -22.1606L867.402 -22.938L867.599 -23.7139L868.185 -26.0176L868.379 -26.7785M866.804 -20.5955L913.403 -20.5955M863.491 -7.56722L863.275 -6.72405L863.06 -5.87644L862.842 -5.02282L862.626 -4.16623L862.186 -2.44255L861.965 -1.57401L861.743 -0.700996M863.491 -7.56722L911.745 -7.56869M822.568 -26.7785L776.757 -26.7785M773.61 -20.5955L775.199 -23.7139L776.371 -26.0176L776.757 -26.7785M1087.8 617.713L1215.61 617.713M1087.8 617.713L1082.06 572.526M1087.8 617.713L960 617.713M1087.8 617.713L1094.12 667.37M1215.61 617.713L1204.11 572.526M1215.61 617.713L1228.24 667.37M1215.61 617.713L1343.41 617.713L1326.17 572.526M1082.06 572.526L1204.11 572.526M1082.06 572.526L960 572.526M1082.06 572.526L1076.8 531.227M1094.12 667.37L1228.24 667.37M1094.12 667.37L1101.1 722.189M1094.12 667.37L960 667.369M1204.11 572.526L1193.6 531.227M1204.11 572.526L1326.17 572.526M1228.24 667.37L1242.19 722.189M1228.24 667.37L1362.37 667.369M960 572.526L960 531.227M960 572.526L960 617.712M1076.8 531.227L1193.6 531.227M1076.8 531.227L960 531.227M1076.8 531.227L1071.98 493.338M1193.6 531.227L1183.96 493.338M1193.6 531.227L1310.4 531.227M1326.17 572.526L1310.4 531.227M1326.17 572.526L1448.22 572.526M1067.54 458.452L1175.09 458.452M1067.54 458.452L1063.44 426.226M1067.54 458.452L960 458.452M1067.54 458.452L1071.98 493.338M1175.09 458.452L1166.89 426.226M1175.09 458.452L1183.96 493.338M1175.09 458.452L1282.63 458.452M1063.44 426.226L1166.89 426.226M1063.44 426.226L960 426.226M1063.44 426.226L1059.64 396.368M960 458.452L960 426.226M960 458.452L960 493.338M1071.98 493.338L1183.96 493.338M1166.89 426.226L1159.29 396.368M1166.89 426.226L1270.33 426.226M1183.96 493.338L1295.94 493.338M1282.63 458.452L1270.33 426.226M1282.63 458.452L1390.17 458.452M960 426.226L960 396.37M1059.64 396.368L1159.29 396.368M1059.64 396.368L960 396.368M1059.64 396.368L1056.11 368.622L1152.23 368.622L1248.34 368.622M1159.29 396.368L1152.23 368.624L1145.65 342.778M1159.29 396.368L1258.93 396.368M1270.33 426.226L1258.93 396.368M1270.33 426.226L1373.77 426.226M1145.65 342.779L1052.83 342.779L1049.76 318.642M1049.76 318.642L1139.51 318.642M1049.76 318.642L960 318.642M1049.76 318.642L1046.88 296.054M1145.65 342.778L1139.51 318.642M1145.65 342.778L1238.48 342.778M1139.51 318.642L1133.76 296.054M1139.51 318.642L1229.27 318.642M1238.48 342.778L1229.27 318.642M1238.48 342.778L1331.31 342.778M960 318.642L960 296.053L960 274.865M1046.88 296.054L1044.19 274.865M1229.27 318.642L1220.65 296.054L1307.53 296.054M1229.27 318.642L1319.02 318.642M1041.65 254.952L1123.31 254.952M1041.65 254.952L1039.27 236.203M1041.65 254.952L960 254.953M1041.65 254.952L1044.19 274.866M1123.31 254.952L1118.54 236.203M1123.31 254.952L1128.37 274.866M1123.31 254.952L1204.96 254.952M1039.27 236.203L1118.54 236.203M1039.27 236.203L960 236.203M1039.27 236.203L1037.02 218.518M960 254.953L960 236.203M960 254.953L960 274.865M1118.54 236.203L1114.03 218.518M1118.54 236.203L1197.8 236.203M960 236.203L960 218.517M1197.8 236.203L1191.05 218.517M1197.8 236.203L1204.96 254.951M1197.8 236.203L1277.07 236.202M1032.88 185.997L1105.76 185.997M1032.88 185.997L1030.97 171.014M1032.88 185.997L960 185.997M1032.88 185.997L1034.89 201.809M1105.76 185.997L1101.95 171.014M1105.76 185.997L1109.78 201.809M1105.76 185.997L1178.64 185.997M1030.97 171.014L1101.95 171.014M1030.97 171.014L960 171.014M1030.97 171.014L1029.16 156.794M1101.95 171.014L1098.33 156.794M1101.95 171.014L1172.92 171.014M960 171.014L960 156.793M960 171.014L960 185.996M1172.92 171.014L1167.49 156.793M1172.92 171.014L1178.64 185.996M1172.92 171.014L1243.9 171.012M1025.81 130.422L1091.62 130.422M1025.81 130.422L1024.25 118.174M1025.81 130.422L960 130.422M1025.81 130.422L1027.45 143.28M1091.62 130.422L1088.5 118.174M1091.62 130.422L1094.89 143.28M1091.62 130.422L1157.43 130.422M1024.25 118.174L1088.5 118.174M1024.25 118.174L960 118.174M1024.25 118.174L1022.77 106.491M1027.45 143.28L1094.89 143.28M1027.45 143.28L1027.66 144.932L1029.16 156.793M1027.45 143.28L960 143.278M1088.5 118.174L1085.53 106.491M1088.5 118.174L1152.76 118.174M1094.89 143.28L1098.33 156.793M1094.89 143.28L1162.34 143.278M960 118.174L960 106.49M960 118.174L960 130.421M1022.77 106.491L1085.53 106.491M1022.77 106.491L960 106.49M1022.77 106.491L1021.35 95.3376M1085.53 106.491L1082.69 95.3376M1085.53 106.491L1148.3 106.49M1152.76 118.174L1151.62 115.201L1148.3 106.49M1152.76 118.174L1157.43 130.421M1152.76 118.174L1217.01 118.173M1019.99 84.6758L1079.98 84.6758M1019.99 84.6758L1018.69 74.4774M1019.99 84.6758L960 84.6758M1019.99 84.6758L1021.35 95.3376M1079.98 84.6758L1077.7 75.7286L1077.38 74.4774M1079.98 84.6758L1082.69 95.3376M1079.98 84.6758L1139.97 84.6758M1018.69 74.4774L1018.53 73.2336L1017.45 64.7095M1018.69 74.4774L1077.38 74.4774M1018.69 74.4774L960 74.4774M1021.35 95.3376L1082.69 95.3376M1021.35 95.3376L960 95.3361M1077.38 74.4774L1076.44 70.7655L1076.13 69.5411L1075.82 68.3243L1074.9 64.7095M1077.38 74.4774L1136.08 74.4774M1082.69 95.3376L1144.04 95.3361M1015.12 46.3638L1070.23 46.3638M1015.12 46.3638L1014.02 37.7395M1015.12 46.3638L960 46.3638M1015.12 46.3638L1015.54 49.69L1015.68 50.8097L1015.82 51.9354L1016.11 54.2032L1016.26 55.3468M1070.23 46.3638L1068.58 39.8639L1068.04 37.7395M1070.23 46.3638L1072.52 55.3468M1070.23 46.3638L1125.35 46.3638M1014.02 37.7395L1068.04 37.7395M1014.02 37.7395L960 37.7395M1014.02 37.7395L1012.96 29.4516M1068.04 37.7395L1066.71 32.5222L1066.45 31.4923L1066.19 30.4697L1065.93 29.4516M1068.04 37.7395L1122.06 37.7395M960 37.7395L960 29.4502M960 37.7395L960 46.3623M1012.96 29.4516L1065.93 29.4516M1012.96 29.4516L960 29.4502M1012.96 29.4516L1011.95 21.4792M1065.93 29.4516L1063.9 21.4792M1065.93 29.4516L1118.89 29.4502M1122.06 37.7395L1122.46 38.7979L1122.87 39.8623L1123.27 40.9327L1125.35 46.3623M1122.06 37.7395L1120.46 33.5537L1120.06 32.5208L1119.67 31.4907L1118.89 29.4502M1122.06 37.7395L1176.07 37.7381M1010.97 13.8103L1061.95 13.8102M1010.97 13.8103L1010.03 6.42234M1010.97 13.8103L960 13.8103M1010.97 13.8103L1011.95 21.4807M1061.95 13.8102L1062.19 14.7536L1063.65 20.506L1063.9 21.4807M1061.95 13.8102L1060.07 6.42234M1061.95 13.8102L1112.92 13.8102M1010.03 6.42234L1060.07 6.42234M1010.03 6.42234L960 6.42235M1010.03 6.42234L1009.13 -0.697998M1060.07 6.42234L1059.38 3.72099L1059.15 2.82854L1058.93 1.94052L1058.26 -0.698002M1060.07 6.42234L1110.1 6.42233M1007.41 -14.1942L1054.82 -14.1942M1007.41 -14.1942L1006.6 -20.594M1007.41 -14.1942L960 -14.1942M1007.41 -14.1942L1008.25 -7.56568M1054.82 -14.1942L1054.62 -15.006L1054.2 -16.619L1054 -17.4218L1053.6 -19.0139L1053.4 -19.8062L1053.19 -20.594M1054.82 -14.1942L1055.66 -10.9098L1055.87 -10.0787L1056.3 -8.40736L1056.51 -7.56569M1054.82 -14.1942L1102.23 -14.1942M1006.6 -20.594L1006.5 -21.3788L1006.4 -22.1592L1006.3 -22.9365L1005.81 -26.777M1006.6 -20.594L1053.19 -20.594M1006.6 -20.594L960 -20.594M1053.19 -20.594L1099.79 -20.594M1053.19 -20.594L1052.8 -22.1592L1052.6 -22.9366L1052.4 -23.7124L1051.82 -26.0161L1051.62 -26.777M1102.23 -14.1942L1100.39 -19.0154L1099.79 -20.594M1102.23 -14.1942L1103.81 -10.0802L1104.76 -7.56724M1102.23 -14.1942L1149.65 -14.1957M1099.79 -20.594L1146.39 -20.5955M1099.79 -20.594L1098.01 -25.2522L1097.43 -26.7785M1599.02 617.713L1726.83 617.713M1599.02 617.713L1570.28 572.526M1599.02 617.713L1471.22 617.713M1599.02 617.713L1630.61 667.37M1726.83 617.713L1692.33 572.526M1726.83 617.713L1764.73 667.37M1726.83 617.713L1854.63 617.713M1570.28 572.526L1692.33 572.526M1570.28 572.526L1448.22 572.526M1570.28 572.526L1544.01 531.227M1630.61 667.37L1764.73 667.37M1630.61 667.37L1665.48 722.19M1630.61 667.37L1496.49 667.37M1692.33 572.526L1660.81 531.227M1692.33 572.526L1814.39 572.526M1764.73 667.37L1806.58 722.19M1764.73 667.37L1898.85 667.37M1854.63 617.713L1814.39 572.526M1854.63 617.713L1898.85 667.37M1854.63 617.713L1921.98 617.713M1448.22 572.526L1427.21 531.227M1448.22 572.526L1471.22 617.711M1544.01 531.227L1660.81 531.227M1544.01 531.227L1427.21 531.227M1544.01 531.227L1519.91 493.338M1660.81 531.227L1631.89 493.338M1660.81 531.227L1777.61 531.227M1814.39 572.526L1777.61 531.227M1814.39 572.526L1921.98 572.526M1497.72 458.452L1605.26 458.452M1497.72 458.452L1477.22 426.226M1497.72 458.452L1390.17 458.452M1497.72 458.452L1519.91 493.338M1605.26 458.452L1580.66 426.226M1605.26 458.452L1631.89 493.338M1605.26 458.452L1712.8 458.452M1477.22 426.226L1580.66 426.226M1477.22 426.226L1373.77 426.226M1477.22 426.226L1458.22 396.368M1580.66 426.226L1557.87 396.368M1580.66 426.226L1684.1 426.226M1712.8 458.452L1684.1 426.226M1712.8 458.452L1743.87 493.338M1712.8 458.452L1820.34 458.452M1373.77 426.226L1358.58 396.368M1373.77 426.226L1390.17 458.452M1458.22 396.368L1557.87 396.368M1458.22 396.368L1358.58 396.368M1458.22 396.368L1440.57 368.622M1557.87 396.368L1536.69 368.624L1516.96 342.779L1424.13 342.779M1557.87 396.368L1657.51 396.368M1684.1 426.226L1657.51 396.368M1684.1 426.226L1787.55 426.226M1424.13 342.779L1408.78 318.642M1424.13 342.779L1331.31 342.779M1424.13 342.779L1440.57 368.624M1408.78 318.642L1498.54 318.642M1408.78 318.642L1319.02 318.642M1408.78 318.642L1394.41 296.054M1498.54 318.642L1516.96 342.778L1609.79 342.778M1498.54 318.642L1481.29 296.054M1498.54 318.642L1588.29 318.642M1319.02 318.642L1307.53 296.052L1296.75 274.865M1319.02 318.642L1331.31 342.778M1588.29 318.642L1568.17 296.054M1588.29 318.642L1609.79 342.779L1632.8 368.622M1588.29 318.642L1678.05 318.642M1368.27 254.952L1449.92 254.952M1368.27 254.952L1356.34 236.203M1368.27 254.952L1286.61 254.952M1368.27 254.952L1380.93 274.866L1394.41 296.055L1307.53 296.055M1449.92 254.952L1435.61 236.203M1449.92 254.952L1465.12 274.865M1356.34 236.203L1435.61 236.203M1356.34 236.203L1277.07 236.202M1356.34 236.203L1345.09 218.517L1422.11 218.517M1435.61 236.203L1422.11 218.517M1435.61 236.203L1514.87 236.202M1465.12 274.865L1481.29 296.052M1465.12 274.865L1549.31 274.865M1465.12 274.865L1380.93 274.865L1296.75 274.865M1449.92 254.951L1531.57 254.951M1531.57 254.951L1549.31 274.865M1531.57 254.951L1613.22 254.951M1277.07 236.202L1268.07 218.517M1277.07 236.202L1286.61 254.951M1422.11 218.517L1409.35 201.808M1422.11 218.517L1499.12 218.517M1514.87 236.202L1499.12 218.517M1514.87 236.202L1531.57 254.952M1514.87 236.202L1594.14 236.202M1324.4 185.996L1397.28 185.996M1324.4 185.996L1314.87 171.012M1324.4 185.996L1251.52 185.996M1324.4 185.996L1334.46 201.808M1397.28 185.996L1385.84 171.012M1397.28 185.996L1409.35 201.808M1397.28 185.996L1470.16 185.996M1314.87 171.012L1385.84 171.012M1314.87 171.012L1243.9 171.012M1314.87 171.012L1305.82 156.793M1251.52 185.996L1178.64 185.996M1251.52 185.996L1249.58 182.176L1243.9 171.012M1251.52 185.996L1259.57 201.808M1334.46 201.808L1409.35 201.808M1334.46 201.808L1259.57 201.808M1385.84 171.012L1374.99 156.793M1385.84 171.012L1456.82 171.012M1409.35 201.808L1484.24 201.808M1470.16 185.996L1456.82 171.012M1470.16 185.996L1484.24 201.808M1470.16 185.996L1543.04 185.996M1243.9 171.012L1236.66 156.793M1305.82 156.793L1374.99 156.793M1305.82 156.793L1236.66 156.793M1305.82 156.793L1297.23 143.278M1374.99 156.793L1364.68 143.278M1374.99 156.793L1444.15 156.793M1456.82 171.012L1444.15 156.793M1456.82 171.012L1527.79 171.012M1289.05 130.421L1354.86 130.421M1289.05 130.421L1281.26 118.173M1289.05 130.421L1223.24 130.421M1289.05 130.421L1297.23 143.278M1354.86 130.421L1345.51 118.173M1354.86 130.421L1364.68 143.278M1354.86 130.421L1420.67 130.421M1281.26 118.173L1345.51 118.173M1281.26 118.173L1217.01 118.173M1281.26 118.173L1273.83 106.49M1223.24 130.421L1157.43 130.421M1223.24 130.421L1217.01 118.173M1223.24 130.421L1229.78 143.278M1297.23 143.278L1364.68 143.278M1297.23 143.278L1229.78 143.278M1345.51 118.173L1336.59 106.49M1345.51 118.173L1409.76 118.173M1364.68 143.278L1432.12 143.278M1420.67 130.421L1409.76 118.173M1420.67 130.421L1432.12 143.278M1420.67 130.421L1486.48 130.421M1217.01 118.173L1211.06 106.49M1273.83 106.49L1336.59 106.49M1273.83 106.49L1211.06 106.49M1273.83 106.49L1266.73 95.3361M1336.59 106.49L1328.08 95.3361M1336.59 106.49L1399.36 106.49M1409.76 118.173L1399.36 106.49M1409.76 118.173L1474.01 118.173M1259.95 84.6742L1260.78 85.9823L1261.62 87.2949L1266.73 95.3361M1259.95 84.6742L1319.94 84.6742M1259.95 84.6742L1253.46 74.4759M1259.95 84.6742L1199.96 84.6743M1266.73 95.3361L1328.08 95.3361M1266.73 95.3361L1205.39 95.3361M1319.94 84.6742L1312.15 74.4759M1319.94 84.6742L1328.08 95.3361M1319.94 84.6742L1379.93 84.6742M1253.46 74.4759L1312.15 74.4759M1253.46 74.4759L1194.77 74.4759M1253.46 74.4759L1247.25 64.708M1199.96 84.6743L1139.97 84.6743M1199.96 84.6743L1194.77 74.4759M1199.96 84.6743L1202.64 89.9454L1205.39 95.3361M1312.15 74.4759L1304.7 64.708M1312.15 74.4759L1370.85 74.4759M1328.08 95.3361L1389.42 95.3361M1379.93 84.6742L1370.85 74.4759M1379.93 84.6742L1389.42 95.3361M1379.93 84.6742L1439.92 84.6742M1194.77 74.4759L1136.08 74.4759M1194.77 74.4759L1189.8 64.708M1247.25 64.708L1304.7 64.708M1247.25 64.708L1189.8 64.708M1247.25 64.708L1245.74 62.3311L1241.29 55.3453M1304.7 64.708L1301.98 61.1516L1301.09 59.9766L1297.55 55.3453M1304.7 64.708L1362.15 64.708M1370.85 74.4759L1362.15 64.708M1370.85 74.4759L1429.54 74.4758M1235.58 46.3623L1290.69 46.3623M1235.58 46.3623L1230.09 37.7381M1235.58 46.3623L1180.46 46.3623M1235.58 46.3623L1241.29 55.3453M1290.69 46.3623L1286.55 40.9327L1284.11 37.7381M1290.69 46.3623L1297.55 55.3453M1290.69 46.3623L1345.81 46.3623M1230.09 37.7381L1284.11 37.7381M1230.09 37.7381L1176.07 37.7381M1230.09 37.7381L1225.47 30.4682L1224.82 29.4502M1180.46 46.3623L1125.35 46.3623M1180.46 46.3623L1177.16 39.8623L1176.07 37.7381M1180.46 46.3623L1182.16 49.6885L1185.04 55.3453M1241.29 55.3453L1297.55 55.3453M1241.29 55.3453L1185.04 55.3453M1284.11 37.7381L1277.79 29.4502M1284.11 37.7381L1338.13 37.738M1297.55 55.3453L1353.81 55.3453M1345.81 46.3623L1338.13 37.738M1345.81 46.3623L1353.81 55.3453M1345.81 46.3623L1400.93 46.3622M1176.07 37.7381L1171.86 29.4502M1224.82 29.4502L1277.79 29.4502M1224.82 29.4502L1171.86 29.4502M1224.82 29.4502L1219.75 21.4792M1277.79 29.4502L1271.7 21.4792M1277.79 29.4502L1330.75 29.4502M1338.13 37.738L1333.48 32.5208L1332.57 31.4907L1330.75 29.4502M1338.13 37.738L1392.15 37.738M1214.87 13.8087L1265.84 13.8087M1214.87 13.8087L1213.68 11.9356L1210.17 6.42082M1214.87 13.8087L1163.9 13.8087M1214.87 13.8087L1216.07 15.6983L1218.51 19.5343L1219.75 21.4792M1265.84 13.8087L1260.21 6.42081M1265.84 13.8087L1268.01 16.6521L1269.48 18.5686L1271.7 21.4792M1265.84 13.8087L1316.82 13.8087M1210.17 6.42082L1260.21 6.42081M1210.17 6.42082L1160.14 6.42082M1210.17 6.42082L1206.76 1.0555L1205.64 -0.69952M1163.9 13.8087L1112.92 13.8087M1163.9 13.8087L1160.6 7.32824L1160.14 6.42082M1163.9 13.8087L1164.38 14.752L1164.86 15.6983L1165.34 16.6521L1167.8 21.4792M1219.75 21.4792L1271.7 21.4792M1219.75 21.4792L1167.8 21.4792M1260.21 6.42081L1258.14 3.71947L1256.78 1.939L1254.77 -0.699525M1260.21 6.42081L1310.24 6.42081M1271.7 21.4792L1323.65 21.4792M1316.82 13.8087L1310.24 6.42081M1316.82 13.8087L1321.06 18.5686L1321.92 19.5343L1323.65 21.4792M1316.82 13.8087L1367.79 13.8087M1160.14 6.42082L1110.1 6.42083M1160.14 6.42082L1156.51 -0.699516M1205.64 -0.69952L1254.77 -0.699525M1205.64 -0.69952L1156.51 -0.699516M1205.64 -0.69952L1201.27 -7.56725M1254.77 -0.699525L1252.12 -4.1648L1251.47 -5.02139L1249.53 -7.56726M1254.77 -0.699525L1303.9 -0.699529M1310.24 6.42081L1303.9 -0.699529M1310.24 6.42081L1360.27 6.42081M1197.06 -14.1957L1244.47 -14.1957M1197.06 -14.1957L1194.5 -18.2216L1192.99 -20.5955M1197.06 -14.1957L1149.65 -14.1957M1197.06 -14.1957L1201.27 -7.56725M1244.47 -14.1957L1240.79 -19.0154L1240.18 -19.8077L1239.58 -20.5955M1244.47 -14.1957L1246.98 -10.9114L1249.53 -7.56726M1244.47 -14.1957L1291.88 -14.1957M1192.99 -20.5955L1239.58 -20.5955M1192.99 -20.5955L1191 -23.7139L1190.02 -25.2522L1189.54 -26.0176L1189.05 -26.7785M1192.99 -20.5955L1146.39 -20.5955M1149.65 -14.1957L1147.19 -19.0154L1146.39 -20.5955M1149.65 -14.1957L1153.02 -7.56725M1201.27 -7.56725L1249.53 -7.56726M1201.27 -7.56725L1153.02 -7.56725M1239.58 -20.5955L1286.18 -20.5955M1239.58 -20.5955L1234.86 -26.7785M1189.05 -26.7785L1234.86 -26.7785M1189.05 -26.7785L1143.24 -26.7785M1146.39 -20.5955L1144.8 -23.7139L1143.63 -26.0176L1143.24 -26.7785M1286.18 -20.5955L1332.78 -20.5955M1286.18 -20.5955L1280.67 -26.7785M1234.86 -26.7785L1280.67 -26.7785M1890.99 426.226L1787.55 426.226M1890.99 426.226L1856.8 396.368M1890.99 426.226L1921.98 426.226M1890.99 426.226L1921.98 453.295M1787.55 426.226L1757.16 396.368M1787.55 426.226L1820.34 458.452M1856.8 396.368L1825.03 368.622L1728.92 368.622M1856.8 396.368L1757.16 396.368M1856.8 396.368L1921.98 396.368M1921.98 426.226L1921.98 396.368M1921.98 426.226L1921.98 453.295M1921.98 453.295L1921.98 458.452L1921.98 493.338M1795.44 342.779L1888.27 342.779L1921.15 368.624L1825.03 368.624L1795.44 342.779ZM1795.44 342.779L1767.8 318.644M1795.44 342.779L1702.61 342.779M1767.8 318.644L1857.56 318.642M1767.8 318.644L1678.05 318.642M1767.8 318.644L1741.94 296.054M1702.61 342.779L1678.05 318.641M1702.61 342.779L1728.92 368.624M1857.56 318.642L1888.27 342.778L1921.98 342.778M1857.56 318.642L1828.82 296.054M1857.56 318.642L1921.98 318.642M1678.05 318.642L1655.06 296.052M1673.41 236.203L1694.88 254.952L1776.53 254.952L1801.86 274.865M1613.22 254.952L1694.88 254.952L1717.68 274.865M1613.22 254.952L1594.14 236.202M1613.22 254.952L1633.49 274.865M1717.68 274.865L1801.86 274.865M1717.68 274.865L1741.94 296.052M1717.68 274.865L1633.49 274.865M1752.68 236.202L1776.53 254.951L1858.18 254.951M1752.68 236.202L1673.41 236.202M1752.68 236.202L1730.18 218.517M1752.68 236.202L1831.94 236.202M1801.86 274.865L1828.82 296.052M1801.86 274.865L1886.05 274.865M1858.18 254.951L1886.05 274.865M1858.18 254.951L1921.98 254.951M1673.41 236.202L1594.14 236.202M1673.41 236.202L1653.16 218.517M1594.14 236.202L1576.14 218.517M1653.16 218.517L1730.18 218.517M1653.16 218.517L1576.14 218.517M1653.16 218.517L1634.03 201.808M1730.18 218.517L1708.92 201.808M1730.18 218.517L1807.2 218.517M1831.94 236.202L1807.2 218.517M1831.94 236.202L1858.18 254.952M1831.94 236.202L1911.21 236.202M1615.92 185.996L1688.8 185.996M1615.92 185.996L1598.77 171.012M1615.92 185.996L1543.04 185.996M1615.92 185.996L1634.03 201.808M1688.8 185.996L1669.74 171.012M1688.8 185.996L1708.92 201.808M1688.8 185.996L1761.68 185.996M1598.77 171.012L1669.74 171.012M1598.77 171.012L1527.79 171.012M1598.77 171.012L1582.48 156.793M1543.04 185.996L1527.79 171.012M1543.04 185.996L1559.13 201.808M1634.03 201.808L1708.92 201.808M1634.03 201.808L1559.13 201.808M1669.74 171.012L1651.65 156.792M1669.74 171.012L1740.71 171.012M1708.92 201.808L1783.81 201.808M1761.68 185.996L1740.71 171.012M1761.68 185.996L1783.81 201.808M1761.68 185.996L1834.56 185.996M1527.79 171.012L1513.32 156.793M1582.48 156.793L1651.65 156.792M1582.48 156.793L1513.32 156.793M1582.48 156.793L1567.01 143.278M1651.65 156.792L1634.46 143.278M1651.65 156.792L1720.81 156.792M1740.71 171.012L1720.81 156.792M1740.71 171.012L1811.69 171.012M1552.29 130.421L1618.1 130.421M1552.29 130.421L1538.26 118.173M1552.29 130.421L1486.48 130.421M1552.29 130.421L1567.01 143.278M1618.1 130.421L1602.52 118.173M1618.1 130.421L1634.46 143.278M1618.1 130.421L1683.91 130.42M1538.26 118.173L1602.52 118.173M1538.26 118.173L1474.01 118.173M1538.26 118.173L1524.89 106.49M1486.48 130.421L1474.01 118.173M1486.48 130.421L1499.57 143.278M1567.01 143.278L1634.46 143.278M1567.01 143.278L1499.57 143.278M1602.52 118.173L1587.65 106.49M1602.52 118.173L1666.77 118.173M1634.46 143.278L1701.9 143.278M1683.91 130.42L1666.77 118.173M1683.91 130.42L1701.9 143.278M1683.91 130.42L1749.72 130.42M1474.01 118.173L1462.12 106.49M1524.89 106.49L1587.65 106.49M1524.89 106.49L1462.12 106.49M1524.89 106.49L1512.12 95.3361M1587.65 106.49L1573.46 95.3361M1587.65 106.49L1650.42 106.49M1666.77 118.173L1650.42 106.49M1666.77 118.173L1731.02 118.173M1499.91 84.6742L1559.9 84.6742M1499.91 84.6742L1488.23 74.4758M1499.91 84.6742L1439.92 84.6742M1499.91 84.6742L1512.12 95.3361M1559.9 84.6742L1546.92 74.4758M1559.9 84.6742L1573.46 95.3361M1559.9 84.6742L1619.89 84.6742M1488.23 74.4758L1546.92 74.4758M1488.23 74.4758L1429.54 74.4758M1488.23 74.4758L1477.05 64.708M1439.92 84.6742L1429.54 74.4758M1439.92 84.6742L1450.77 95.3361M1512.12 95.3361L1573.46 95.3361M1512.12 95.3361L1450.77 95.3361M1546.92 74.4758L1534.5 64.708M1546.92 74.4758L1605.62 74.4758M1573.46 95.3361L1634.81 95.3361M1619.89 84.6742L1605.62 74.4758M1619.89 84.6742L1634.81 95.3361M1619.89 84.6742L1679.88 84.6742M1429.54 74.4758L1419.6 64.708M1477.05 64.708L1534.5 64.708M1477.05 64.708L1419.6 64.708M1477.05 64.708L1466.33 55.3453M1534.5 64.708L1522.59 55.3453M1534.5 64.708L1591.95 64.708M1605.62 74.4758L1591.95 64.708M1605.62 74.4758L1664.31 74.4758M1456.04 46.3622L1511.16 46.3622M1456.04 46.3622L1446.17 37.738M1456.04 46.3622L1400.93 46.3622M1456.04 46.3622L1466.33 55.3453M1511.16 46.3622L1500.19 37.738M1511.16 46.3622L1522.59 55.3453M1511.16 46.3622L1566.27 46.3622M1446.17 37.738L1500.19 37.738M1446.17 37.738L1392.15 37.738M1446.17 37.738L1436.68 29.4502M1400.93 46.3622L1392.15 37.738M1400.93 46.3622L1410.07 55.3453M1466.33 55.3453L1522.59 55.3453M1466.33 55.3453L1410.07 55.3453M1500.19 37.738L1489.64 29.4501M1500.19 37.738L1554.2 37.738M1522.59 55.3453L1578.84 55.3453M1566.27 46.3622L1554.2 37.738M1566.27 46.3622L1578.84 55.3453M1566.27 46.3622L1621.39 46.3622M1392.15 37.738L1383.71 29.4502M1436.68 29.4502L1489.64 29.4501M1436.68 29.4502L1383.71 29.4502M1436.68 29.4502L1427.55 21.4792M1489.64 29.4501L1480.75 22.4598L1479.5 21.4792M1489.64 29.4501L1542.61 29.4501M1554.2 37.738L1542.61 29.4501M1554.2 37.738L1608.22 37.738M1418.77 13.8087L1469.74 13.8087M1418.77 13.8087L1410.31 6.4208M1418.77 13.8087L1367.79 13.8087M1418.77 13.8087L1420.93 15.6983L1422.02 16.6521L1427.55 21.4792M1469.74 13.8087L1460.34 6.4208M1469.74 13.8087L1479.5 21.4792M1469.74 13.8087L1520.71 13.8087M1410.31 6.4208L1460.34 6.4208M1410.31 6.4208L1360.27 6.42081M1410.31 6.4208L1402.16 -0.699537M1367.79 13.8087L1360.27 6.42081M1367.79 13.8087L1375.6 21.4792M1427.55 21.4792L1479.5 21.4792M1427.55 21.4792L1375.6 21.4792M1460.34 6.4208L1451.28 -0.699542M1460.34 6.4208L1510.38 6.42079M1479.5 21.4792L1531.45 21.4792M1520.71 13.8087L1510.38 6.42079M1520.71 13.8087L1531.45 21.4792M1520.71 13.8087L1571.69 13.8087M1360.27 6.42081L1353.03 -0.699533M1402.16 -0.699537L1451.28 -0.699542M1402.16 -0.699537L1353.03 -0.699533M1402.16 -0.699537L1394.29 -7.56727M1451.28 -0.699542L1442.55 -7.56727M1451.28 -0.699542L1500.41 -0.699546M1510.38 6.42079L1500.41 -0.699546M1510.38 6.42079L1560.41 6.42079M1386.7 -14.1957L1434.11 -14.1957M1386.7 -14.1957L1379.37 -20.5955M1386.7 -14.1957L1339.29 -14.1957M1386.7 -14.1957L1394.29 -7.56727M1434.11 -14.1957L1427.98 -19.0154L1426.98 -19.8077L1425.97 -20.5955M1434.11 -14.1957L1442.55 -7.56727M1434.11 -14.1957L1481.53 -14.1957M1379.37 -20.5955L1425.97 -20.5955M1379.37 -20.5955L1373.17 -26.0176L1372.29 -26.7786M1379.37 -20.5955L1332.78 -20.5955M1339.29 -14.1957L1291.88 -14.1957M1339.29 -14.1957L1332.78 -20.5955M1339.29 -14.1957L1346.04 -7.56727M1394.29 -7.56727L1442.55 -7.56727M1394.29 -7.56727L1346.04 -7.56727M1425.97 -20.5955L1472.57 -20.5955M1425.97 -20.5955L1418.11 -26.7786M1442.55 -7.56727L1490.8 -7.56728M1481.53 -14.1957L1472.57 -20.5955M1481.53 -14.1957L1490.8 -7.56728M1481.53 -14.1957L1528.94 -14.1957M1372.29 -26.7786L1418.11 -26.7786M1372.29 -26.7786L1326.48 -26.7785M1332.78 -20.5955L1328.04 -25.2522L1326.48 -26.7785M1472.57 -20.5955L1519.17 -20.5955M1472.57 -20.5955L1463.92 -26.7786M1418.11 -26.7786L1463.92 -26.7786M1907.44 185.996L1882.66 171.012M1907.44 185.996L1834.56 185.996M1907.44 185.996L1921.98 194.786M1907.44 185.996L1921.98 185.996M1882.66 171.012L1811.69 171.012M1882.66 171.012L1859.14 156.792M1882.66 171.012L1921.98 171.012M1834.56 185.996L1811.69 171.012M1834.56 185.996L1858.7 201.808M1921.98 194.786L1921.98 185.996M1921.98 194.786L1921.98 201.808M1921.98 185.996L1921.98 171.012M1811.69 171.012L1789.98 156.792M1859.14 156.792L1836.79 143.278M1859.14 156.792L1789.98 156.792M1859.14 156.792L1921.98 156.792M1921.98 171.012L1921.98 156.792M1815.53 130.42L1881.34 130.42M1815.53 130.42L1795.27 118.173M1815.53 130.42L1749.72 130.42M1815.53 130.42L1836.79 143.278M1881.34 130.42L1859.52 118.173M1881.34 130.42L1904.24 143.278M1881.34 130.42L1921.98 130.42M1795.27 118.173L1859.52 118.173M1795.27 118.173L1731.02 118.173M1795.27 118.173L1775.95 106.49M1749.72 130.42L1731.02 118.173M1749.72 130.42L1769.35 143.278M1836.79 143.278L1904.24 143.278M1836.79 143.278L1769.35 143.278M1859.52 118.173L1838.72 106.49M1859.52 118.173L1921.98 118.173M1904.24 143.278L1921.98 153.239M1904.24 143.278L1921.98 143.278M1921.98 130.42L1922.47 130.42M1921.98 130.42L1921.98 118.173M1921.98 130.42L1921.98 143.278M1775.95 106.49L1838.72 106.49M1775.95 106.49L1713.18 106.49M1775.95 106.49L1757.5 95.3361M1838.72 106.49L1818.85 95.336M1838.72 106.49L1901.48 106.49M1921.98 118.173L1921.98 117.234M1739.87 84.6742L1799.86 84.6742M1739.87 84.6742L1723 74.4758M1739.87 84.6742L1679.88 84.6742M1739.87 84.6742L1757.5 95.3361M1799.86 84.6742L1781.69 74.4758M1799.86 84.6742L1818.85 95.336M1799.86 84.6742L1859.85 84.6742M1723 74.4758L1781.69 74.4758M1723 74.4758L1664.31 74.4758M1723 74.4758L1706.85 64.708M1679.88 84.6742L1664.31 74.4758M1679.88 84.6742L1696.16 95.3361M1757.5 95.3361L1818.85 95.336M1757.5 95.3361L1696.16 95.3361M1781.69 74.4758L1764.3 64.708M1781.69 74.4758L1840.39 74.4758M1818.85 95.336L1880.19 95.336M1859.85 84.6742L1840.39 74.4758M1859.85 84.6742L1880.19 95.336M1859.85 84.6742L1919.84 84.6742M1664.31 74.4758L1649.4 64.708M1706.85 64.708L1764.3 64.708M1706.85 64.708L1649.4 64.708M1706.85 64.708L1691.36 55.3452M1764.3 64.708L1747.62 55.3452M1764.3 64.708L1821.74 64.708M1840.39 74.4758L1821.74 64.708M1840.39 74.4758L1899.08 74.4758M1676.5 46.3622L1731.62 46.3622M1676.5 46.3622L1662.24 37.738M1676.5 46.3622L1621.39 46.3622M1676.5 46.3622L1691.36 55.3452M1731.62 46.3622L1716.26 37.738M1731.62 46.3622L1747.62 55.3452M1731.62 46.3622L1786.74 46.3622M1662.24 37.738L1716.26 37.738M1662.24 37.738L1608.22 37.738M1662.24 37.738L1648.53 29.4501M1621.39 46.3622L1608.22 37.738M1621.39 46.3622L1635.1 55.3453M1691.36 55.3452L1747.62 55.3452M1691.36 55.3452L1635.1 55.3453M1716.26 37.738L1701.5 29.4501M1716.26 37.738L1770.28 37.738M1747.62 55.3452L1803.88 55.3452M1786.74 46.3622L1770.28 37.738M1786.74 46.3622L1803.88 55.3452M1786.74 46.3622L1841.85 46.3622M1608.22 37.738L1595.57 29.4501M1648.53 29.4501L1701.5 29.4501M1648.53 29.4501L1595.57 29.4501M1648.53 29.4501L1635.35 21.4792M1701.5 29.4501L1687.3 21.4792M1701.5 29.4501L1754.46 29.4501M1770.28 37.738L1754.46 29.4501M1770.28 37.738L1824.3 37.738L1878.31 37.738L1896.97 46.3622M1622.66 13.8087L1673.64 13.8087M1622.66 13.8087L1610.45 6.42078M1622.66 13.8087L1571.69 13.8087M1622.66 13.8087L1635.35 21.4792M1673.64 13.8087L1660.48 6.42078M1673.64 13.8087L1687.3 21.4792M1673.64 13.8087L1724.61 13.8087M1610.45 6.42078L1660.48 6.42078M1610.45 6.42078L1560.41 6.42079M1610.45 6.42078L1598.67 -0.699555M1571.69 13.8087L1561.8 7.3282L1560.41 6.42079M1571.69 13.8087L1583.4 21.4792M1635.35 21.4792L1687.3 21.4792M1635.35 21.4792L1583.4 21.4792M1660.48 6.42078L1647.8 -0.699559M1660.48 6.42078L1710.51 6.42078M1687.3 21.4792L1739.25 21.4792M1724.61 13.8087L1710.51 6.42078M1724.61 13.8087L1739.25 21.4792M1724.61 13.8087L1775.59 13.8087M1560.41 6.42079L1549.54 -0.69955M1598.67 -0.699555L1647.8 -0.699559M1598.67 -0.699555L1549.54 -0.69955M1598.67 -0.699555L1587.31 -7.56729M1647.8 -0.699559L1635.57 -7.56729M1647.8 -0.699559L1696.92 -0.699563M1710.51 6.42078L1696.92 -0.699563M1710.51 6.42078L1760.55 6.42077M1576.35 -14.1957L1623.76 -14.1957M1576.35 -14.1957L1565.76 -20.5955M1576.35 -14.1957L1528.94 -14.1957M1576.35 -14.1957L1587.31 -7.56729M1623.76 -14.1957L1612.36 -20.5955M1623.76 -14.1957L1635.57 -7.56729M1623.76 -14.1957L1671.17 -14.1957M1565.76 -20.5955L1612.36 -20.5955M1565.76 -20.5955L1555.54 -26.7786M1565.76 -20.5955L1519.17 -20.5955M1528.94 -14.1957L1519.17 -20.5955M1528.94 -14.1957L1539.05 -7.56728M1587.31 -7.56729L1635.57 -7.56729M1587.31 -7.56729L1539.05 -7.56728M1612.36 -20.5955L1658.96 -20.5955M1612.36 -20.5955L1601.35 -26.7786M1635.57 -7.56729L1683.82 -7.56729M1671.17 -14.1957L1658.96 -20.5955M1671.17 -14.1957L1683.82 -7.56729M1671.17 -14.1957L1718.58 -14.1957M1555.54 -26.7786L1601.35 -26.7786M1555.54 -26.7786L1509.73 -26.7786M1519.17 -20.5955L1509.73 -26.7786M1658.96 -20.5955L1705.56 -20.5955M1658.96 -20.5955L1647.16 -26.7786M1601.35 -26.7786L1647.16 -26.7786M1896.97 46.3622L1841.85 46.3622M1896.97 46.3622L1916.4 55.3452M1896.97 46.3622L1921.98 46.3622M1841.85 46.3622L1824.3 37.738L1807.43 29.4501M1841.85 46.3622L1860.14 55.3452M1916.4 55.3452L1860.14 55.3452M1916.4 55.3452L1921.98 55.3452M1916.4 55.3452L1921.98 57.927M1921.98 46.3622L1921.98 37.738M1921.98 46.3622L1921.98 55.3452M1860.39 29.4501L1878.32 37.738L1921.98 37.738M1860.39 29.4501L1913.35 29.4501M1860.39 29.4501L1807.43 29.4501M1860.39 29.4501L1843.15 21.4792M1921.98 37.738L1921.98 33.2173M1826.56 13.8087L1877.53 13.8087M1826.56 13.8087L1810.58 6.42077M1826.56 13.8087L1775.59 13.8087M1826.56 13.8087L1843.15 21.4792M1877.53 13.8087L1860.62 6.42076M1877.53 13.8087L1895.1 21.4792M1877.53 13.8087L1921.98 13.8087M1810.58 6.42077L1860.62 6.42076M1810.58 6.42077L1760.55 6.42077M1810.58 6.42077L1795.18 -0.699572M1775.59 13.8087L1760.55 6.42077M1775.59 13.8087L1791.2 21.4792M1843.15 21.4792L1895.1 21.4792M1843.15 21.4792L1791.2 21.4792M1860.62 6.42076L1844.31 -0.699576M1860.62 6.42076L1910.65 6.42076M1895.1 21.4792L1913.35 29.4501M1895.1 21.4792L1921.98 21.4792M1921.98 13.8087L1922.14 13.8087M1921.98 13.8087L1921.98 11.1073M1921.98 13.8087L1921.98 21.4792M1760.55 6.42077L1746.05 -0.699567M1795.18 -0.699572L1844.31 -0.699576M1795.18 -0.699572L1746.05 -0.699567M1795.18 -0.699572L1780.33 -7.5673M1844.31 -0.699576L1828.58 -7.56731M1844.31 -0.699576L1893.44 -0.69958M1910.65 6.42076L1893.44 -0.69958M1910.65 6.42076L1921.98 11.1073M1910.65 6.42076L1921.98 6.42076M1765.99 -14.1957L1813.41 -14.1958M1765.99 -14.1957L1752.15 -20.5955M1765.99 -14.1957L1718.58 -14.1957M1765.99 -14.1957L1780.33 -7.5673M1813.41 -14.1958L1798.75 -20.5955M1813.41 -14.1958L1828.58 -7.56731M1813.41 -14.1958L1860.82 -14.1958M1752.15 -20.5955L1798.75 -20.5955M1752.15 -20.5955L1738.78 -26.7786M1752.15 -20.5955L1705.56 -20.5955M1718.58 -14.1957L1705.56 -20.5955M1718.58 -14.1957L1732.07 -7.5673M1780.33 -7.5673L1828.58 -7.56731M1780.33 -7.5673L1732.07 -7.5673M1798.75 -20.5955L1845.35 -20.5955M1798.75 -20.5955L1784.59 -26.7786M1828.58 -7.56731L1876.84 -7.56731M1738.78 -26.7786L1784.59 -26.7786M1738.78 -26.7786L1692.97 -26.7786M1705.56 -20.5955L1692.97 -26.7786M1845.35 -20.5955L1860.82 -14.1958M1845.35 -20.5955L1891.94 -20.5956M1845.35 -20.5955L1830.4 -26.7786M1784.59 -26.7786L1830.4 -26.7786M1876.84 -7.56731L1860.82 -14.1958M1876.84 -7.56731L1893.44 -0.69958M1876.84 -7.56731L1921.98 -7.56732M1860.82 -14.1958L1908.23 -14.1958M1908.23 -14.1958L1891.94 -20.5956M1908.23 -14.1958L1921.98 -8.79016M1908.23 -14.1958L1921.98 -14.1958M1891.94 -20.5956L1876.21 -26.7786M1891.94 -20.5956L1921.98 -20.5956M1830.4 -26.7786L1876.21 -26.7786M1830.4 -26.7786L1815.95 -32.7568M1893.44 -0.69958L1921.98 -0.699583M1921.98 -8.79016L1921.98 -14.1958M1921.98 -8.79016L1921.98 -7.56732L1921.98 -0.699583M1921.98 -14.1958L1921.98 -20.5956M1876.21 -26.7786L1861 -32.7568M1876.21 -26.7786L1921.98 -26.7786M1921.98 -20.5956L1921.98 -26.7786M1815.95 -32.7568L1861 -32.7568M1861 -32.7568L1906.05 -32.7568M1921.98 11.1073L1921.98 6.42076M1921.98 6.42076L1921.98 -0.699583M1746.05 -0.699567L1732.07 -7.5673M1746.05 -0.699567L1696.92 -0.699563M1732.07 -7.5673L1683.82 -7.56729M1913.35 29.4501L1921.98 33.2173M1913.35 29.4501L1921.98 29.4501M1921.98 21.4792L1921.98 29.4501M1921.98 33.2173L1921.98 29.4501M1807.43 29.4501L1791.2 21.4792M1807.43 29.4501L1754.46 29.4501M1791.2 21.4792L1739.25 21.4792M1683.82 -7.56729L1696.92 -0.699563M1647.16 -26.7786L1692.97 -26.7786M1647.16 -26.7786L1635.75 -32.7568M1692.97 -26.7786L1680.8 -32.7568M1635.75 -32.7568L1680.8 -32.7568M1549.54 -0.69955L1539.05 -7.56728M1549.54 -0.69955L1500.41 -0.699546M1539.05 -7.56728L1490.8 -7.56728M1739.25 21.4792L1754.46 29.4501M1595.57 29.4501L1583.4 21.4792M1595.57 29.4501L1542.61 29.4501M1583.4 21.4792L1531.45 21.4792M1803.88 55.3452L1821.74 64.708M1803.88 55.3452L1860.14 55.3452M1860.14 55.3452L1879.2 64.708M1821.74 64.708L1879.2 64.708M1879.2 64.708L1899.08 74.4758M1879.2 64.708L1921.98 64.708M1921.98 55.3452L1921.98 57.927M1921.98 57.927L1921.98 64.708M1899.08 74.4758L1919.84 84.6742M1899.08 74.4758L1921.98 74.4758M1649.4 64.708L1635.1 55.3453M1649.4 64.708L1591.95 64.708M1635.1 55.3453L1578.84 55.3453M1880.19 95.336L1901.48 106.49M1880.19 95.336L1921.98 95.336M1919.84 84.6742L1921.98 85.7266M1919.84 84.6742L1921.98 84.6742M1921.98 74.4758L1921.98 64.708M1921.98 74.4758L1921.98 84.6742M1922.28 64.708L1921.98 64.708M1921.98 85.7266L1922.5 85.9822M1921.98 85.7266L1921.98 84.6742M1921.98 85.7266L1921.98 95.336M1901.48 106.49L1921.98 106.49M1901.48 106.49L1921.98 117.234M1921.98 95.336L1921.98 106.49M1921.98 106.49L1921.98 117.234M1713.18 106.49L1696.16 95.3361M1713.18 106.49L1650.42 106.49M1713.18 106.49L1731.02 118.173M1696.16 95.3361L1634.81 95.3361M1921.98 153.239L1922.18 153.35M1921.98 153.239L1921.98 143.278M1921.98 153.239L1921.98 156.792M1769.35 143.278L1701.9 143.278M1769.35 143.278L1789.98 156.792M1490.8 -7.56728L1500.41 -0.699546M1463.92 -26.7786L1509.73 -26.7786M1463.92 -26.7786L1455.55 -32.7568M1509.73 -26.7786L1508.57 -27.538L1506.27 -29.0434L1500.6 -32.7568M1455.55 -32.7568L1500.6 -32.7568M1353.03 -0.699533L1346.04 -7.56727M1353.03 -0.699533L1303.9 -0.699529M1346.04 -7.56727L1297.78 -7.56726M1531.45 21.4792L1542.61 29.4501M1383.71 29.4502L1375.6 21.4792M1383.71 29.4502L1330.75 29.4502M1375.6 21.4792L1323.65 21.4792M1578.84 55.3453L1591.95 64.708M1419.6 64.708L1410.07 55.3453M1419.6 64.708L1362.15 64.708M1410.07 55.3453L1353.81 55.3453M1634.81 95.3361L1650.42 106.49M1462.12 106.49L1450.77 95.3361M1462.12 106.49L1399.36 106.49M1450.77 95.3361L1389.42 95.3361M1701.9 143.278L1720.81 156.792M1720.81 156.792L1789.98 156.792M1513.32 156.793L1499.57 143.278M1513.32 156.793L1444.15 156.793M1499.57 143.278L1432.12 143.278M1783.81 201.808L1807.2 218.517M1783.81 201.808L1858.7 201.808M1858.7 201.808L1884.21 218.517L1921.98 218.517M1858.7 201.808L1921.98 201.808M1807.2 218.517L1884.21 218.517L1911.21 236.202M1921.98 201.808L1921.98 218.517M1911.21 236.202L1921.98 236.202M1911.21 236.202L1921.98 243.258L1921.98 254.951M1576.14 218.517L1559.13 201.808M1921.98 218.517L1921.98 236.202M1559.13 201.808L1484.24 201.808M1886.05 274.865L1915.7 296.052M1886.05 274.865L1921.98 274.865M1921.98 254.951L1921.98 274.865M1921.98 236.202L1921.98 243.256M1828.82 296.052L1915.7 296.052M1828.82 296.052L1741.94 296.052M1915.7 296.052L1921.98 300.54M1915.7 296.052L1921.98 296.052M1921.98 274.865L1921.98 296.052M1741.94 296.052L1655.06 296.052M1921.98 300.54L1921.98 296.052M1921.98 300.54L1921.98 318.644L1921.98 342.776L1921.98 368.624L1921.98 369.28L1921.98 396.368M1655.06 296.052L1633.49 274.865M1633.49 274.865L1549.31 274.865M1921.15 368.624L1921.98 368.624M1921.15 368.624L1921.98 369.28M1728.92 368.622L1632.8 368.622M1728.92 368.622L1757.16 396.368M1249.53 -7.56726L1297.78 -7.56726M1297.78 -7.56726L1297.03 -8.40889L1291.88 -14.1957M1297.78 -7.56726L1299.29 -5.87498L1303.9 -0.699529M1291.88 -14.1957L1287.59 -19.0154L1286.18 -20.5955M1280.67 -26.7785L1326.48 -26.7785M1280.67 -26.7785L1275.35 -32.7567M1326.48 -26.7785L1324.18 -29.0434L1320.4 -32.7568M1275.35 -32.7567L1320.4 -32.7568M1156.51 -0.699516L1155.63 -2.44112L1153.02 -7.56725M1156.51 -0.699516L1107.38 -0.699512M1153.02 -7.56725L1104.76 -7.56724M1323.65 21.4792L1330.75 29.4502M1171.86 29.4502L1171.34 28.4366L1170.83 27.4275L1167.8 21.4792M1171.86 29.4502L1118.89 29.4502M1167.8 21.4792L1115.85 21.4792M1353.81 55.3453L1362.15 64.708M1189.8 64.708L1185.04 55.3453M1189.8 64.708L1132.35 64.708M1185.04 55.3453L1128.78 55.3453M1389.42 95.3361L1399.36 106.49M1211.06 106.49L1205.39 95.3361M1211.06 106.49L1148.3 106.49M1205.39 95.3361L1144.04 95.3361M1432.12 143.278L1444.15 156.793M1236.66 156.793L1229.78 143.278M1236.66 156.793L1167.49 156.793M1229.78 143.278L1162.34 143.278M1484.24 201.808L1499.12 218.517M1499.12 218.518L1576.14 218.518M1268.07 218.518L1345.09 218.518L1334.46 201.809M1259.57 201.808L1184.68 201.808M1259.57 201.808L1268.07 218.517M1549.31 274.865L1568.17 296.052L1481.29 296.052M1481.29 296.052L1394.41 296.052M1568.17 296.055L1655.06 296.055M1296.75 274.865L1286.61 254.951M1296.75 274.865L1212.56 274.865M1632.8 368.622L1536.69 368.622L1440.57 368.622M1632.8 368.622L1657.51 396.368M1609.79 342.776L1702.61 342.776M1440.57 368.622L1344.46 368.622M1657.51 396.368L1757.16 396.368M1358.58 396.368L1344.46 368.622M1358.58 396.368L1258.93 396.368M1344.46 368.622L1248.34 368.622M1743.87 493.338L1631.89 493.338M1743.87 493.338L1777.61 531.227M1743.87 493.338L1855.85 493.338M1820.34 458.452L1855.85 493.338M1820.34 458.452L1921.98 458.452M1855.85 493.338L1894.41 531.227M1855.85 493.338L1921.98 493.338M1631.89 493.338L1519.91 493.338M1519.91 493.338L1407.92 493.338M1777.61 531.227L1894.41 531.227M1894.41 531.227L1921.98 531.227M1894.41 531.227L1921.98 558.315M1921.98 493.338L1921.98 531.227M1921.98 572.526L1921.98 558.315M1921.98 572.526L1921.98 617.713L1921.98 667.37L1921.98 693.34L1921.98 722.189M1427.21 531.227L1407.92 493.338M1427.21 531.227L1310.4 531.227M1921.98 531.227L1921.98 558.315M1407.92 493.338L1390.17 458.452M1407.92 493.338L1295.94 493.338M1898.85 667.37L1921.98 693.34M1898.85 667.37L1921.98 667.37M1806.58 722.19L1665.48 722.19M1806.58 722.19L1921.98 722.189M1665.48 722.19L1524.39 722.19M1921.98 722.189L1921.98 722.385L-1.97866 722.385L-1.97866 722.189M1496.49 667.37L1471.22 617.711M1496.49 667.37L1362.37 667.369M1496.49 667.37L1524.39 722.189L1383.29 722.189M1056.51 -7.56724L1056.72 -6.7226L1056.94 -5.87495L1057.16 -5.02137L1057.37 -4.16478L1058.03 -1.57257L1058.26 -0.699507M1056.51 -7.56724L1104.76 -7.56724M1056.51 -7.56724L1008.25 -7.56724M1058.26 -0.699507L1107.38 -0.699512M1058.26 -0.699507L1009.13 -0.699503M1104.76 -7.56724L1105.09 -6.72261L1105.41 -5.87496L1105.74 -5.02138L1106.06 -4.16479L1107.38 -0.699512M1008.25 -7.56724L1009.13 -0.699503M1008.25 -7.56724L960 -7.56723M1097.43 -26.7785L1051.62 -26.7785M1097.43 -26.7785L1097.14 -27.5379L1096.57 -29.0434L1096 -30.5383L1095.71 -31.2812L1095.15 -32.7567M1097.43 -26.7785L1143.24 -26.7785M1051.62 -26.7785L1005.81 -26.7785M1107.38 -0.699512L1110.1 6.42083M1143.24 -26.7785L1140.58 -32.0212L1140.2 -32.7567M1095.15 -32.7567L1140.2 -32.7567M1009.13 -0.699503L960 -0.699499L960 6.42084L960 13.8088M1110.1 6.42083L1112.92 13.8087M1112.92 13.8087L1113.64 15.6983L1114.74 18.5686L1115.85 21.4792M960 -7.56723L911.745 -7.56869M960 -7.56723L960 -14.1972M960 -7.56723L960 -0.701004L910.872 -0.701M1115.85 21.4792L1063.9 21.4792M1115.85 21.4792L1118.89 29.4502M1063.9 21.4792L1011.95 21.4792M1011.95 21.4792L960 21.4792M1125.35 46.3623L1128.34 54.2017L1128.78 55.3453M960 29.4502L960 21.4792M960 29.4502L907.036 29.4502M960 21.4792L960 13.8088M960 21.4792L908.05 21.4792M1128.78 55.3453L1072.52 55.3453M1128.78 55.3453L1132.35 64.708M1072.52 55.3453L1073.7 59.9766L1073.99 61.1516L1074.9 64.708M1072.52 55.3453L1016.26 55.3453M1074.9 64.708L1132.35 64.708M1074.9 64.708L1017.45 64.708M1016.26 55.3453L1016.55 57.649L1017.15 62.3311L1017.45 64.708M1016.26 55.3453L960 55.3453M1132.35 64.708L1136.08 74.4759M1017.45 64.708L960 64.708M1136.08 74.4759L1139.97 84.6743M1139.97 84.6743L1143 92.6258L1144.04 95.3361M960 64.708L960 55.3453M960 64.708L902.551 64.708M960 64.708L960 74.4759M960 55.3453L960 46.3623M960 55.3453L903.74 55.3453M1144.04 95.3361L1148.3 106.49M1157.43 130.421L1162.34 143.278M960 106.49L960 95.3361M960 106.49L897.234 106.49M960 95.3361L960 84.6743M960 95.3361L898.654 95.3361M1162.34 143.278L1167.49 156.793M1098.33 156.793L1167.49 156.793M1098.33 156.793L1029.16 156.793M1029.16 156.793L960 156.793M1178.64 185.996L1184.68 201.808M960 156.793L960 143.278M960 156.793L890.835 156.793M960 143.278L960 130.421M960 143.278L892.554 143.278M1184.68 201.808L1109.78 201.808M1184.68 201.808L1191.05 218.517M1109.78 201.808L1114.03 218.517M1109.78 201.808L1034.89 201.808M1114.03 218.517L1191.05 218.517M1114.03 218.517L1037.02 218.517M1034.89 201.808L1037.02 218.517M1034.89 201.808L960 201.808M1191.05 218.517L1268.07 218.517M1037.02 218.517L960 218.517M1204.96 254.951L1212.56 274.865M1204.96 254.951L1286.61 254.951M960 218.517L960 201.808M960 218.517L882.983 218.517M960 201.808L960 185.996M960 201.808L885.108 201.808M1212.56 274.865L1128.37 274.865M1212.56 274.865L1220.65 296.052L1133.76 296.052M1128.37 274.865L1133.76 296.052M1128.37 274.865L1044.19 274.865M1133.76 296.052L1046.88 296.053M1044.19 274.865L960 274.865M960 274.865L875.813 274.865M1238.48 342.779L1248.34 368.624M1331.31 342.778L1344.46 368.624M1248.34 368.622L1258.93 396.368M960 396.368L960 368.622L863.885 368.622M960 396.368L860.356 396.368M1282.63 458.454L1295.94 493.338M1295.94 493.338L1310.4 531.227M960 531.227L960 493.338M960 531.227L843.198 531.227M1071.98 493.34L960 493.34M1362.37 667.369L1343.41 617.712L1471.22 617.711M1362.37 667.369L1383.29 722.189M1242.19 722.189L1383.29 722.189M1242.19 722.189L1101.1 722.189M1101.1 722.189L960 722.189M960 722.189L960 667.369M960 722.189L818.903 722.189M960 667.369L960 617.712M960 667.369L825.878 667.369M861.743 -0.700996L910.872 -0.701M861.743 -0.700996L812.616 -0.700991M911.745 -7.56869L912.589 -14.1972M911.745 -7.56869L911.637 -6.72405L911.53 -5.87645L911.42 -5.02282L910.872 -0.701M912.589 -14.1972L913.403 -20.597M912.589 -14.1972L960 -14.1972M913.403 -20.597L913.502 -21.3818L913.602 -22.1622L913.701 -22.9395L914.19 -26.78M913.403 -20.597L960 -20.597M960 -14.1972L960 -20.597M914.19 -26.78L868.379 -26.78M914.19 -26.78L960 -26.78M914.19 -26.78L914.478 -29.0448L914.574 -29.7938L914.95 -32.7582M960 -20.597L960 -26.78M868.379 -26.78L868.572 -27.5394L869.335 -30.5397L869.901 -32.7582M868.379 -26.78L822.568 -26.78M910.872 -0.701L909.966 6.41934M960 -26.78L1005.81 -26.78L1005.52 -29.0448L1005.43 -29.7938L1005.33 -30.5397L1005.24 -31.2827L1005.14 -32.0227L1005.05 -32.7582M960 -26.78L960 -32.7582M812.616 -0.700991L763.487 -0.700987M909.966 6.41934L960 6.41934M766.981 -7.56721L718.727 -7.56721M766.981 -7.56721L764.372 -2.44108L763.487 -0.699482M908.05 21.4792L907.036 29.4502M748.143 29.4502L752.2 21.4793M748.143 29.4502L695.179 29.4502M752.2 21.4793L700.249 21.4793M903.74 55.3453L903.449 57.649L902.853 62.3311L902.551 64.708M960 74.4759L960 84.6743M730.202 64.7081L734.965 55.3453M730.202 64.7081L672.751 64.7081M734.965 55.3453L678.708 55.3453M898.654 95.3361L897.234 106.49M708.938 106.49L714.615 95.3361M708.938 106.49L646.173 106.49M714.615 95.3361L653.269 95.3361M892.554 143.278L890.835 156.793M683.34 156.793L690.217 143.278M683.34 156.793L614.175 156.793M690.217 143.278L622.771 143.278M885.108 201.808L882.983 218.517M651.929 218.517L660.431 201.808M651.929 218.517L574.906 218.517M660.431 201.808L585.534 201.808M875.813 274.865L873.118 296.053L786.237 296.053M786.237 296.053L699.354 296.053M623.255 274.865L539.067 274.865M867.173 342.779L863.885 368.624M863.885 368.622L860.356 396.368M561.418 396.368L575.535 368.622L479.432 368.622M561.418 396.368L461.773 396.368M852.458 458.454L848.018 493.338M848.018 493.338L843.198 531.227M848.018 493.338L960 493.338M492.8 531.227L512.077 493.338M492.8 531.227L375.99 531.227M624.055 493.34L512.077 493.34M825.878 667.369L832.196 617.712L960 617.712M825.878 667.369L818.903 722.189M677.807 722.189L818.903 722.189M677.807 722.189L536.714 722.189M536.714 722.189L395.614 722.189M423.513 667.369L289.391 667.37M423.513 667.369L395.614 722.191L254.514 722.191M718.727 -7.56721L714.359 -0.699477M730.948 -26.7785L776.757 -26.7785M730.948 -26.7785L733.811 -31.2812L734.749 -32.7567M714.359 -0.699477L763.487 -0.699482M776.757 -26.7785L777.144 -27.5379L777.911 -29.0433L779.8 -32.7567M734.749 -32.7567L779.8 -32.7567M566.979 -0.699464L573.957 -7.5672M566.979 -0.699464L517.851 -0.69946M573.957 -7.5672L525.712 -7.56719M700.249 21.4793L695.179 29.4502M536.286 29.4502L543.398 22.4599L544.4 21.4793M536.286 29.4502L483.322 29.4502M544.4 21.4793L492.452 21.4793M678.708 55.3453L672.751 64.7081M500.406 64.7081L509.938 55.3453M500.406 64.7081L442.95 64.7081M509.938 55.3453L453.671 55.3454M653.269 95.3361L646.173 106.49M457.882 106.49L469.232 95.3362M457.882 106.49L395.106 106.49M469.232 95.3362L407.886 95.3362M622.771 143.278L614.175 156.793M406.683 156.793L420.438 143.278M406.683 156.793L337.516 156.793M420.438 143.278L352.983 143.279M585.534 201.808L574.906 218.517M343.853 218.517L360.87 201.808M343.853 218.517L266.839 218.517M360.87 201.808L285.969 201.808M539.067 274.865L525.592 296.053L438.713 296.053M438.713 296.053L351.82 296.053M286.504 274.865L202.325 274.865M495.861 342.78L479.432 368.624M479.432 368.622L461.773 396.368M162.849 396.368L191.083 368.622L94.9665 368.622L63.204 396.368M162.849 396.368L63.204 396.368M422.283 458.454L400.092 493.338M400.092 493.338L375.99 531.227M400.092 493.338L512.077 493.338M25.5862 531.227L64.153 493.338M25.5862 531.227L-1.97868 531.227M25.5862 531.227L-1.97868 558.315M176.137 493.34L64.153 493.34M289.391 667.37L254.514 722.191M113.428 722.191L254.514 722.191M113.428 722.191L-1.97866 722.189M-1.97866 722.189L-1.97867 693.34M-1.97867 693.34L-1.97867 667.37M525.712 -7.56719L517.851 -0.69946M547.702 -26.7785L548.571 -27.5379L554.547 -32.7567M547.702 -26.7785L593.516 -26.7785M593.516 -26.7785L595.822 -29.0433L599.601 -32.7567M554.547 -32.7567L599.601 -32.7567M370.455 -0.699447L380.949 -7.56718M370.455 -0.699447L321.328 -0.699443M380.949 -7.56718L332.691 -7.56718M492.452 21.4793L483.322 29.4502M324.429 29.4502L336.594 21.4793M324.429 29.4502L271.465 29.4503M336.594 21.4793L284.646 21.4793M453.671 55.3454L442.95 64.7081M270.609 64.7081L284.9 55.3454M270.609 64.7081L213.153 64.7081M284.9 55.3454L228.634 55.3454M407.886 95.3362L395.106 106.49M206.817 106.49L223.848 95.3362M206.817 106.49L144.054 106.49M223.848 95.3362L162.502 95.3362M352.983 143.279L337.516 156.793M130.017 156.793L150.658 143.279M130.017 156.793L60.8511 156.793M150.658 143.279L83.2025 143.279M285.969 201.808L266.839 218.517M35.786 218.517L61.2922 201.808M35.786 218.517L-1.97871 218.517M61.2922 201.808L-1.97871 201.808M202.325 274.865L178.062 296.053L91.1832 296.053M91.1832 296.053L4.30422 296.053M4.30422 296.053L-1.9787 296.053M4.30422 296.053L-1.9787 300.54M-1.9787 300.54L-1.9787 296.056L-1.9787 274.865M-1.9787 369.28L-1.97869 396.368M63.204 396.368L29.0084 426.226M63.204 396.368L-1.97869 396.368M29.0084 426.226L-1.97869 426.226M29.0084 426.226L-1.97869 453.295M-1.97869 426.226L-1.97869 453.295M-1.97869 426.226L-1.97869 396.368M-1.97869 453.295L-1.97869 458.453M64.153 493.338L-1.97868 493.338M-1.97869 458.453L-1.97868 493.338M-1.97868 493.338L-1.97868 531.227M-1.97868 531.227L-1.97868 558.315M332.691 -7.56718L321.328 -0.699443M364.466 -26.7785L365.723 -27.5379L374.345 -32.7567M364.466 -26.7785L410.279 -26.7785M410.279 -26.7785L411.428 -27.5379L419.396 -32.7567M374.345 -32.7567L419.396 -32.7567M173.945 -0.69943L187.928 -7.56716M173.945 -0.69943L124.817 -0.699426M187.928 -7.56716L139.669 -7.56716M284.646 21.4793L271.465 29.4503M112.572 29.4503L128.801 21.4793M112.572 29.4503L59.6078 29.4503M128.801 21.4793L76.8527 21.4793M228.634 55.3454L213.153 64.7081M40.7991 64.7081L59.8619 55.3454M40.7991 64.7081L-1.97872 64.7081M59.8619 55.3454L3.60903 55.3454M162.502 95.3362L144.054 106.49M-1.97872 95.3362L-1.97872 85.7268M83.2025 143.279L60.8511 156.793M-1.97872 143.279L-1.97871 153.239M-1.97871 153.239L-2.17927 153.35M-1.97871 153.239L-1.97871 156.793M60.8511 156.793L37.3368 171.012M60.8511 156.793L-1.97871 156.793M37.3368 171.012L12.5524 185.996M37.3368 171.012L-1.97871 171.012M12.5524 185.996L-1.97871 185.996M12.5524 185.996L-1.97871 194.786M-1.97871 171.012L-1.97871 185.996M-1.97871 171.012L-1.97871 156.793M-1.97871 185.996L-1.97871 194.786M-1.97871 194.786L-1.97871 201.808M-1.97871 201.808L-1.97871 218.517M-1.97871 236.202L-1.97871 218.517M139.669 -7.56716L124.817 -0.699426M181.217 -26.7784L227.029 -26.7785M181.217 -26.7784L194.157 -32.7567M227.029 -26.7785L239.194 -32.7567M194.157 -32.7567L239.194 -32.7567M-1.97873 -0.699415L-1.97873 -7.56715M-1.97873 -7.56715L-1.97873 -8.78999M76.8527 21.4793L59.6078 29.4503M6.64361 29.4503L59.6078 29.4503M6.64361 29.4503L-1.97872 33.2175M6.64361 29.4503L-1.97872 29.4503M-1.97873 21.4793L-1.97872 29.4503M59.6078 29.4503L41.6814 37.7382M41.6814 37.7382L23.0329 46.3624M41.6814 37.7382L-1.97872 37.7382M23.0329 46.3624L3.60903 55.3454M23.0329 46.3624L-1.97872 46.3624M-1.97872 37.7382L-1.97872 46.3624M-1.97872 37.7382L-1.97872 33.2175M-1.97872 33.2175L-1.97872 29.4503M3.60903 55.3454L-1.97872 57.9272M3.60903 55.3454L-1.97872 55.3454M-1.97872 46.3624L-1.97872 55.3454M-1.97872 57.9272L-1.97872 64.7081M-1.97872 57.9272L-1.97872 55.3454M-1.97872 74.476L-1.97872 84.6744M-1.97872 74.476L-1.97872 64.7081M-1.97872 64.7081L-2.28616 64.7081M-1.97872 84.6744L-1.97872 85.7268M-1.97872 85.7268L-2.50009 85.9824M-1.97873 -14.1956L-1.97873 -8.78999M-1.97873 -14.1956L-1.97873 -20.5954M43.7935 -26.7784L59.0063 -32.7566M43.7935 -26.7784L-1.97873 -26.7784M-1.97873 -20.5954L-1.97873 -26.7784M59.0063 -32.7566L13.9561 -32.7566M-1.97873 -26.7784L-2.01887 -26.7784L-1.97873 -26.7934M-1.97873 -26.7784L-1.97873 -26.7934M960 -32.7567L914.95 -32.7567M13.9561 -32.7566L-1.97873 -26.7934M13.9561 -32.7566L-1.97873 -32.7566M-1.97873 -26.7934L-1.97873 -32.7566M1906.05 -32.7568L1921.98 -26.7936M1906.05 -32.7568L1921.98 -32.7568M1921.98 -26.7936L1921.98 -32.7568M1921.98 -26.7936L1922.02 -26.7786L1921.98 -26.7786M1921.98 -26.7936L1921.98 -26.7786" stroke="url(#paint0_linear_113_3193)" stroke-miterlimit="10" stroke-linecap="round" stroke-linejoin="round"/>
<defs>
<linearGradient id="paint0_linear_113_3193" x1="960" y1="-44.1377" x2="960" y2="493.289" gradientUnits="userSpaceOnUse">
<stop stop-color="#CED2DF" stop-opacity="0"/>
<stop offset="1" stop-color="#E3E3E3"/>
</linearGradient>
</defs>
</svg>
