<svg width="107" height="96" viewBox="0 0 107 96" fill="none" xmlns="http://www.w3.org/2000/svg">
<path d="M78.7627 4.57422V17.168H90.0254V92.8555H103.952V4.57422H78.7627ZM106.952 95.8555H87.0254V20.168H75.7627V1.57422H106.952V95.8555Z" fill="url(#paint0_linear_113_2928)"/>
<path d="M65.9717 47.5645C65.9717 33.5976 63.5904 22.6983 58.8271 14.8672C54.291 7.20276 46.5347 3.25126 35.5586 3.01172L34.4863 3C22.9417 3 14.7877 6.95557 10.0244 14.8672C5.3419 22.6983 3 33.5976 3 47.5645L3.00684 48.8799C3.1486 62.3808 5.4883 73.0023 10.0244 80.7451C14.6388 88.4098 22.4352 92.3621 33.4141 92.6016L34.4863 92.6133C46.0311 92.6133 54.1447 88.6569 58.8271 80.7451C63.4414 73.0024 65.8206 62.3807 65.9648 48.8799L65.9717 47.5645ZM49.4092 47.5645C49.4092 41.1456 48.9715 35.8216 48.1328 31.5518L48.1279 31.5264L48.124 31.501C47.3964 27.4262 45.9063 24.3071 43.7764 21.9775L43.7627 21.9619L43.748 21.9463C41.8965 19.8636 38.995 18.5938 34.4863 18.5938C29.9773 18.5938 27.0752 19.8634 25.2236 21.9463L25.1963 21.9775C23.0582 24.3161 21.5288 27.4457 20.7236 31.5234C19.96 35.8107 19.5635 41.1455 19.5635 47.5645L19.5684 48.8027C19.6119 54.5181 19.9589 59.3376 20.5898 63.2881L20.7295 64.1211C21.4598 68.2838 22.9531 71.4342 25.0732 73.7539C27.0102 75.7888 29.9811 77.0186 34.4863 77.0186V80.0186L34.0127 80.0146C29.1589 79.9291 25.4412 78.5176 22.8604 75.7803C20.4386 73.1314 18.7975 69.7019 17.9365 65.4922L17.7744 64.6396C17.0175 60.3255 16.6157 55.0532 16.5684 48.8232L16.5635 47.5645C16.5635 41.0251 16.9671 35.4947 17.7744 30.9736C18.6625 26.4526 20.398 22.7788 22.9814 19.9531C25.5649 17.0468 29.4002 15.5938 34.4863 15.5938L34.959 15.5986C39.8104 15.6865 43.4875 17.1378 45.9902 19.9531C48.5737 22.7788 50.2698 26.4526 51.0771 30.9736C51.9652 35.4947 52.4092 41.0251 52.4092 47.5645L52.4043 48.8232C52.357 55.0532 51.9551 60.3255 51.1982 64.6396L51.0361 65.4922C50.1704 69.7021 48.4878 73.1313 45.9902 75.7803C43.4068 78.6058 39.5724 80.0185 34.4863 80.0186V77.0186C39.0205 77.0185 41.9314 75.7738 43.7764 73.7559L43.8076 73.7227C45.994 71.4038 47.5163 68.2639 48.2432 64.1211C49.0104 59.7481 49.4092 54.2425 49.4092 47.5645ZM68.9648 48.9072C68.8181 62.6961 66.3919 73.9053 61.4082 82.2725L61.4092 82.2734C56.044 91.3388 46.7775 95.6133 34.4863 95.6133C22.3856 95.6133 13.1912 91.472 7.71191 82.7139L7.4541 82.293L7.44434 82.2773L7.43555 82.2617C2.3779 73.6287 1.91706e-05 61.9678 0 47.5645C0 33.3207 2.37832 21.8089 7.44922 13.3281L7.4541 13.3203C12.9004 4.27394 22.1934 0 34.4863 0C46.7635 3.04632e-05 56.0227 4.26441 61.3906 13.3086C66.5519 21.7942 68.9717 33.3141 68.9717 47.5645L68.9648 48.9072Z" fill="url(#paint1_linear_113_2928)"/>
<defs>
<linearGradient id="paint0_linear_113_2928" x1="75.7627" y1="48.7148" x2="106.952" y2="48.7148" gradientUnits="userSpaceOnUse">
<stop stop-color="#2E99DB"/>
<stop offset="0.5" stop-color="#2C8BCA"/>
<stop offset="1"/>
</linearGradient>
<linearGradient id="paint1_linear_113_2928" x1="0" y1="47.8066" x2="68.9717" y2="47.8066" gradientUnits="userSpaceOnUse">
<stop stop-color="#2E99DB"/>
<stop offset="0.5" stop-color="#2C8BCA"/>
<stop offset="1"/>
</linearGradient>
</defs>
</svg>
