<svg width="142" height="96" viewBox="0 0 142 96" fill="none" xmlns="http://www.w3.org/2000/svg">
<path d="M65.9717 47.5645C65.9717 33.5976 63.5904 22.6983 58.8271 14.8672C54.291 7.20276 46.5347 3.25126 35.5586 3.01172L34.4863 3C22.9417 3 14.7877 6.95557 10.0244 14.8672C5.3419 22.6983 3 33.5976 3 47.5645L3.00684 48.8799C3.1486 62.3808 5.4883 73.0023 10.0244 80.7451C14.6388 88.4098 22.4352 92.3621 33.4141 92.6016L34.4863 92.6133C46.0311 92.6133 54.1447 88.6569 58.8271 80.7451C63.4414 73.0024 65.8206 62.3807 65.9648 48.8799L65.9717 47.5645ZM49.4092 47.5645C49.4092 41.1456 48.9715 35.8216 48.1328 31.5518L48.1279 31.5264L48.124 31.501C47.3964 27.4262 45.9063 24.3071 43.7764 21.9775L43.7627 21.9619L43.748 21.9463C41.8965 19.8636 38.995 18.5938 34.4863 18.5938C29.9773 18.5938 27.0752 19.8634 25.2236 21.9463L25.1963 21.9775C23.0582 24.3161 21.5288 27.4457 20.7236 31.5234C19.96 35.8107 19.5635 41.1455 19.5635 47.5645L19.5684 48.8027C19.6119 54.5181 19.9589 59.3376 20.5898 63.2881L20.7295 64.1211C21.4598 68.2838 22.9531 71.4342 25.0732 73.7539C27.0102 75.7888 29.9811 77.0186 34.4863 77.0186V80.0186L34.0127 80.0146C29.1589 79.9291 25.4412 78.5176 22.8604 75.7803C20.4386 73.1314 18.7975 69.7019 17.9365 65.4922L17.7744 64.6396C17.0175 60.3255 16.6157 55.0532 16.5684 48.8232L16.5635 47.5645C16.5635 41.0251 16.9671 35.4947 17.7744 30.9736C18.6625 26.4526 20.398 22.7788 22.9814 19.9531C25.5649 17.0468 29.4002 15.5938 34.4863 15.5938L34.959 15.5986C39.8104 15.6865 43.4875 17.1378 45.9902 19.9531C48.5737 22.7788 50.2698 26.4526 51.0771 30.9736C51.9652 35.4947 52.4092 41.0251 52.4092 47.5645L52.4043 48.8232C52.357 55.0532 51.9551 60.3255 51.1982 64.6396L51.0361 65.4922C50.1704 69.7021 48.4878 73.1313 45.9902 75.7803C43.4068 78.6058 39.5724 80.0185 34.4863 80.0186V77.0186C39.0205 77.0185 41.9314 75.7738 43.7764 73.7559L43.8076 73.7227C45.994 71.4038 47.5163 68.2639 48.2432 64.1211C49.0104 59.7481 49.4092 54.2425 49.4092 47.5645ZM68.9648 48.9072C68.8181 62.6961 66.3919 73.9053 61.4082 82.2725L61.4092 82.2734C56.044 91.3388 46.7775 95.6133 34.4863 95.6133C22.3856 95.6133 13.1912 91.472 7.71191 82.7139L7.4541 82.293L7.44434 82.2773L7.43555 82.2617C2.3779 73.6287 1.91706e-05 61.9678 0 47.5645C0 33.3207 2.37832 21.8089 7.44922 13.3281L7.4541 13.3203C12.9004 4.27394 22.1934 0 34.4863 0C46.7635 3.04632e-05 56.0227 4.26441 61.3906 13.3086C66.5519 21.7942 68.9717 33.3141 68.9717 47.5645L68.9648 48.9072Z" fill="url(#paint0_linear_113_2936)"/>
<path d="M138.026 80.7451H99.6387L105.088 75.9014C111.385 70.3309 116.552 65.4461 120.589 61.248C124.449 57.2368 127.777 52.7646 130.572 47.8311L131.124 46.8379C134.018 41.5977 135.51 36.1679 135.601 30.5488L135.604 30.0049C135.604 22.1839 133.256 15.8782 128.559 11.0879L128.097 10.6289C123.326 5.93633 116.737 3.51678 108.329 3.37012L107.51 3.36328C99.3558 3.36328 92.6145 5.82532 87.2861 10.75L86.8018 11.2109C81.8697 16.0355 79.2864 22.9054 79.0518 31.8213H92.3721C92.5335 26.7351 93.9058 22.6981 96.4893 19.7109C99.1534 16.6431 102.868 15.1094 107.631 15.1094L108.089 15.1133C112.779 15.1964 116.218 16.5678 118.408 19.2266C120.749 21.9715 121.921 25.7664 121.921 30.6104L121.916 31.0488C121.826 35.5852 120.333 40.1219 117.439 44.6582L116.871 45.5342C113.981 49.905 110.416 54.1337 106.178 58.2207L104.435 59.8828C100.187 63.8916 94.6729 68.8274 87.8916 74.6904L79.1729 82.1982V92.25H138.026V80.7451ZM138.6 30.5996C138.501 36.7332 136.868 42.6354 133.757 48.2734C130.726 53.8309 127.056 58.8517 122.75 63.3271C118.737 67.5002 113.658 72.3075 107.527 77.7451H141.026V95.25H76.1729V80.8232L85.9336 72.417C93.6638 65.7335 99.712 60.2848 104.096 56.0605C108.468 51.8441 112.065 47.5033 114.91 43.0439C117.648 38.7525 118.921 34.622 118.921 30.6104C118.921 26.5075 117.994 23.5972 116.444 21.5684L116.126 21.1738L116.109 21.1543L116.093 21.1338C114.598 19.3194 112.022 18.1094 107.631 18.1094C103.571 18.1094 100.749 19.3822 98.7549 21.6787C96.74 24.0109 95.517 27.3202 95.3711 31.917L95.2783 34.8213H75.9717L76.0527 31.7422C76.3098 21.9751 79.2493 14.0861 85.251 8.5459C91.2034 3.04499 98.7023 0.363281 107.51 0.363281C116.861 0.363301 124.555 2.9488 130.182 8.47266C135.865 13.9726 138.604 21.2594 138.604 30.0049L138.6 30.5996Z" fill="url(#paint1_linear_113_2936)"/>
<defs>
<linearGradient id="paint0_linear_113_2936" x1="0" y1="47.8066" x2="68.9717" y2="47.8066" gradientUnits="userSpaceOnUse">
<stop stop-color="#2E99DB"/>
<stop offset="0.5" stop-color="#2C8BCA"/>
<stop offset="1"/>
</linearGradient>
<linearGradient id="paint1_linear_113_2936" x1="75.9717" y1="47.8066" x2="141.026" y2="47.8066" gradientUnits="userSpaceOnUse">
<stop stop-color="#2E99DB"/>
<stop offset="0.5" stop-color="#2C8BCA"/>
<stop offset="1"/>
</linearGradient>
</defs>
</svg>
