<svg width="141" height="97" viewBox="0 0 141 97" fill="none" xmlns="http://www.w3.org/2000/svg">
<path d="M95.2295 64.7881L95.4385 67.5625C95.7076 71.1271 97.0485 73.9113 99.4365 76.1084C101.736 78.146 104.985 79.3193 109.522 79.3193V82.3193L109.049 82.3154C104.185 82.2348 100.306 80.9042 97.4121 78.3232C94.4253 75.5784 92.7702 72.0667 92.4473 67.7881H79.127C79.5307 76.1842 82.5174 82.6431 88.0879 87.1641C93.5627 91.4656 100.477 93.683 108.831 93.8174L109.644 93.8242C115.431 93.8242 120.423 92.839 124.619 90.8691L125.023 90.6758C129.302 88.496 132.531 85.5486 134.711 81.835C136.754 78.3534 137.84 74.4108 137.968 70.0068L137.98 69.1201C137.98 63.1459 136.649 58.2612 133.984 54.4668C131.32 50.5918 127.607 47.9278 122.844 46.4746V45.9902C126.557 44.7792 129.746 42.3969 132.41 38.8447C134.991 35.4035 136.322 31.2806 136.402 26.4756L136.406 26.0088C136.406 21.6492 135.357 17.7332 133.258 14.2617C131.29 11.0072 128.435 8.39135 124.693 6.41406L123.934 6.02734C120.074 4.13519 115.539 3.13 110.331 3.01172L109.28 3C101.046 3 94.2639 5.09876 88.9355 9.29688C83.6879 13.495 80.8223 19.3483 80.3379 26.8564H93.7793L93.8818 26.2275C94.4542 23.1147 95.9134 20.4982 98.2598 18.3789C100.762 16.0377 104.275 14.8672 108.796 14.8672L109.646 14.8809C113.837 15.0181 117.106 16.1843 119.452 18.3789C121.955 20.6394 123.207 23.7078 123.207 27.583L123.201 28.0029C123.096 32.3095 121.362 35.4792 117.999 37.5127C114.82 39.4805 110.258 40.5619 104.312 40.7559L103.104 40.7822H99.835V52.166H102.983C110.41 52.1661 115.9 53.3771 119.452 55.7988C123.085 58.1401 124.902 62.1368 124.902 67.7881L124.898 68.1865C124.818 72.2851 123.487 75.6641 120.906 78.3232L120.652 78.5693C118.003 81.0695 114.293 82.3193 109.522 82.3193V79.3193C113.897 79.3193 116.828 78.1504 118.772 76.2129C120.814 74.099 121.902 71.3757 121.902 67.7881C121.902 62.8042 120.344 59.9423 117.827 58.3203L117.795 58.2998L117.763 58.2773C115.13 56.4823 110.783 55.3182 104.307 55.1797L102.983 55.166H96.835V37.7822H103.104C109.391 37.7006 113.707 36.6415 116.42 34.9619L116.447 34.9463C118.903 33.4611 120.207 31.1977 120.207 27.583C120.207 24.4169 119.218 22.2099 117.441 20.6055L117.422 20.5879L117.403 20.5703C115.624 18.906 112.903 17.8672 108.796 17.8672C104.787 17.8672 102.098 18.8974 100.31 20.5703L100.29 20.5879L100.271 20.6055C98.2981 22.3879 97.136 24.572 96.749 27.2803L96.3818 29.8564H77.1377L77.3438 26.6631C77.8753 18.4246 81.0723 11.7454 87.0615 6.9541L87.0791 6.94043C93.0425 2.24204 100.521 0 109.28 0C115.097 4.75792e-06 120.306 1.00628 124.819 3.125L125.254 3.33301C129.676 5.5006 133.167 8.49018 135.594 12.335L135.825 12.71C138.228 16.6847 139.406 21.1445 139.406 26.0088L139.402 26.5283C139.312 31.8838 137.816 36.6379 134.811 40.6455C133.187 42.8106 131.355 44.6234 129.318 46.0576C132.149 47.7441 134.541 49.9807 136.457 52.7676H136.456C139.553 57.191 140.98 62.7181 140.98 69.1201L140.967 70.0967C140.825 74.9531 139.622 79.3956 137.299 83.3535C134.796 87.6168 131.113 90.9398 126.385 93.3486L126.365 93.3594L126.345 93.3691C121.564 95.7145 115.963 96.8242 109.644 96.8242C100.689 96.8242 93.0134 94.6069 86.8281 89.9785L86.2344 89.5225L86.1973 89.4932C79.8485 84.3405 76.5668 77.0198 76.1299 67.9316L75.9785 64.7881H95.2295Z" fill="url(#paint0_linear_113_2943)"/>
<path d="M65.9717 48.0488C65.9717 34.082 63.5904 23.1827 58.8271 15.3516C54.291 7.68714 46.5347 3.73564 35.5586 3.49609L34.4863 3.48438C22.9417 3.48438 14.7877 7.43994 10.0244 15.3516C5.3419 23.1827 3 34.082 3 48.0488L3.00684 49.3643C3.1486 62.8651 5.4883 73.4867 10.0244 81.2295C14.6388 88.8941 22.4352 92.8465 33.4141 93.0859L34.4863 93.0977C46.0311 93.0976 54.1447 89.1413 58.8271 81.2295C63.4414 73.4867 65.8206 62.8651 65.9648 49.3643L65.9717 48.0488ZM49.4092 48.0488C49.4092 41.6299 48.9715 36.306 48.1328 32.0361L48.1279 32.0107L48.124 31.9854C47.3964 27.9106 45.9063 24.7915 43.7764 22.4619L43.7627 22.4463L43.748 22.4307C41.8965 20.348 38.995 19.0781 34.4863 19.0781C29.9773 19.0781 27.0752 20.3477 25.2236 22.4307L25.1963 22.4619C23.0582 24.8005 21.5288 27.9301 20.7236 32.0078C19.96 36.2951 19.5635 41.6298 19.5635 48.0488L19.5684 49.2871C19.6119 55.0025 19.9589 59.822 20.5898 63.7725L20.7295 64.6055C21.4598 68.7682 22.9531 71.9186 25.0732 74.2383C27.0102 76.2731 29.9811 77.5029 34.4863 77.5029V80.5029L34.0127 80.499C29.1589 80.4134 25.4412 79.002 22.8604 76.2646C20.4386 73.6157 18.7975 70.1863 17.9365 65.9766L17.7744 65.124C17.0175 60.8099 16.6157 55.5375 16.5684 49.3076L16.5635 48.0488C16.5635 41.5095 16.9671 35.9791 17.7744 31.458C18.6625 26.937 20.398 23.2632 22.9814 20.4375C25.5649 17.5312 29.4002 16.0781 34.4863 16.0781L34.959 16.083C39.8104 16.1709 43.4875 17.6222 45.9902 20.4375C48.5737 23.2632 50.2698 26.937 51.0771 31.458C51.9652 35.979 52.4092 41.5095 52.4092 48.0488L52.4043 49.3076C52.357 55.5375 51.9551 60.8099 51.1982 65.124L51.0361 65.9766C50.1704 70.1865 48.4878 73.6157 45.9902 76.2646C43.4068 79.0902 39.5724 80.5029 34.4863 80.5029V77.5029C39.0205 77.5029 41.9314 76.2582 43.7764 74.2402L43.8076 74.207C45.994 71.8881 47.5163 68.7483 48.2432 64.6055C49.0104 60.2325 49.4092 54.7268 49.4092 48.0488ZM68.9648 49.3916C68.8181 63.1805 66.3919 74.3897 61.4082 82.7568L61.4092 82.7578C56.044 91.8232 46.7775 96.0976 34.4863 96.0977C22.3856 96.0977 13.1912 91.9564 7.71191 83.1982L7.4541 82.7773L7.44434 82.7617L7.43555 82.7461C2.3779 74.1131 1.91706e-05 62.4521 0 48.0488C0 33.805 2.37832 22.2933 7.44922 13.8125L7.4541 13.8047C12.9004 4.75832 22.1934 0.484375 34.4863 0.484375C46.7635 0.484405 56.0227 4.74878 61.3906 13.793C66.5519 22.2785 68.9717 33.7985 68.9717 48.0488L68.9648 49.3916Z" fill="url(#paint1_linear_113_2943)"/>
<defs>
<linearGradient id="paint0_linear_113_2943" x1="75.9785" y1="48.4121" x2="140.98" y2="48.4121" gradientUnits="userSpaceOnUse">
<stop stop-color="#2E99DB"/>
<stop offset="0.5" stop-color="#2C8BCA"/>
<stop offset="1"/>
</linearGradient>
<linearGradient id="paint1_linear_113_2943" x1="0" y1="48.291" x2="68.9717" y2="48.291" gradientUnits="userSpaceOnUse">
<stop stop-color="#2E99DB"/>
<stop offset="0.5" stop-color="#2C8BCA"/>
<stop offset="1"/>
</linearGradient>
</defs>
</svg>
