<svg width="52" height="64" viewBox="0 0 52 64" fill="none" xmlns="http://www.w3.org/2000/svg">
<path d="M19.4292 31.1226C11.055 31.1226 4.25098 24.2214 4.25098 15.7275C4.25098 7.2337 11.055 0.33252 19.4292 0.33252C27.8034 0.33252 34.6074 7.2337 34.6074 15.7275C34.6074 24.2214 27.8034 31.1226 19.4292 31.1226ZM19.4292 2.05779C12.0036 2.05779 5.9847 8.19596 5.9847 15.6944C5.9847 23.1929 12.0364 29.3309 19.4292 29.3309C26.8221 29.3309 32.8737 23.1929 32.8737 15.6944C32.8737 8.19596 26.8221 2.05779 19.4292 2.05779Z" fill="url(#paint0_linear_113_3003)"/>
<path d="M19.4311 31.4537C10.8934 31.4537 3.92578 24.3865 3.92578 15.7268C3.92578 7.0671 10.8934 0 19.4311 0C27.9689 0 34.9365 7.03392 34.9365 15.7268C34.9365 24.4197 27.9689 31.4537 19.4311 31.4537ZM19.4311 0.663621C11.2532 0.663621 4.58001 7.43207 4.58001 15.7268C4.58001 24.0216 11.2532 30.7901 19.4311 30.7901C27.6091 30.7901 34.2822 24.0216 34.2822 15.7268C34.2822 7.43207 27.6091 0.663621 19.4311 0.663621ZM19.4311 29.6953C11.842 29.6953 5.6595 23.4244 5.6595 15.7268C5.6595 8.02929 11.842 1.75848 19.4311 1.75848C27.0202 1.75848 33.2028 8.02929 33.2028 15.7268C33.2028 23.4244 27.0202 29.6953 19.4311 29.6953ZM19.4311 2.38889C12.2018 2.38889 6.28102 8.36108 6.28102 15.7268C6.28102 23.0926 12.1691 29.0649 19.4311 29.0649C26.6931 29.0649 32.5812 23.0926 32.5812 15.7268C32.5812 8.36108 26.6931 2.38889 19.4311 2.38889Z" fill="url(#paint1_linear_113_3003)"/>
<path d="M38.4343 63.0737H1.1757C0.717735 63.0737 0.325195 62.6755 0.325195 62.211V49.1716C0.325195 38.2889 9.05922 29.397 19.8214 29.397C30.5835 29.397 39.3176 38.2557 39.3176 49.1716V62.211C39.3176 62.6755 38.925 63.0737 38.467 63.0737H38.4343ZM2.0262 61.3152H37.5511V49.1384C37.5511 39.1847 29.5695 31.1222 19.7887 31.1222C10.0079 31.1222 2.0262 39.2179 2.0262 49.1384V61.3152Z" fill="url(#paint2_linear_113_3003)"/>
<path d="M38.4363 63.3715H1.17762C0.523386 63.3715 0 62.8406 0 62.177V49.1377C0 38.0559 8.89758 29.0645 19.7906 29.0645C30.6836 29.0645 39.5812 38.0891 39.5812 49.1377V62.177C39.5812 62.8406 39.0578 63.3715 38.4035 63.3715H38.4363ZM19.8233 29.6949C9.25741 29.6949 0.654234 38.4209 0.654234 49.1377V62.177C0.654234 62.4757 0.883215 62.7079 1.17762 62.7079H38.4363C38.7307 62.7079 38.9596 62.4757 38.9596 62.177V49.1377C38.9596 38.4209 30.3565 29.6949 19.7906 29.6949H19.8233ZM37.5858 61.6463H2.06084C1.89728 61.6463 1.73372 61.5135 1.73372 61.3145V49.1377C1.73372 39.0181 9.84622 30.7897 19.8233 30.7897C29.8004 30.7897 37.9129 39.0181 37.9129 49.1377V61.3145C37.9129 61.4804 37.782 61.6463 37.5858 61.6463ZM2.35524 60.9827H37.2586V49.1377C37.2586 39.3831 29.4405 31.4533 19.8233 31.4533C10.206 31.4533 2.38795 39.3831 2.38795 49.1377V60.9827H2.35524Z" fill="url(#paint3_linear_113_3003)"/>
<path d="M33.1038 34.3739C29.4401 34.3739 26.0053 32.914 23.4211 30.2928C23.094 29.961 23.094 29.397 23.4211 29.0652C23.7482 28.7334 24.3043 28.7334 24.6315 29.0652C26.8886 31.3546 29.898 32.6154 33.1038 32.6154C39.7115 32.6154 45.109 27.1408 45.109 20.4386C45.109 13.7365 39.7115 8.26189 33.1038 8.26189C32.515 8.26189 31.9262 8.2951 31.3373 8.39464C30.8794 8.461 30.4214 8.1292 30.356 7.6647C30.2906 7.20019 30.6177 6.73572 31.0757 6.66937C31.7299 6.56983 32.4168 6.53662 33.0711 6.53662C40.6275 6.53662 46.7773 12.7743 46.7773 20.4386C46.7773 28.103 40.6275 34.3407 33.0711 34.3407L33.1038 34.3739Z" fill="url(#paint4_linear_113_3003)"/>
<path d="M33.1047 34.7053C29.3429 34.7053 25.8427 33.2124 23.1931 30.5249C22.7351 30.0604 22.7351 29.2972 23.1931 28.8327C23.651 28.3682 24.4034 28.3682 24.8614 28.8327C27.0531 31.0557 29.9971 32.3165 33.1047 32.3165C39.5489 32.3165 44.7828 27.0079 44.7828 20.4716C44.7828 13.9354 39.5489 8.62669 33.1047 8.62669C32.5159 8.62669 31.9598 8.65989 31.4037 8.75943C31.1093 8.82579 30.7822 8.75944 30.5532 8.56036C30.2915 8.36129 30.128 8.09579 30.0953 7.764C30.0625 7.43221 30.0953 7.13363 30.3242 6.8682C30.5205 6.60277 30.7822 6.43683 31.1093 6.40365C31.7963 6.30411 32.4832 6.23779 33.1702 6.23779C40.9228 6.23779 47.2035 12.6082 47.2035 20.4716C47.2035 28.335 40.9228 34.7053 33.1702 34.7053H33.1047ZM24.0109 29.1313C24.0109 29.1313 23.7492 29.1977 23.6183 29.2972C23.4221 29.4963 23.4221 29.8612 23.6183 30.0603C26.1371 32.6151 29.5064 34.0418 33.072 34.0418C40.4649 34.0418 46.4511 27.9369 46.4511 20.4716C46.4511 13.0063 40.4322 6.90141 33.072 6.90141C32.4178 6.90141 31.7635 6.93452 31.1093 7.03406C30.9785 7.03406 30.8476 7.13359 30.7495 7.23312C30.6514 7.36584 30.6186 7.49854 30.6514 7.63125C30.6514 7.76397 30.7495 7.89674 30.8803 7.99628C30.9785 8.09581 31.142 8.12899 31.2729 8.09581C31.8617 7.99627 32.4832 7.96307 33.072 7.96307C39.8761 7.96307 45.4043 13.5704 45.4043 20.4716C45.4043 27.3729 39.8761 32.9801 33.072 32.9801C29.7681 32.9801 26.6932 31.6861 24.3707 29.3304C24.2726 29.2308 24.1417 29.1645 23.9782 29.1645L24.0109 29.1313Z" fill="url(#paint5_linear_113_3003)"/>
<path d="M50.1468 63.0741H38.436C37.978 63.0741 37.5855 62.6759 37.5855 62.2114C37.5855 61.7469 37.978 61.3487 38.436 61.3487H49.2963V50.4992C49.2963 41.6404 42.3287 34.4074 33.7255 34.4074C32.8423 34.4074 31.9591 34.4738 31.1086 34.6397C30.6506 34.706 30.1927 34.4075 30.1272 33.9429C30.0618 33.4784 30.3562 33.0139 30.8142 32.9475C31.7628 32.7816 32.7442 32.6821 33.7255 32.6821C43.2446 32.6821 50.9973 40.6783 50.9973 50.4992V62.2114C50.9973 62.6759 50.6048 63.0741 50.1468 63.0741Z" fill="url(#paint6_linear_113_3003)"/>
<path d="M50.1466 63.3715H38.4358C37.7816 63.3715 37.2582 62.8406 37.2582 62.177C37.2582 61.5135 37.7816 60.9826 38.4358 60.9826H48.969V50.4648C48.969 41.7719 42.1322 34.7048 33.7253 34.7048C32.8748 34.7048 31.9916 34.7712 31.1738 34.9371C30.5196 35.0366 29.9308 34.6053 29.7999 33.9749C29.7345 33.6763 29.7999 33.3445 29.9962 33.0791C30.1925 32.8136 30.4542 32.6478 30.7486 32.5814C31.7299 32.4155 32.7113 32.3159 33.7253 32.3159C43.4407 32.3159 51.3242 40.4448 51.3242 50.4648V62.177C51.3242 62.8406 50.8008 63.3715 50.1466 63.3715ZM38.4358 61.6463C38.1414 61.6463 37.9124 61.8784 37.9124 62.177C37.9124 62.4756 38.1414 62.7079 38.4358 62.7079H50.1466C50.441 62.7079 50.67 62.4756 50.67 62.177V50.4648C50.67 40.8097 43.0482 32.9463 33.7253 32.9463C32.7767 32.9463 31.7953 33.0459 30.8794 33.1786C30.7486 33.1786 30.6177 33.2782 30.5196 33.4109C30.4542 33.5436 30.4214 33.6763 30.4214 33.809C30.4869 34.1076 30.7486 34.3067 31.043 34.2404C31.9262 34.0745 32.8094 34.0081 33.7253 34.0081C42.4921 34.0081 49.6232 41.3739 49.6232 50.4317V61.2812C49.6232 61.4471 49.4924 61.613 49.2961 61.613H38.4358V61.6463Z" fill="url(#paint7_linear_113_3003)"/>
<defs>
<linearGradient id="paint0_linear_113_3003" x1="4.25098" y1="15.7276" x2="34.6074" y2="15.7276" gradientUnits="userSpaceOnUse">
<stop stop-color="#2E99DB"/>
<stop offset="0.5" stop-color="#2C8BCA"/>
<stop offset="1"/>
</linearGradient>
<linearGradient id="paint1_linear_113_3003" x1="3.92578" y1="15.7269" x2="34.9365" y2="15.7269" gradientUnits="userSpaceOnUse">
<stop stop-color="#2E99DB"/>
<stop offset="0.5" stop-color="#2C8BCA"/>
<stop offset="1"/>
</linearGradient>
<linearGradient id="paint2_linear_113_3003" x1="0.325195" y1="46.2353" x2="39.3176" y2="46.2353" gradientUnits="userSpaceOnUse">
<stop stop-color="#2E99DB"/>
<stop offset="0.5" stop-color="#2C8BCA"/>
<stop offset="1"/>
</linearGradient>
<linearGradient id="paint3_linear_113_3003" x1="0" y1="46.218" x2="39.5812" y2="46.218" gradientUnits="userSpaceOnUse">
<stop stop-color="#2E99DB"/>
<stop offset="0.5" stop-color="#2C8BCA"/>
<stop offset="1"/>
</linearGradient>
<linearGradient id="paint4_linear_113_3003" x1="23.1758" y1="20.4552" x2="46.7773" y2="20.4552" gradientUnits="userSpaceOnUse">
<stop stop-color="#2E99DB"/>
<stop offset="0.5" stop-color="#2C8BCA"/>
<stop offset="1"/>
</linearGradient>
<linearGradient id="paint5_linear_113_3003" x1="22.8496" y1="20.4716" x2="47.2035" y2="20.4716" gradientUnits="userSpaceOnUse">
<stop stop-color="#2E99DB"/>
<stop offset="0.5" stop-color="#2C8BCA"/>
<stop offset="1"/>
</linearGradient>
<linearGradient id="paint6_linear_113_3003" x1="30.1182" y1="47.8781" x2="50.9973" y2="47.8781" gradientUnits="userSpaceOnUse">
<stop stop-color="#2E99DB"/>
<stop offset="0.5" stop-color="#2C8BCA"/>
<stop offset="1"/>
</linearGradient>
<linearGradient id="paint7_linear_113_3003" x1="29.7754" y1="47.8437" x2="51.3242" y2="47.8437" gradientUnits="userSpaceOnUse">
<stop stop-color="#2E99DB"/>
<stop offset="0.5" stop-color="#2C8BCA"/>
<stop offset="1"/>
</linearGradient>
</defs>
</svg>
