<svg width="70" height="70" viewBox="0 0 70 70" fill="none" xmlns="http://www.w3.org/2000/svg">
<path d="M34.8776 69.4019C15.8457 69.4019 0.355469 53.9117 0.355469 34.8798C0.355469 15.8479 15.8457 0.357666 34.8776 0.357666C53.9095 0.357666 69.3998 15.8479 69.3998 34.8798C69.3998 53.9117 53.9095 69.4019 34.8776 69.4019ZM34.8776 2.21793C16.8474 2.21793 2.21573 16.8854 2.21573 34.8798C2.21573 52.8743 16.8832 67.5417 34.8776 67.5417C52.8721 67.5417 67.5395 52.8743 67.5395 34.8798C67.5395 16.8854 52.8721 2.21793 34.8776 2.21793Z" fill="url(#paint0_linear_113_2969)"/>
<path d="M34.8799 69.7598C15.6333 69.7598 0 54.1264 0 34.8799C0 15.6333 15.6333 0 34.8799 0C54.1264 0 69.7598 15.6333 69.7598 34.8799C69.7598 54.1264 54.1264 69.7598 34.8799 69.7598ZM34.8799 0.715485C16.0269 0.715485 0.679711 16.0269 0.679711 34.8799C0.679711 53.7329 16.0269 69.0443 34.8799 69.0443C53.7329 69.0443 69.0443 53.6971 69.0443 34.8799C69.0443 16.0626 53.7329 0.715485 34.8799 0.715485ZM34.8799 67.8995C16.6708 67.8995 1.86026 53.089 1.86026 34.8799C1.86026 16.6708 16.6708 1.86026 34.8799 1.86026C53.089 1.86026 67.8995 16.6708 67.8995 34.8799C67.8995 53.089 53.089 67.8995 34.8799 67.8995ZM34.8799 2.57575C17.0643 2.57575 2.57575 17.0643 2.57575 34.8799C2.57575 52.6955 17.0643 67.184 34.8799 67.184C52.6955 67.184 67.184 52.6955 67.184 34.8799C67.184 17.0643 52.6955 2.57575 34.8799 2.57575Z" fill="url(#paint1_linear_113_2969)"/>
<path d="M34.7711 69.0801C34.306 69.0801 33.9125 68.7581 33.841 68.2931C33.7694 67.7922 34.0914 67.2914 34.5922 67.2199C47.9003 64.9303 57.917 51.0499 57.917 34.8799C57.917 18.71 48.4726 5.43775 35.4508 2.71891C34.95 2.61158 34.628 2.11074 34.7353 1.60991C34.8427 1.10907 35.3435 0.787098 35.8443 0.89442C49.7247 3.82791 59.8131 18.1018 59.8131 34.8799C59.8131 51.6581 49.1166 66.6117 34.95 69.0443C34.8784 69.0443 34.8427 69.0443 34.8069 69.0443L34.7711 69.0801Z" fill="url(#paint2_linear_113_2969)"/>
<path d="M34.7717 69.4371C34.1278 69.4371 33.5912 68.9721 33.4839 68.3639C33.4123 68.042 33.4839 67.6842 33.6985 67.398C33.9132 67.1118 34.1993 66.933 34.5213 66.8614C47.6505 64.6076 57.5599 50.8703 57.5599 34.8792C57.5599 18.8881 48.2229 5.759 35.3799 3.07593C34.7002 2.93284 34.2351 2.25313 34.3782 1.53764C34.4498 1.21567 34.6644 0.893705 34.9506 0.714834C35.2368 0.535963 35.5945 0.464414 35.9165 0.535963C49.9758 3.50522 60.1714 17.9222 60.1714 34.8792C60.1714 51.8362 49.3676 66.933 34.9864 69.4014C34.9148 69.4014 34.8433 69.4014 34.7717 69.4014V69.4371ZM35.6303 1.21567C35.6303 1.21567 35.4157 1.21567 35.3083 1.323C35.1653 1.39454 35.0937 1.53764 35.0579 1.68074C34.9864 2.00271 35.201 2.32467 35.523 2.36045C48.7237 5.11507 58.2754 18.8166 58.2754 34.8792C58.2754 50.9419 48.1155 65.2516 34.6644 67.5411C34.5213 67.5411 34.3782 67.6484 34.2709 67.7915C34.1636 67.9346 34.1278 68.0777 34.1636 68.2208C34.2351 68.5428 34.5213 68.7574 34.8433 68.6859C48.8668 66.289 59.4202 51.7289 59.4202 34.8435C59.4202 17.958 49.4749 4.11339 35.7734 1.21567C35.7376 1.21567 35.7019 1.21567 35.6661 1.21567H35.6303Z" fill="url(#paint3_linear_113_2969)"/>
<path d="M34.8813 69.0801C34.8813 69.0801 34.774 69.0801 34.7382 69.0801C20.6074 66.6475 9.98242 51.9443 9.98242 34.9157C9.98242 17.8872 19.9992 3.79213 33.8081 0.89442C34.3089 0.787098 34.8097 1.10907 34.9171 1.60991C35.0244 2.11074 34.7024 2.61158 34.2016 2.71891C21.2513 5.47352 11.8427 18.9962 11.8427 34.8799C11.8427 50.7637 21.8237 64.9303 35.0602 67.2199C35.561 67.2914 35.9187 67.7922 35.8114 68.2931C35.7399 68.7581 35.3464 69.0801 34.8813 69.0801Z" fill="url(#paint4_linear_113_2969)"/>
<path d="M34.8806 69.4371C34.8806 69.4371 34.7375 69.4371 34.666 69.4371C20.3921 66.9687 9.62402 52.1224 9.62402 34.915C9.62402 17.7076 19.7481 3.50522 33.7359 0.535963C34.4156 0.392866 35.1311 0.822156 35.2742 1.53764C35.4172 2.21735 34.988 2.93284 34.2725 3.07593C21.4653 5.79478 12.164 19.1743 12.164 34.915C12.164 50.6557 22.0019 64.6434 35.0953 66.8972C35.8108 67.0045 36.2758 67.6842 36.1327 68.3997C36.0254 69.0079 35.4888 69.4729 34.8806 69.4729V69.4371ZM33.9863 1.21567C33.9863 1.21567 33.9147 1.21567 33.8432 1.21567C20.1774 4.11339 10.268 18.2442 10.268 34.8792C10.268 51.5142 20.7856 66.3248 34.7375 68.7216C35.1311 68.7932 35.3457 68.5428 35.4172 68.2566C35.4172 68.1135 35.4172 67.9346 35.3099 67.8273C35.2026 67.6842 35.0953 67.6127 34.9164 67.5769C21.5011 65.2873 11.4127 51.2281 11.4127 34.915C11.4127 18.602 21.0002 5.15084 34.1294 2.36045C34.2725 2.36045 34.4156 2.25313 34.4871 2.11003C34.5587 1.96693 34.5944 1.82383 34.5587 1.68074C34.4871 1.39454 34.2725 1.21567 33.9863 1.21567Z" fill="url(#paint5_linear_113_2969)"/>
<path d="M34.8791 22.3581C25.6494 22.3581 16.992 18.7807 10.4453 12.234L11.769 10.9103C17.9221 17.0635 26.1502 20.4621 34.8791 20.4621C43.608 20.4621 52.015 16.992 58.2039 10.6599L59.5276 11.9836C52.9809 18.6733 44.2162 22.3223 34.8791 22.3223V22.3581Z" fill="url(#paint6_linear_113_2969)"/>
<path d="M34.8794 22.7155C25.5781 22.7155 16.8134 19.1023 10.1952 12.4841C10.0521 12.341 10.0521 12.1264 10.1952 11.9833L11.5189 10.6596C11.5189 10.6596 11.8766 10.5165 12.0197 10.6596C18.1371 16.777 26.2221 20.1398 34.8794 20.1398C43.5368 20.1398 51.8007 16.7055 57.9538 10.445C58.0969 10.3019 58.3116 10.3019 58.4547 10.445L59.7783 11.7686C59.7783 11.7686 59.8856 11.9117 59.8856 12.019C59.8856 12.1264 59.8499 12.1979 59.7783 12.2695C53.1601 18.995 44.3238 22.7155 34.8794 22.7155ZM10.9465 12.2695C17.3858 18.5657 25.8643 22.0358 34.8794 22.0358C43.8945 22.0358 52.5877 18.4942 59.0271 12.0548L58.2042 11.232C51.9795 17.4567 43.7157 20.891 34.8794 20.891C26.0432 20.891 17.994 17.564 11.8051 11.4824L10.9822 12.3052L10.9465 12.2695Z" fill="url(#paint7_linear_113_2969)"/>
<path d="M11.557 59.0632L10.2334 57.7395C16.7801 51.0497 25.5448 47.365 34.8818 47.365C44.2189 47.365 52.769 50.9424 59.3157 57.4891L57.992 58.8127C51.8388 52.6596 43.6108 49.261 34.8818 49.261C26.1529 49.261 17.746 52.7311 11.557 59.0632Z" fill="url(#paint8_linear_113_2969)"/>
<path d="M11.5547 59.4206C11.5547 59.4206 11.3758 59.3848 11.3042 59.3133L9.98059 57.9896C9.98059 57.9896 9.83749 57.6319 9.98059 57.4888C16.5988 50.7275 25.4351 47.0427 34.8795 47.0427C44.3239 47.0427 52.9455 50.6559 59.5637 57.2742C59.7068 57.4173 59.7068 57.6319 59.5637 57.775L58.24 59.0986C58.24 59.0986 57.8823 59.2417 57.7392 59.0986C51.6218 52.9813 43.5368 49.6185 34.8795 49.6185C26.2221 49.6185 17.9225 53.0528 11.8051 59.3133C11.7335 59.3848 11.662 59.4206 11.5547 59.4206ZM10.6961 57.7392L11.5189 58.562C17.7436 52.3373 26.0075 48.903 34.8437 48.903C43.6799 48.903 51.7291 52.23 57.9181 58.3116L58.7409 57.4888C52.3015 51.1925 43.823 47.7224 34.8079 47.7224C25.7928 47.7224 17.0997 51.2641 10.6603 57.7392H10.6961Z" fill="url(#paint9_linear_113_2969)"/>
<path d="M68.4682 33.9492H1.28418V35.8095H68.4682V33.9492Z" fill="url(#paint10_linear_113_2969)"/>
<path d="M68.4705 36.1673H1.28645C1.10758 36.1673 0.928711 36.0242 0.928711 35.8096V33.9493C0.928711 33.7704 1.07181 33.5916 1.28645 33.5916H68.4705C68.6494 33.5916 68.8282 33.7346 68.8282 33.9493V35.8096C68.8282 35.9884 68.6851 36.1673 68.4705 36.1673ZM1.6442 35.4876H68.1485V34.307H1.6442V35.4876Z" fill="url(#paint11_linear_113_2969)"/>
<path d="M34.8764 69.4019C34.3756 69.4019 33.9463 68.9727 33.9463 68.4718V1.2878C33.9463 0.786957 34.3756 0.357666 34.8764 0.357666C35.3773 0.357666 35.8066 0.786957 35.8066 1.2878V68.4718C35.8066 68.9727 35.3773 69.4019 34.8764 69.4019Z" fill="url(#paint12_linear_113_2969)"/>
<path d="M34.8787 69.7598C34.1632 69.7598 33.5908 69.1874 33.5908 68.4719V1.28787C33.5908 0.572388 34.1632 0 34.8787 0C35.5942 0 36.1666 0.572388 36.1666 1.28787V68.4719C36.1666 69.1874 35.5942 69.7598 34.8787 69.7598ZM34.8787 0.715485C34.5567 0.715485 34.3063 0.965904 34.3063 1.28787V68.4719C34.3063 68.7939 34.5567 69.0443 34.8787 69.0443C35.2007 69.0443 35.4511 68.7939 35.4511 68.4719V1.28787C35.4511 0.965904 35.2007 0.715485 34.8787 0.715485Z" fill="url(#paint13_linear_113_2969)"/>
<defs>
<linearGradient id="paint0_linear_113_2969" x1="0.355469" y1="34.8798" x2="69.3998" y2="34.8798" gradientUnits="userSpaceOnUse">
<stop stop-color="#2E99DB"/>
<stop offset="0.5" stop-color="#2C8BCA"/>
<stop offset="1"/>
</linearGradient>
<linearGradient id="paint1_linear_113_2969" x1="0" y1="34.8799" x2="69.7598" y2="34.8799" gradientUnits="userSpaceOnUse">
<stop stop-color="#2E99DB"/>
<stop offset="0.5" stop-color="#2C8BCA"/>
<stop offset="1"/>
</linearGradient>
<linearGradient id="paint2_linear_113_2969" x1="33.8311" y1="34.9769" x2="59.8131" y2="34.9769" gradientUnits="userSpaceOnUse">
<stop stop-color="#2E99DB"/>
<stop offset="0.5" stop-color="#2C8BCA"/>
<stop offset="1"/>
</linearGradient>
<linearGradient id="paint3_linear_113_2969" x1="33.457" y1="34.9728" x2="60.1714" y2="34.9728" gradientUnits="userSpaceOnUse">
<stop stop-color="#2E99DB"/>
<stop offset="0.5" stop-color="#2C8BCA"/>
<stop offset="1"/>
</linearGradient>
<linearGradient id="paint4_linear_113_2969" x1="9.98242" y1="34.9769" x2="35.8305" y2="34.9769" gradientUnits="userSpaceOnUse">
<stop stop-color="#2E99DB"/>
<stop offset="0.5" stop-color="#2C8BCA"/>
<stop offset="1"/>
</linearGradient>
<linearGradient id="paint5_linear_113_2969" x1="9.62402" y1="34.9907" x2="36.1586" y2="34.9907" gradientUnits="userSpaceOnUse">
<stop stop-color="#2E99DB"/>
<stop offset="0.5" stop-color="#2C8BCA"/>
<stop offset="1"/>
</linearGradient>
<linearGradient id="paint6_linear_113_2969" x1="10.4453" y1="16.509" x2="59.5276" y2="16.509" gradientUnits="userSpaceOnUse">
<stop stop-color="#2E99DB"/>
<stop offset="0.5" stop-color="#2C8BCA"/>
<stop offset="1"/>
</linearGradient>
<linearGradient id="paint7_linear_113_2969" x1="10.0879" y1="16.5266" x2="59.8856" y2="16.5266" gradientUnits="userSpaceOnUse">
<stop stop-color="#2E99DB"/>
<stop offset="0.5" stop-color="#2C8BCA"/>
<stop offset="1"/>
</linearGradient>
<linearGradient id="paint8_linear_113_2969" x1="10.2334" y1="53.2141" x2="59.3157" y2="53.2141" gradientUnits="userSpaceOnUse">
<stop stop-color="#2E99DB"/>
<stop offset="0.5" stop-color="#2C8BCA"/>
<stop offset="1"/>
</linearGradient>
<linearGradient id="paint9_linear_113_2969" x1="9.91699" y1="53.2317" x2="59.671" y2="53.2317" gradientUnits="userSpaceOnUse">
<stop stop-color="#2E99DB"/>
<stop offset="0.5" stop-color="#2C8BCA"/>
<stop offset="1"/>
</linearGradient>
<linearGradient id="paint10_linear_113_2969" x1="1.28418" y1="34.8793" x2="68.4682" y2="34.8793" gradientUnits="userSpaceOnUse">
<stop stop-color="#2E99DB"/>
<stop offset="0.5" stop-color="#2C8BCA"/>
<stop offset="1"/>
</linearGradient>
<linearGradient id="paint11_linear_113_2969" x1="0.928711" y1="34.8794" x2="68.8282" y2="34.8794" gradientUnits="userSpaceOnUse">
<stop stop-color="#2E99DB"/>
<stop offset="0.5" stop-color="#2C8BCA"/>
<stop offset="1"/>
</linearGradient>
<linearGradient id="paint12_linear_113_2969" x1="33.9463" y1="34.8798" x2="35.8066" y2="34.8798" gradientUnits="userSpaceOnUse">
<stop stop-color="#2E99DB"/>
<stop offset="0.5" stop-color="#2C8BCA"/>
<stop offset="1"/>
</linearGradient>
<linearGradient id="paint13_linear_113_2969" x1="33.5908" y1="34.8799" x2="36.1666" y2="34.8799" gradientUnits="userSpaceOnUse">
<stop stop-color="#2E99DB"/>
<stop offset="0.5" stop-color="#2C8BCA"/>
<stop offset="1"/>
</linearGradient>
</defs>
</svg>
