<svg width="71" height="71" viewBox="0 0 71 71" fill="none" xmlns="http://www.w3.org/2000/svg">
<path d="M35.0671 19.0377C34.5661 19.0377 34.1367 18.6082 34.1367 18.1073V1.28871C34.1367 0.787733 34.5661 0.358398 35.0671 0.358398C35.5681 0.358398 35.9975 0.787733 35.9975 1.28871V18.1073C35.9975 18.6082 35.5681 19.0377 35.0671 19.0377Z" fill="url(#paint0_linear_113_3023)"/>
<path d="M35.0695 19.3949C34.3538 19.3949 33.7812 18.8224 33.7812 18.1067V1.28817C33.7812 0.572493 34.3538 0 35.0695 0C35.7852 0 36.3577 0.572493 36.3577 1.28817V18.1067C36.3577 18.8224 35.7852 19.3949 35.0695 19.3949ZM35.0695 0.715725C34.7474 0.715725 34.4969 0.966118 34.4969 1.28817V18.1067C34.4969 18.4288 34.7474 18.6793 35.0695 18.6793C35.3915 18.6793 35.642 18.4288 35.642 18.1067V1.28817C35.642 0.966118 35.3915 0.715725 35.0695 0.715725Z" fill="url(#paint1_linear_113_3023)"/>
<path d="M35.0671 69.7428C34.5661 69.7428 34.1367 69.3134 34.1367 68.8125V51.9939C34.1367 51.4929 34.5661 51.0635 35.0671 51.0635C35.5681 51.0635 35.9975 51.4929 35.9975 51.9939V68.8125C35.9975 69.3134 35.5681 69.7428 35.0671 69.7428Z" fill="url(#paint2_linear_113_3023)"/>
<path d="M35.0695 70.1001C34.3538 70.1001 33.7812 69.5276 33.7812 68.8119V51.9934C33.7812 51.2777 34.3538 50.7051 35.0695 50.7051C35.7852 50.7051 36.3577 51.2777 36.3577 51.9934V68.8119C36.3577 69.5276 35.7852 70.1001 35.0695 70.1001ZM35.0695 51.4208C34.7474 51.4208 34.4969 51.6713 34.4969 51.9934V68.8119C34.4969 69.134 34.7474 69.3844 35.0695 69.3844C35.3915 69.3844 35.642 69.134 35.642 68.8119V51.9934C35.642 51.6713 35.3915 51.4208 35.0695 51.4208Z" fill="url(#paint3_linear_113_3023)"/>
<path d="M68.8124 35.9987H51.9939C51.4929 35.9987 51.0635 35.5692 51.0635 35.0683C51.0635 34.5673 51.4929 34.1379 51.9939 34.1379H68.8124C69.3134 34.1379 69.7428 34.5673 69.7428 35.0683C69.7428 35.5692 69.3134 35.9987 68.8124 35.9987Z" fill="url(#paint4_linear_113_3023)"/>
<path d="M68.8138 36.3201H51.9953C51.2796 36.3201 50.707 35.7476 50.707 35.0319C50.707 34.3163 51.2796 33.7437 51.9953 33.7437H68.8138C69.5295 33.7437 70.102 34.3163 70.102 35.0319C70.102 35.7476 69.5295 36.3201 68.8138 36.3201ZM51.9953 34.4594C51.6732 34.4594 51.4227 34.7099 51.4227 35.0319C51.4227 35.354 51.6732 35.6045 51.9953 35.6045H68.8138C69.1358 35.6045 69.3863 35.354 69.3863 35.0319C69.3863 34.7099 69.1358 34.4594 68.8138 34.4594H51.9953Z" fill="url(#paint5_linear_113_3023)"/>
<path d="M18.1044 35.9987H1.28586C0.784878 35.9987 0.355469 35.5692 0.355469 35.0683C0.355469 34.5673 0.784878 34.1379 1.28586 34.1379H18.1044C18.6053 34.1379 19.0348 34.5673 19.0348 35.0683C19.0348 35.5692 18.6053 35.9987 18.1044 35.9987Z" fill="url(#paint6_linear_113_3023)"/>
<path d="M18.1067 36.3201H1.28823C0.572544 36.3201 0 35.7476 0 35.0319C0 34.3163 0.572544 33.7437 1.28823 33.7437H18.1067C18.8224 33.7437 19.395 34.3163 19.395 35.0319C19.395 35.7476 18.8224 36.3201 18.1067 36.3201ZM1.28823 34.4594C0.966169 34.4594 0.715681 34.7099 0.715681 35.0319C0.715681 35.354 0.966169 35.6045 1.28823 35.6045H18.1067C18.4288 35.6045 18.6793 35.354 18.6793 35.0319C18.6793 34.7099 18.4288 34.4594 18.1067 34.4594H1.28823Z" fill="url(#paint7_linear_113_3023)"/>
<path d="M47.0547 23.9758C46.8042 23.9758 46.5895 23.8684 46.3748 23.6895C46.017 23.3317 46.017 22.7234 46.3748 22.3655L58.2551 10.4852C58.613 10.1273 59.2213 10.1273 59.5792 10.4852C59.937 10.843 59.937 11.4513 59.5792 11.8092L47.6988 23.6895C47.5199 23.8684 47.2694 23.9758 47.0189 23.9758H47.0547Z" fill="url(#paint8_linear_113_3023)"/>
<path d="M47.0555 24.3331C46.6977 24.3331 46.3756 24.19 46.1609 23.9395C45.6599 23.4385 45.6599 22.6154 46.1609 22.1145L58.0412 10.2341C58.5422 9.73315 59.3652 9.73315 59.8662 10.2341C60.3672 10.7351 60.3672 11.5582 59.8662 12.0592L47.9859 23.9395C47.7354 24.19 47.4133 24.3331 47.0913 24.3331H47.0555ZM58.9358 10.592C58.9358 10.592 58.6495 10.6636 58.5064 10.771L46.6261 22.6512C46.4114 22.8659 46.4114 23.2596 46.6261 23.4743C46.8408 23.689 47.2344 23.689 47.4491 23.4743L59.3294 11.5939C59.5441 11.3792 59.5441 10.9857 59.3294 10.771C59.2221 10.6636 59.0789 10.592 58.9 10.592H58.9358Z" fill="url(#paint9_linear_113_3023)"/>
<path d="M11.1612 59.8672C10.9107 59.8672 10.696 59.7598 10.4813 59.5809C10.1234 59.223 10.1234 58.6147 10.4813 58.2569L22.3616 46.3765C22.7194 46.0187 23.3278 46.0187 23.6856 46.3765C24.0434 46.7344 24.0434 47.3427 23.6856 47.7005L11.8053 59.5809C11.6264 59.7598 11.3759 59.8672 11.1254 59.8672H11.1612Z" fill="url(#paint10_linear_113_3023)"/>
<path d="M11.1639 60.1888C10.806 60.1888 10.484 60.0456 10.2693 59.7951C9.76831 59.2941 9.76831 58.4712 10.2693 57.9702L22.1496 46.0898C22.6506 45.5889 23.4736 45.5889 23.9746 46.0898C24.4756 46.5908 24.4756 47.4138 23.9746 47.9148L12.0943 59.7951C11.8438 60.0456 11.5217 60.1888 11.1997 60.1888H11.1639ZM23.0442 46.4477C23.0442 46.4477 22.7579 46.5192 22.6148 46.6266L10.7345 58.5069C10.5198 58.7216 10.5198 59.1152 10.7345 59.3299C10.9492 59.5446 11.3428 59.5446 11.5575 59.3299L23.4378 47.4497C23.6525 47.235 23.6525 46.8413 23.4378 46.6266C23.3305 46.5192 23.1873 46.4477 23.0084 46.4477H23.0442Z" fill="url(#paint11_linear_113_3023)"/>
<path d="M58.935 59.8672C58.6845 59.8672 58.4698 59.7598 58.2551 59.5809L46.3748 47.7005C46.017 47.3427 46.017 46.7344 46.3748 46.3765C46.7327 46.0187 47.341 46.0187 47.6988 46.3765L59.5792 58.2569C59.937 58.6147 59.937 59.223 59.5792 59.5809C59.4002 59.7598 59.1497 59.8672 58.8993 59.8672H58.935Z" fill="url(#paint12_linear_113_3023)"/>
<path d="M58.9358 60.1885C58.578 60.1885 58.2559 60.0453 58.0412 59.7949L46.1609 47.9145C45.6599 47.4135 45.6599 46.5906 46.1609 46.0896C46.6619 45.5886 47.4849 45.5886 47.9859 46.0896L59.8662 57.9699C60.3672 58.4709 60.3672 59.2939 59.8662 59.7949C59.6157 60.0453 59.2936 60.1885 58.9716 60.1885H58.9358ZM47.0555 46.4475C47.0555 46.4475 46.7692 46.519 46.6261 46.6263C46.4114 46.841 46.4114 47.2347 46.6261 47.4494L58.5064 59.3296C58.7211 59.5443 59.1147 59.5443 59.3294 59.3296C59.5441 59.1149 59.5441 58.7214 59.3294 58.5067L47.4491 46.6263C47.4491 46.6263 47.1986 46.4475 47.0197 46.4475H47.0555Z" fill="url(#paint13_linear_113_3023)"/>
<path d="M23.0415 23.9758C22.791 23.9758 22.5763 23.8684 22.3616 23.6895L10.4813 11.8092C10.1234 11.4513 10.1234 10.843 10.4813 10.4852C10.8391 10.1273 11.4474 10.1273 11.8053 10.4852L23.6856 22.3655C24.0434 22.7234 24.0434 23.3317 23.6856 23.6895C23.5067 23.8684 23.2562 23.9758 23.0057 23.9758H23.0415Z" fill="url(#paint14_linear_113_3023)"/>
<path d="M23.0442 24.3331C22.6864 24.3331 22.3643 24.19 22.1496 23.9395L10.2693 12.0592C9.76831 11.5582 9.76831 10.7351 10.2693 10.2341C10.7703 9.73315 11.5933 9.73315 12.0943 10.2341L23.9746 22.1145C24.4756 22.6154 24.4756 23.4385 23.9746 23.9395C23.7241 24.19 23.402 24.3331 23.08 24.3331H23.0442ZM11.1639 10.592C11.1639 10.592 10.8776 10.6636 10.7345 10.771C10.5198 10.9857 10.5198 11.3792 10.7345 11.5939L22.6148 23.4743C22.8295 23.689 23.2231 23.689 23.4378 23.4743C23.6525 23.2596 23.6525 22.8659 23.4378 22.6512L11.5575 10.771C11.5575 10.771 11.307 10.592 11.1281 10.592H11.1639Z" fill="url(#paint15_linear_113_3023)"/>
<defs>
<linearGradient id="paint0_linear_113_3023" x1="34.1367" y1="9.69804" x2="35.9975" y2="9.69804" gradientUnits="userSpaceOnUse">
<stop stop-color="#2E99DB"/>
<stop offset="0.5" stop-color="#2C8BCA"/>
<stop offset="1"/>
</linearGradient>
<linearGradient id="paint1_linear_113_3023" x1="33.7812" y1="9.69745" x2="36.3577" y2="9.69745" gradientUnits="userSpaceOnUse">
<stop stop-color="#2E99DB"/>
<stop offset="0.5" stop-color="#2C8BCA"/>
<stop offset="1"/>
</linearGradient>
<linearGradient id="paint2_linear_113_3023" x1="34.1367" y1="60.4031" x2="35.9975" y2="60.4031" gradientUnits="userSpaceOnUse">
<stop stop-color="#2E99DB"/>
<stop offset="0.5" stop-color="#2C8BCA"/>
<stop offset="1"/>
</linearGradient>
<linearGradient id="paint3_linear_113_3023" x1="33.7812" y1="60.4026" x2="36.3577" y2="60.4026" gradientUnits="userSpaceOnUse">
<stop stop-color="#2E99DB"/>
<stop offset="0.5" stop-color="#2C8BCA"/>
<stop offset="1"/>
</linearGradient>
<linearGradient id="paint4_linear_113_3023" x1="51.0635" y1="35.0683" x2="69.7428" y2="35.0683" gradientUnits="userSpaceOnUse">
<stop stop-color="#2E99DB"/>
<stop offset="0.5" stop-color="#2C8BCA"/>
<stop offset="1"/>
</linearGradient>
<linearGradient id="paint5_linear_113_3023" x1="50.707" y1="35.0319" x2="70.102" y2="35.0319" gradientUnits="userSpaceOnUse">
<stop stop-color="#2E99DB"/>
<stop offset="0.5" stop-color="#2C8BCA"/>
<stop offset="1"/>
</linearGradient>
<linearGradient id="paint6_linear_113_3023" x1="0.355469" y1="35.0683" x2="19.0348" y2="35.0683" gradientUnits="userSpaceOnUse">
<stop stop-color="#2E99DB"/>
<stop offset="0.5" stop-color="#2C8BCA"/>
<stop offset="1"/>
</linearGradient>
<linearGradient id="paint7_linear_113_3023" x1="0" y1="35.0319" x2="19.395" y2="35.0319" gradientUnits="userSpaceOnUse">
<stop stop-color="#2E99DB"/>
<stop offset="0.5" stop-color="#2C8BCA"/>
<stop offset="1"/>
</linearGradient>
<linearGradient id="paint8_linear_113_3023" x1="46.1064" y1="17.0963" x2="59.8475" y2="17.0963" gradientUnits="userSpaceOnUse">
<stop stop-color="#2E99DB"/>
<stop offset="0.5" stop-color="#2C8BCA"/>
<stop offset="1"/>
</linearGradient>
<linearGradient id="paint9_linear_113_3023" x1="45.7852" y1="17.0957" x2="60.2419" y2="17.0957" gradientUnits="userSpaceOnUse">
<stop stop-color="#2E99DB"/>
<stop offset="0.5" stop-color="#2C8BCA"/>
<stop offset="1"/>
</linearGradient>
<linearGradient id="paint10_linear_113_3023" x1="10.2129" y1="52.9877" x2="23.954" y2="52.9877" gradientUnits="userSpaceOnUse">
<stop stop-color="#2E99DB"/>
<stop offset="0.5" stop-color="#2C8BCA"/>
<stop offset="1"/>
</linearGradient>
<linearGradient id="paint11_linear_113_3023" x1="9.89355" y1="52.9514" x2="24.3503" y2="52.9514" gradientUnits="userSpaceOnUse">
<stop stop-color="#2E99DB"/>
<stop offset="0.5" stop-color="#2C8BCA"/>
<stop offset="1"/>
</linearGradient>
<linearGradient id="paint12_linear_113_3023" x1="46.1064" y1="52.9877" x2="59.8475" y2="52.9877" gradientUnits="userSpaceOnUse">
<stop stop-color="#2E99DB"/>
<stop offset="0.5" stop-color="#2C8BCA"/>
<stop offset="1"/>
</linearGradient>
<linearGradient id="paint13_linear_113_3023" x1="45.7852" y1="52.9512" x2="60.2419" y2="52.9512" gradientUnits="userSpaceOnUse">
<stop stop-color="#2E99DB"/>
<stop offset="0.5" stop-color="#2C8BCA"/>
<stop offset="1"/>
</linearGradient>
<linearGradient id="paint14_linear_113_3023" x1="10.2129" y1="17.0963" x2="23.954" y2="17.0963" gradientUnits="userSpaceOnUse">
<stop stop-color="#2E99DB"/>
<stop offset="0.5" stop-color="#2C8BCA"/>
<stop offset="1"/>
</linearGradient>
<linearGradient id="paint15_linear_113_3023" x1="9.89355" y1="17.0957" x2="24.3503" y2="17.0957" gradientUnits="userSpaceOnUse">
<stop stop-color="#2E99DB"/>
<stop offset="0.5" stop-color="#2C8BCA"/>
<stop offset="1"/>
</linearGradient>
</defs>
</svg>
