<svg width="70" height="69" viewBox="0 0 70 69" fill="none" xmlns="http://www.w3.org/2000/svg">
<path d="M31.3315 68.368C14.2577 68.368 0.360352 54.4707 0.360352 37.3969C0.360352 20.3231 14.2577 6.42578 31.3315 6.42578V8.30283C15.3045 8.30283 2.23739 21.3699 2.23739 37.3969C2.23739 53.4239 15.3045 66.491 31.3315 66.491C47.3585 66.491 60.4256 53.4239 60.4256 37.3969H62.3026C62.3026 54.4707 48.4053 68.368 31.2954 68.368H31.3315Z" fill="url(#paint0_linear_113_3052)"/>
<path d="M31.3321 68.6925C14.0417 68.6925 0 54.6147 0 37.3604C0 20.1061 14.0778 6.02832 31.3321 6.02832C31.5126 6.02832 31.6931 6.17273 31.6931 6.38931V8.26631C31.6931 8.44679 31.5487 8.6273 31.3321 8.6273C15.4856 8.6273 2.59898 21.5139 2.59898 37.3604C2.59898 53.207 15.4856 66.0935 31.3321 66.0935C47.1786 66.0935 60.0652 53.207 60.0652 37.3604C60.0652 37.18 60.2096 36.9994 60.4262 36.9994H62.3032C62.4837 36.9994 62.6642 37.1439 62.6642 37.3604C62.6642 54.6508 48.5864 68.6925 31.3321 68.6925ZM30.9711 6.71417C14.2583 6.89465 0.685841 20.5754 0.685841 37.3604C0.685841 54.1455 14.4388 68.0067 31.3321 68.0067C48.2254 68.0067 61.7618 54.4703 61.9783 37.7214H60.7871C60.6067 53.7845 47.4674 66.8154 31.3321 66.8154C15.1968 66.8154 1.87704 53.604 1.87704 37.3604C1.87704 21.1168 14.908 8.08586 30.9711 7.90537V6.71417Z" fill="url(#paint1_linear_113_3052)"/>
<path d="M68.8358 38.8406H30.3926V0.397461H31.3311C41.366 0.397461 50.7873 4.2959 57.8623 11.3709C64.9373 18.4459 68.8358 27.8672 68.8358 37.9021V38.8406ZM32.2696 36.9275H66.9226C66.6699 27.7589 62.9881 19.2039 56.4906 12.6704C49.9932 6.17294 41.4021 2.49106 32.2335 2.23838V36.8914L32.2696 36.9275Z" fill="url(#paint2_linear_113_3052)"/>
<path d="M68.8373 39.1651H30.3942C30.2137 39.1651 30.0332 39.0207 30.0332 38.8041V0.360991C30.0332 0.180506 30.1776 0 30.3942 0H31.3327C41.4398 0 50.9694 3.93459 58.1166 11.0818C65.2638 18.229 69.1983 27.7585 69.1983 37.8656V38.8041C69.1983 38.9846 69.0539 39.1651 68.8373 39.1651ZM30.719 38.4793H68.4764V37.9017C68.4764 27.9751 64.614 18.6621 57.5751 11.6232C50.5723 4.6204 41.2232 0.758059 31.2966 0.758059H30.719V38.5154V38.4793ZM66.9242 37.2881H32.2712C32.0907 37.2881 31.9102 37.1437 31.9102 36.9271V2.27412C31.9102 2.27412 31.9463 2.09361 32.0185 2.02142C32.0907 1.94922 32.1629 1.91313 32.2712 1.91313C41.512 2.16581 50.2114 5.88378 56.7449 12.4534C63.2784 18.9869 67.0325 27.6863 67.2852 36.9271C67.2852 37.0354 67.2852 37.1076 67.1769 37.1798C67.1047 37.252 67.0325 37.2881 66.9242 37.2881ZM32.6322 36.5662H66.5632C66.2384 27.6502 62.5926 19.2757 56.2395 12.9227C49.9226 6.60574 41.512 2.92383 32.5961 2.63506V36.5662H32.6322Z" fill="url(#paint3_linear_113_3052)"/>
<defs>
<linearGradient id="paint0_linear_113_3052" x1="0.360352" y1="37.3969" x2="62.3026" y2="37.3969" gradientUnits="userSpaceOnUse">
<stop stop-color="#2E99DB"/>
<stop offset="0.5" stop-color="#2C8BCA"/>
<stop offset="1"/>
</linearGradient>
<linearGradient id="paint1_linear_113_3052" x1="0" y1="37.3604" x2="62.6642" y2="37.3604" gradientUnits="userSpaceOnUse">
<stop stop-color="#2E99DB"/>
<stop offset="0.5" stop-color="#2C8BCA"/>
<stop offset="1"/>
</linearGradient>
<linearGradient id="paint2_linear_113_3052" x1="30.3926" y1="19.619" x2="68.8358" y2="19.619" gradientUnits="userSpaceOnUse">
<stop stop-color="#2E99DB"/>
<stop offset="0.5" stop-color="#2C8BCA"/>
<stop offset="1"/>
</linearGradient>
<linearGradient id="paint3_linear_113_3052" x1="30.0332" y1="19.5826" x2="69.1983" y2="19.5826" gradientUnits="userSpaceOnUse">
<stop stop-color="#2E99DB"/>
<stop offset="0.5" stop-color="#2C8BCA"/>
<stop offset="1"/>
</linearGradient>
</defs>
</svg>
