<svg width="70" height="62" viewBox="0 0 70 62" fill="none" xmlns="http://www.w3.org/2000/svg">
<path d="M68.5817 17.4912H23.1199L19.7916 1.06265C19.7208 0.637773 19.3314 0.319092 18.8711 0.319092H1.27408C0.778393 0.319092 0.353516 0.743976 0.353516 1.23967C0.353516 1.73536 0.778393 2.16024 1.27408 2.16024H18.1629L26.3418 42.6298V60.156C26.3418 60.6516 26.7667 61.0765 27.2624 61.0765H51.8345C52.3302 61.0765 52.755 60.6516 52.755 60.156C52.755 59.6603 52.3302 59.2354 51.8345 59.2354H28.183V43.4441H53.4986C53.8172 43.4441 54.1005 43.2671 54.2775 43.0193L69.3252 18.9075C69.5023 18.6242 69.5023 18.2702 69.3252 17.9515C69.1482 17.6328 68.865 17.4558 68.5109 17.4558L68.5817 17.4912ZM52.2947 25.139H39.7609V19.3324H52.2947V25.139ZM52.2947 34.4155H39.7609V26.9802H52.2947V34.4155ZM37.9197 19.3324V25.139H24.6777L23.5093 19.3324H37.9197ZM37.9197 27.0155V34.4509H27.05C27.05 34.4509 26.7313 34.5217 26.5897 34.5925L25.0672 27.0155H37.9197ZM28.0059 41.603L26.9083 36.2566C26.9083 36.2566 26.9791 36.2566 27.05 36.2566H37.9197V41.426C37.9197 41.426 37.9197 41.5322 37.9197 41.603H27.9705H28.0059ZM39.7963 41.4614V36.292H52.3302V41.6384H39.7609C39.7609 41.6384 39.7963 41.5322 39.7963 41.4614ZM54.1713 39.7265V36.292H56.3311L54.1713 39.7265ZM57.4641 34.4155H54.1713V26.9802H62.1023L57.4641 34.4155ZM63.2707 25.1744C63.2707 25.1744 63.1999 25.1744 63.1291 25.1744H54.1713V19.3678H66.8822L63.2353 25.2098L63.2707 25.1744Z" fill="url(#paint0_linear_113_2995)"/>
<path d="M51.835 61.4656H27.2629C26.5548 61.4656 25.9883 60.8991 25.9883 60.1909V42.6648L17.8802 2.54927H1.27463C0.566503 2.54927 0 1.98276 0 1.27463C0 0.566505 0.566503 0 1.27463 0H18.907C19.5089 0 20.04 0.42488 20.1463 1.02679L23.4036 17.1721H68.5468C69.0071 17.1721 69.432 17.42 69.6798 17.8448C69.8923 18.2343 69.8923 18.73 69.6798 19.1549L54.6321 43.2667C54.3843 43.6561 53.9948 43.8686 53.5345 43.8686H28.573V58.9517H51.8704C52.5785 58.9517 53.145 59.5182 53.145 60.2263C53.145 60.9345 52.5785 61.501 51.8704 61.501L51.835 61.4656ZM1.27463 0.672731C0.955974 0.672731 0.708129 0.920562 0.708129 1.23922C0.708129 1.55788 0.955974 1.80574 1.27463 1.80574H18.1635C18.1635 1.80574 18.4822 1.91193 18.5176 2.08897L26.6964 42.5585V60.1555C26.6964 60.4742 26.9797 60.722 27.2984 60.722H51.8704C52.1891 60.722 52.4369 60.4742 52.4369 60.1555C52.4369 59.8369 52.1891 59.589 51.8704 59.589H28.2189C28.0419 59.589 27.8649 59.4474 27.8649 59.235V43.4437C27.8649 43.2666 28.0065 43.0896 28.2189 43.0896H53.5345C53.747 43.0896 53.924 42.9834 54.0302 42.8064L69.0779 18.6946C69.1842 18.5176 69.1842 18.3051 69.0779 18.0927C68.9717 17.9157 68.7947 17.8094 68.5822 17.8094H23.1204C23.1204 17.8094 22.8017 17.7032 22.7663 17.5262L19.4381 1.09759C19.3673 0.814339 19.1549 0.637317 18.8716 0.637317H1.27463V0.672731ZM52.2953 41.9566H39.726C39.726 41.9566 39.5136 41.9212 39.4428 41.815C39.3719 41.7088 39.3365 41.638 39.3719 41.5318L39.726 41.4609H39.4074V41.4255V36.2562C39.4074 36.0791 39.549 35.9021 39.7614 35.9021H52.2953C52.4723 35.9021 52.6494 36.0437 52.6494 36.2562V41.6026C52.6494 41.7796 52.5077 41.9566 52.2953 41.9566ZM40.1155 41.2839H51.9412V36.6456H40.1155V41.2839ZM37.9557 41.9566H28.0065C28.0065 41.9566 27.6878 41.8504 27.6524 41.6734L26.5548 36.327C26.5548 36.327 26.5548 36.1146 26.6256 36.0083C26.6964 35.9375 26.8027 35.8667 26.9443 35.9021C26.9443 35.9021 27.0151 35.9021 27.0505 35.9021H37.8849C38.0619 35.9021 38.2389 36.0437 38.2389 36.2562V41.4255V41.5318C38.2389 41.638 38.2389 41.7442 38.1681 41.815C38.0973 41.8858 37.9911 41.9566 37.8849 41.9566H37.9557ZM28.2897 41.2839H37.5662V36.6456H27.3338L28.2897 41.2839ZM54.1718 40.0801C54.1718 40.0801 54.101 40.0801 54.0656 40.0801C53.924 40.0447 53.8178 39.9031 53.8178 39.7614V36.327C53.8178 36.15 53.9594 35.9729 54.1718 35.9729H56.3316C56.3316 35.9729 56.5795 36.0437 56.6503 36.15C56.7211 36.2562 56.7211 36.3978 56.6503 36.504L54.4905 39.9384C54.4905 39.9384 54.3135 40.1155 54.2072 40.1155L54.1718 40.0801ZM54.5259 36.6456V38.5222L55.6943 36.6456H54.5259ZM26.5902 34.9107C26.5902 34.9107 26.484 34.9107 26.4486 34.9107C26.3424 34.8753 26.2716 34.7691 26.2362 34.6629L24.7137 27.0859C24.7137 27.0859 24.7137 26.8735 24.7845 26.8027C24.8553 26.7319 24.9615 26.661 25.0677 26.661H37.9203C38.0973 26.661 38.2743 26.8027 38.2743 27.0151V34.4505C38.2743 34.6275 38.1327 34.8045 37.9203 34.8045H27.0505C27.0505 34.8045 26.8735 34.8045 26.7673 34.9107C26.6964 34.9107 26.661 34.9462 26.5902 34.9462V34.9107ZM25.4926 27.3338L26.8735 34.0964C26.8735 34.0964 27.0151 34.0964 27.0859 34.0964H37.6016V27.3692H25.4926V27.3338ZM57.4646 34.7691H54.1718C53.9948 34.7691 53.8178 34.6275 53.8178 34.4151V26.9797C53.8178 26.8027 53.9594 26.6256 54.1718 26.6256H62.1029C62.1029 26.6256 62.3507 26.6964 62.4215 26.8027C62.4923 26.9089 62.4923 27.0505 62.4215 27.1567L57.7833 34.5921C57.7833 34.5921 57.6063 34.7691 57.5 34.7691H57.4646ZM54.5259 34.061H57.2876L61.501 27.3338H54.5259V34.061ZM52.2953 34.7691H39.7614C39.5844 34.7691 39.4074 34.6275 39.4074 34.4151V26.9797C39.4074 26.8027 39.549 26.6256 39.7614 26.6256H52.2953C52.4723 26.6256 52.6494 26.7673 52.6494 26.9797V34.4151C52.6494 34.5921 52.5077 34.7691 52.2953 34.7691ZM40.1155 34.061H51.9412V27.3338H40.1155V34.061ZM63.2713 25.528C63.2713 25.528 63.2713 25.528 63.2359 25.528C63.2359 25.528 63.1651 25.528 63.1297 25.528H54.2072C54.0302 25.528 53.8532 25.3864 53.8532 25.174V19.3673C53.8532 19.1903 53.9948 19.0133 54.2072 19.0133H66.9181C66.9181 19.0133 67.166 19.0841 67.2368 19.1903C67.3076 19.2965 67.3076 19.4381 67.2368 19.5443L63.5899 25.351C63.5899 25.351 63.4129 25.528 63.3067 25.528H63.2713ZM54.5259 24.7845H63.0942L66.2808 19.686H54.5259V24.7845ZM52.2953 25.4926H39.7614C39.5844 25.4926 39.4074 25.351 39.4074 25.1386V19.3319C39.4074 19.1549 39.549 18.9778 39.7614 18.9778H52.2953C52.4723 18.9778 52.6494 19.1195 52.6494 19.3319V25.1386C52.6494 25.3156 52.5077 25.4926 52.2953 25.4926ZM40.1155 24.7845H51.9412V19.686H40.1155V24.7845ZM37.9203 25.4926H24.6783C24.6783 25.4926 24.3596 25.3864 24.3242 25.2094L23.1558 19.4027C23.1558 19.4027 23.1558 19.1903 23.2266 19.1195C23.2974 19.0487 23.4036 18.9778 23.5099 18.9778H37.9203C38.0973 18.9778 38.2743 19.1195 38.2743 19.3319V25.1386C38.2743 25.3156 38.1327 25.4926 37.9203 25.4926ZM24.9615 24.7845H37.5662V19.686H23.9347L24.9615 24.7845Z" fill="url(#paint1_linear_113_2995)"/>
<defs>
<linearGradient id="paint0_linear_113_2995" x1="0.353516" y1="30.6978" x2="69.458" y2="30.6978" gradientUnits="userSpaceOnUse">
<stop stop-color="#2E99DB"/>
<stop offset="0.5" stop-color="#2C8BCA"/>
<stop offset="1"/>
</linearGradient>
<linearGradient id="paint1_linear_113_2995" x1="0" y1="30.7505" x2="69.8392" y2="30.7505" gradientUnits="userSpaceOnUse">
<stop stop-color="#2E99DB"/>
<stop offset="0.5" stop-color="#2C8BCA"/>
<stop offset="1"/>
</linearGradient>
</defs>
</svg>
