<svg width="71" height="65" viewBox="0 0 71 65" fill="none" xmlns="http://www.w3.org/2000/svg">
<path d="M69.2123 52.5406H1.31192C0.801113 52.5406 0.363281 52.1028 0.363281 51.592V1.31439C0.363281 0.80359 0.801113 0.365723 1.31192 0.365723H69.2123C69.7231 0.365723 70.1609 0.80359 70.1609 1.31439V51.592C70.1609 52.1028 69.7231 52.5406 69.2123 52.5406ZM2.29704 50.6434H68.2636V2.26301H2.29704V50.6434Z" fill="url(#paint0_linear_113_3063)"/>
<path d="M69.2139 52.9046H1.31349C0.583776 52.9046 0 52.3208 0 51.5911V1.3135C0 0.583777 0.583776 0 1.31349 0H69.2139C69.9436 0 70.5273 0.583777 70.5273 1.3135V51.5911C70.5273 52.3208 69.9436 52.9046 69.2139 52.9046ZM1.31349 0.693242C0.985121 0.693242 0.729718 0.948601 0.729718 1.27697V51.5546C0.729718 51.883 0.985121 52.1384 1.31349 52.1384H69.2139C69.5422 52.1384 69.7976 51.883 69.7976 51.5546V1.27697C69.7976 0.948601 69.5422 0.693242 69.2139 0.693242H1.31349ZM68.2652 51.0073H2.29862C2.11619 51.0073 1.93376 50.8614 1.93376 50.6425V2.26211C1.93376 2.07968 2.0797 1.89723 2.29862 1.89723H68.2652C68.4476 1.89723 68.6301 2.0432 68.6301 2.26211V50.6425C68.6301 50.8249 68.4841 51.0073 68.2652 51.0073ZM2.62699 50.2776H67.9004V2.62699H2.62699V50.2776Z" fill="url(#paint1_linear_113_3063)"/>
<path d="M26.5268 63.4492C26.016 63.4492 25.5781 63.0113 25.5781 62.5005V51.5912C25.5781 51.0804 26.016 50.6426 26.5268 50.6426C27.0376 50.6426 27.4754 51.0804 27.4754 51.5912V62.5005C27.4754 63.0113 27.0376 63.4492 26.5268 63.4492Z" fill="url(#paint2_linear_113_3063)"/>
<path d="M26.5254 63.8136C25.7957 63.8136 25.2119 63.2298 25.2119 62.5001V51.5908C25.2119 50.8611 25.7957 50.2773 26.5254 50.2773C27.2551 50.2773 27.8389 50.8611 27.8389 51.5908V62.5001C27.8389 63.2298 27.2551 63.8136 26.5254 63.8136ZM26.5254 51.0071C26.197 51.0071 25.9416 51.2625 25.9416 51.5908V62.5001C25.9416 62.8285 26.197 63.0839 26.5254 63.0839C26.8538 63.0839 27.1092 62.8285 27.1092 62.5001V51.5908C27.1092 51.2625 26.8538 51.0071 26.5254 51.0071Z" fill="url(#paint3_linear_113_3063)"/>
<path d="M44.0736 63.4492C43.5628 63.4492 43.125 63.0113 43.125 62.5005V51.5912C43.125 51.0804 43.5628 50.6426 44.0736 50.6426C44.5844 50.6426 45.0223 51.0804 45.0223 51.5912V62.5005C45.0223 63.0113 44.5844 63.4492 44.0736 63.4492Z" fill="url(#paint4_linear_113_3063)"/>
<path d="M44.0752 63.8136C43.3455 63.8136 42.7617 63.2298 42.7617 62.5001V51.5908C42.7617 50.8611 43.3455 50.2773 44.0752 50.2773C44.8049 50.2773 45.3887 50.8611 45.3887 51.5908V62.5001C45.3887 63.2298 44.8049 63.8136 44.0752 63.8136ZM44.0752 51.0071C43.7468 51.0071 43.4914 51.2625 43.4914 51.5908V62.5001C43.4914 62.8285 43.7468 63.0839 44.0752 63.0839C44.4036 63.0839 44.659 62.8285 44.659 62.5001V51.5908C44.659 51.2625 44.4036 51.0071 44.0752 51.0071Z" fill="url(#paint5_linear_113_3063)"/>
<path d="M68.1907 43.784H1.31192C0.801113 43.784 0.363281 43.3461 0.363281 42.8353C0.363281 42.3245 0.801113 41.8867 1.31192 41.8867H68.1907C68.7015 41.8867 69.1393 42.3245 69.1393 42.8353C69.1393 43.3461 68.7015 43.784 68.1907 43.784Z" fill="url(#paint6_linear_113_3063)"/>
<path d="M68.1922 44.148H1.31349C0.583776 44.148 0 43.5642 0 42.8345C0 42.1048 0.583776 41.521 1.31349 41.521H68.1922C68.922 41.521 69.5057 42.1048 69.5057 42.8345C69.5057 43.5642 68.922 44.148 68.1922 44.148ZM1.31349 42.2142C0.985121 42.2142 0.729718 42.4697 0.729718 42.798C0.729718 43.1264 0.985121 43.3818 1.31349 43.3818H68.1922C68.5206 43.3818 68.776 43.1264 68.776 42.798C68.776 42.4697 68.5206 42.2142 68.1922 42.2142H1.31349Z" fill="url(#paint7_linear_113_3063)"/>
<path d="M52.3554 64.325H18.0951C17.5843 64.325 17.1465 63.8872 17.1465 63.3763C17.1465 62.8655 17.5843 62.4277 18.0951 62.4277H52.3554C52.8662 62.4277 53.3041 62.8655 53.3041 63.3763C53.3041 63.8872 52.8662 64.325 52.3554 64.325Z" fill="url(#paint8_linear_113_3063)"/>
<path d="M52.357 64.689H18.0967C17.367 64.689 16.7832 64.1052 16.7832 63.3755C16.7832 62.6458 17.367 62.062 18.0967 62.062H52.357C53.0867 62.062 53.6705 62.6458 53.6705 63.3755C53.6705 64.1052 53.0867 64.689 52.357 64.689ZM18.0967 62.7917C17.7683 62.7917 17.5129 63.0471 17.5129 63.3755C17.5129 63.7039 17.7683 63.9593 18.0967 63.9593H52.357C52.6854 63.9593 52.9408 63.7039 52.9408 63.3755C52.9408 63.0471 52.6854 62.7917 52.357 62.7917H18.0967Z" fill="url(#paint9_linear_113_3063)"/>
<defs>
<linearGradient id="paint0_linear_113_3063" x1="0.363281" y1="26.4532" x2="70.1609" y2="26.4532" gradientUnits="userSpaceOnUse">
<stop stop-color="#2E99DB"/>
<stop offset="0.5" stop-color="#2C8BCA"/>
<stop offset="1"/>
</linearGradient>
<linearGradient id="paint1_linear_113_3063" x1="0" y1="26.4523" x2="70.5273" y2="26.4523" gradientUnits="userSpaceOnUse">
<stop stop-color="#2E99DB"/>
<stop offset="0.5" stop-color="#2C8BCA"/>
<stop offset="1"/>
</linearGradient>
<linearGradient id="paint2_linear_113_3063" x1="25.5781" y1="57.0459" x2="27.4754" y2="57.0459" gradientUnits="userSpaceOnUse">
<stop stop-color="#2E99DB"/>
<stop offset="0.5" stop-color="#2C8BCA"/>
<stop offset="1"/>
</linearGradient>
<linearGradient id="paint3_linear_113_3063" x1="25.2119" y1="57.0455" x2="27.8389" y2="57.0455" gradientUnits="userSpaceOnUse">
<stop stop-color="#2E99DB"/>
<stop offset="0.5" stop-color="#2C8BCA"/>
<stop offset="1"/>
</linearGradient>
<linearGradient id="paint4_linear_113_3063" x1="43.125" y1="57.0459" x2="45.0223" y2="57.0459" gradientUnits="userSpaceOnUse">
<stop stop-color="#2E99DB"/>
<stop offset="0.5" stop-color="#2C8BCA"/>
<stop offset="1"/>
</linearGradient>
<linearGradient id="paint5_linear_113_3063" x1="42.7617" y1="57.0455" x2="45.3887" y2="57.0455" gradientUnits="userSpaceOnUse">
<stop stop-color="#2E99DB"/>
<stop offset="0.5" stop-color="#2C8BCA"/>
<stop offset="1"/>
</linearGradient>
<linearGradient id="paint6_linear_113_3063" x1="0.363281" y1="42.8354" x2="69.1393" y2="42.8354" gradientUnits="userSpaceOnUse">
<stop stop-color="#2E99DB"/>
<stop offset="0.5" stop-color="#2C8BCA"/>
<stop offset="1"/>
</linearGradient>
<linearGradient id="paint7_linear_113_3063" x1="0" y1="42.8345" x2="69.5057" y2="42.8345" gradientUnits="userSpaceOnUse">
<stop stop-color="#2E99DB"/>
<stop offset="0.5" stop-color="#2C8BCA"/>
<stop offset="1"/>
</linearGradient>
<linearGradient id="paint8_linear_113_3063" x1="17.1465" y1="63.3763" x2="53.3041" y2="63.3763" gradientUnits="userSpaceOnUse">
<stop stop-color="#2E99DB"/>
<stop offset="0.5" stop-color="#2C8BCA"/>
<stop offset="1"/>
</linearGradient>
<linearGradient id="paint9_linear_113_3063" x1="16.7832" y1="63.3755" x2="53.6705" y2="63.3755" gradientUnits="userSpaceOnUse">
<stop stop-color="#2E99DB"/>
<stop offset="0.5" stop-color="#2C8BCA"/>
<stop offset="1"/>
</linearGradient>
</defs>
</svg>
